<svg id="northAmerica" data-name="Layer 1" 
  xmlns="http://www.w3.org/2000/svg" 
  xmlns:xlink="http://www.w3.org/1999/xlink" viewBox="0 0 800 600">
  <defs>
    <style>
      .cls-1 {
        fill:none;
      }
      .cls-2 {
        clip-path:url(#clip-path);
      }
      .cls-3 {
        fill:#ddd;
      }
    </style>
    <clipPath id="clip-path">
      <rect class="cls-1" width="800" height="600"/>
    </clipPath>
  </defs>
  <title>northAmericaTrimmed</title>
  <g class="cls-2">
    <polygon class="cls-3" points="466.94 122.52 465.56 125.91 467.01 126.45 472.73 127.39 474.93 127.26 478.14 128.34 480.97 128.18 482.2 127.64 480.11 124.13 477.3 121.77 475.17 120.32 471.71 120.51 466.94 122.52"/>
    <polygon class="cls-3" points="478.79 59.47 477.36 61.91 475.47 67.53 477.39 68.05 479.12 62.44 480.37 62.37 479.46 65.73 479.51 66.51 481.39 66.41 482.06 64.32 482.73 59.56 483.64 58.87 483.65 56.35 481.9 53.15 480.81 53.37 480.25 51.82 481 51.15 481 51.15 479.75 51.38 480.42 54.8 480.38 59.69 478.79 59.47"/>
    <polygon class="cls-3" points="475.08 57.94 474.99 59.05 473.91 59.43 473.23 61.36 474.67 61.75 476.88 59.1 477.44 57.81 477.44 57.81 475.08 57.94"/>
    <polygon class="cls-3" points="486.86 60.11 488.19 58.46 487.54 55.5 487.54 55.5 487.32 54.26 486.22 54.32 485.83 55.91 486.26 57.94 485.73 59.54 486.86 60.11"/>
    <polygon class="cls-3" points="487.06 116.17 488.14 115.8 487.42 114.26 486.06 115.29 487.06 116.17"/>
    <polygon class="cls-3" points="500.45 138.25 500.95 136.02 500.95 136.02 499.68 135.78 496.7 138.78 497.37 139.53 499.7 138.93 500.45 138.25"/>
    <polygon class="cls-3" points="487.42 114.26 487.42 114.26 487.42 114.26 487.42 114.26"/>
    <polygon class="cls-3" points="477.98 258.3 477.31 257.56 477.31 257.56 475.89 257.48 475.33 258.77 476.8 259.63 477.98 258.3"/>
    <polygon class="cls-3" points="480.53 258.79 482.3 259.48 485.75 259.12 489.12 260.19 490.53 260.11 492.95 261.23 495.01 261.43 497.84 261.27 499.49 257.08 497.2 255.63 495.13 255.12 494.26 253.75 492.75 254.94 492.38 256.7 490.28 255.71 489.74 254.64 487.61 255.87 486.58 257.19 484.6 258.4 483.4 256.74 481.83 256.82 478.44 258.12 478.64 258.9 480.53 258.79"/>
    <polygon class="cls-3" points="443 230.52 443 230.52 441.08 229.85 439.51 230.09 438.82 231.71 441.32 231.41 443 230.52"/>
    <polygon class="cls-3" points="469.51 253.43 466.83 253.43 466.93 255.15 469.26 257.23 469.63 255.47 470.5 254.16 469.51 253.43"/>
    <polygon class="cls-3" points="500.65 155.73 502.77 157.02 500.52 147.86 498.9 149.84 499.44 151.07 499.26 153.44 500.65 155.73"/>
    <polygon class="cls-3" points="412.91 216.49 413.33 215.67 413.11 214.43 410.76 214.72 409.41 215.9 410.88 216.76 412.91 216.49"/>
    <polygon class="cls-3" points="599.64 231.53 598.4 231.92 596.68 234.85 598.4 234.59 599.64 231.53"/>
    <polygon class="cls-3" points="696.2 123.64 698.91 124.12 704.07 123.51 706.08 122.77 709.54 122.73 713.51 120.61 714.29 120.41 715.43 118.3 711.36 116.01 707.31 116.71 706.32 115.98 704.76 116.23 702.17 115.11 697.61 115.22 696.49 114.81 691.32 115.42 684.48 116.91 682.11 116.89 682.11 116.89 678.77 119.12 678.51 120.08 679.82 120.8 686.43 120.74 688.65 121.08 690.76 122.06 692.28 123.87 696.2 123.64"/>
    <polygon class="cls-3" points="623.58 201.03 625.03 198.9 624.32 197.52 622.76 200.44 623.58 201.03"/>
    <polygon class="cls-3" points="600.91 234.45 600.71 231 599.24 232.81 599 234.09 597.97 235.41 598.02 236.35 600.38 236.22 600.91 234.45"/>
    <polygon class="cls-3" points="691.27 156.06 692.87 156.44 693.06 154.22 693.06 154.22 691.37 154.95 691.27 156.06"/>
    <polygon class="cls-3" points="687.4 218.03 687.36 220.08 688.17 220.5 689.54 219.64 688.01 217.68 687.4 218.03"/>
    <path class="cls-3" d="M322.86,214.68l-.43-7.54-3.72-57L333.33,133l1.32-1.65,18.89-27.85L366.2,85.09l12.5-18.35h0l-1.08.38-3.85-1.2-4.58-.21-1.44-.39-1.32-1-5.66-2.51-2.85-.31-1.88.11-7.35,3.73-2,1.22-2.62,1.09-.67-.75-4,1.65,1.13-2.27.66-2.24.16-2.69-.57-1.7-3.91-7.81-.86-4-1.92-3.36-2.18-5.07-.33-3-.72-1.53-5.37-.17-1.53.87h-2.68l-2.45,1.24-1.06-2L315.51,33l-.07-1.26L314.29,31l-.16-5.5.56-1.29-1.42-5.59.17-2.53-.56-4.38h0l.83-2.09-.18-3.14.64-2.56-.72-1.53L314.93.74l.2-2.06.72-1.14.3-3,.89-1,1.47-4.65.35-2.23-.36-.77,1.83-1-1.57-2.59,1.14-2.11,4.8-4.21-2-1.93-.1-1.73,1.46.7,1.15-2,2.22-2.49-1.75-.37.42-1,2.59-1.57,1.73-.1-.07-1.26-1.18-1.35L328.9-39l1.86-.58,2.27-1.7,2.54.33.66-2.24-3-.3-2.5-2.38,1-1,1.61.54.55-1.45,1.13.41,5.09.81.77-.36L342-49l1.5-1.35,1.89,0L346.68-53l-.53-1.07-.34-3.13-1-1.67L343-59.61l-.54-1.23-2.85-.31L337-62.58l-.39-1.24L335-65l-1.68.88-4.21,3.55-.52-.76,2.13-1.38,1.15-2-1.29-.56-1.26.07L328-66.47l-.74.83-1.31-.87-1.27-.09-2.91-1.25L319.94-69l-.42,1,1,1-1.53.72-1.13-.57-1.23-2.29,1.57-.09.9-.84,2.89.94,1,.73,2.55.48.52.76,2.23.35,1.32,1,3,.3,2.66-.31,3.5.59,1.34,1.34.78-.2,1.63,1,2.2-.13,4.91-2.33L351-69l-1.17-1.19-.4-1.55,2.66-.31-1.37-2,.89-1,2.6,1.43,1.54-.56,1,1,.87-1.31,4,.88,4.17-4.18,1.36-1,0-1.89L368-82l0-2.21L368.6-86,370-87l1.75-5.3,1.17-4.32,1-1.48.06-1.74-1.36-1.81-2.85-.31-3.27.66-1.74-.22-1.4.39-4.41-.06-3.77.21-1.54-2.12-2-1.15-1.07-2.14-1.13-.57-1.35-1.5-2-1.15L341-110.85l-3.16-.14-1.6-.38-.21,1.9-3.41-1.85,1.53-.72,1.13.41,6.78.09.84.9,2.15-.91,1.95,1,1-2.57,3.26,1.86,3.46,2.64,1.08-.38,2.42,1,.54,1.23,2.14,1.61,1.2,1.66,2.74,1.1,4.69-.58,2.26-1.86-.39-1.4,1-1.63,1.06-.69.84-1.78,1.05-.85.55-1.45-.39-1.4.35-2.23,1.68-.88-.05-.94,1.65-1.51-.23-1.25.7-1.46-1-.57-3.54-1.37-2.37-.18-1.85-2.1,1.39-.55-.24-1.4,4.06-.55,3.1-.81,1.66-1.35,1.09-.22,1,1.67,1.17,4,1.08-.38,1.29.56,3.32.28,1.31.87.75-.67-2.68-2.84,1.36-1,.72,1.53,1.53-.72,2.48,2.06,2.35-.29-3.45-5.32-2.48-2.06.2-2.06-1.4.39-.56-1.54-2-1.15-.92-2.31-2.19.28-.22,1.59-1.52,1-.87-1.53,1.5-1.35,2.95-.8,2.19-.28,0,1.89,1.61.7-.42,1,.71,1.38,1.12.25.51-2.08,1.1-.06-.5,2.23.23,1.25,1.67,1.64,1.42.08,1.36,1.81.23,1.25,1.74.06,2.16-3.59-.06-1.1,1.22-.7,1.88-.26,1.36-3.86,1.51-1.19.55-1.45.29-3.17,2-.43,1.38-.71.5-2.23-.39-4.07.09-3.94L409.59-160l-1.78-.84-4.46-3.68-1.06-2V-169l-1.75-.37-.1-1.73-1-.73-.26-1.88-1.48-1-.87-1.53,2.69.16,1.35-1.18.71,1.38,1.19-1.17.24-1.27,1.11.09,2.33-3.28-.48-3-1.35-1.66-1.72.26-1.13-.57-.27-2,.92-.37,1-2.42-.11-1.88-1.27-.09-2.26-1-1.88.26-1.66,1.35-1.09-2.62-.08-1.41-7.46-1,5.35-.15-1.19-1.51-.13-2.36-2.51.14-.77.36-1.9-.21-.74.83-3-.14-2.4-.65-1.17-1.19-1.45-.55-2.64.62-3.36,1.92-2.46,1.09.73,1.69-.58.82.88,1.68v2.52l2.35,5.38,1.18,1.35,3.64.27.73,1.69-1.88.11.57,1.7-1.28,2.44h2.68l-1,1.32-1.82,1.21-3.44.51-.2,2.06.92,5.15-.52,4.76.32,2.82L371-159.66l-1.53,3.55-.63,2.71.55,1.39.61,5.16-1.4.24-1-.73L366.44-146l.29,2.35-1.54.56L364-141.46l-1.37-2-.42-1.87-1.65-1.32-3.19-3.44-1.64-1.17-1.06-2-1.65-4-.23-1.25.51-2.08-1.43-3.07,1-1.63.72,1.53,2.11,1.14.93-3-.79-2.79-1.43-2.91.09-1.27-1.27-2.92-2.18-2.4-4.1-2.76-1.17-1.19-.89-1.84-2.09-.83-1.05.85L340.56-180l-.72,1.14-.31,2.85.74,2-1.47,4.65,1,1.52-.09,1.27-.88,1.15.07,1.26-1,1.48.38,1.08-1.07.53-1.09-2.62L334-165l.57-1.13,0-2.21-.67-.75.36-1.91-.21-3.77L332.54-177l-.58-1.86-1-.42-2.18-2.24,1.68-.88-.3-2.5,2.25-2,.26-1-1.78-.84-.72,1.14-1.15-.88-1.53.72-1.42-2.75-1.44-.39-1,1.95-1.48,1.66-2.4-.65-3.15-2.81-3,.17,2.2-2.8,2-1.37.26-1,1.9-2.63-1.49-1.33-2.67.15.06-1.74,1.2-1,2.31,1.76,3.26-.82-.22-1.09-1-.57-.63-2.8-1-.26-.88,1.15-1.29-3.23-.87-1.37-.59-2-2.74-1.1-.74-1.85-1-.73-.9-2-.16-5.66-.72-1.53-.64-3-1.3-.71-.57-1.7-3.27-2.18-1.35-1.66.56-1.29L301-236.48l-3.43.67-1-1,1.21-.86.35-2.23-1-1.2-4.8,1.53-.18,5.21-1.41.08L288.3-232l-.53,1.76,1,.89,2.55.49-.55,1.45.71,1.38-.39,1.44-.93.21-2.52-2.69-1.69.73-1.42,2.76,0,2.21-.73,1,1.18,1.35-.58.82-.68,4.61,1.75,3.05,1.65,1.32-.37,1.75-2.06,5.32.1,1.73.81,3.1,1.89,2.73,1.12.25.12,2,1,1.67,2.51-.14,2,2.09,4.23,2.28,2.27-1.7.39,1.4,1.88,2.57,3,.14.25-1.12,2.45-1.24.69,1.06-.65,2.4,1.12.25-1.71,3.09-1.44-.39.39-1.44-1.79-1-1.53.72-.4,4,1.6.38-.66,2.24-.93.21-1.24,3.06-.46,3,1.76.53.91-.68,1.4-.24.27-3.48,1-2.26,2.1,1,.6,2.17-.24,1.27-.54,4.28,1.62.85-3,2.22-1.92,2.31.13,2.36-.92.52L301-153l-3.18-.61-1.73.1.38,1.08-1.11,2.58.43,2-1,1-.09,1.11,2,1.46,1.25,2.61-.58.82,1.52,4.48-.5,2.23.5,3.28.66.59-.54,1.61-1.29-.56-2.48.77-.68-.91-.31,0,1.68-.88.52.76,2.16-.75-.67-3.43-1.2-1.66-2.32.76,1.75-2.46.24-1.27-1.59-.22-2.65,3.3-1.37-2,.83-1.94-1.76-.53-1.23-2.29,2.18-3.27-.41-1.71.79-5.56.37-1.75-.51-.6.49-2.39-3,1.91-1,1.32-.22,1.59-1.54.56-.38-1.08,2.33-3.28-1.66-1.48-1.83,1-.76-2.32-2.18-2.4-1.3-.71-1.89,0-1.61-.7-1,1,1.69,2-2.31.92-.71,1.3-2-1.46-.9.84.47,2.65,1.48,1-1,2.1.56,1.54,1.34,1.34.39,1.24,2.4-2,1.84-.89,2.67,2.68.76-.52.94,2.62-.57,1,1.16,1-2.16.75-.58.82-1.4.24-.68-.91-2.27-1.13-1.33-1.18-1.29-3.23-2.36-2.7-1.75-.37.13,2.2,3,3.14-4.44,2.3-2.69-.16-1.35-1.5-1.74-.06-1.14-.72-2.5.3-.66-.59-4.57-.05-1.92,2.16-2.39-.49-1.53.87-.72,1.14-2.41-.81-.87-1.53-1.56.25-.89,1-1.8-1.16-2.41-.81-1.56-2.43-1.11-.09-2.16-1.92.2-2.06-1.44-.39-.24,1.27-1.11-.09-1.52,1-1-.57-1.23.54-1.31-.87-1.39.55-1.4-2.44.68-1.93-1.6-.38-1.67-1.64-.72,1.14-1.69-2-.39-1.4-1.3-.71,1.16-1.8-.94-2.62.7-1.46-2.08-3.35-3.41-1.85-.74.83-7.08,2.92-1.2,1-1-.1-3.1.81-3.76.37-1.18,1.33-1.7,3.4-1.51,1.19-.56,1.29,1.76.53,1.57-.09-.53,1.76.83.74,2.83-.16.51.6,1.66-1.2-1.19-1.51.4-1.28,2.5-.3.19.62,3,.77,1-1.48,2.2-.13.88,1.68,1-1.63-.52-.76.5-2.23,3.55-1.3,1.68-.88,1.29,3.23-.55,1.45-1.74-.22-1.18,1.33-1.29-.56-1.88,2.94-2.64.62.29,2.35-1.29-.56-4.17,1.5-2.44-1.28-1.11-.09-.36,1.91,2,1.46-.28.65-2.14,1.07-.8,2.57.05.94,3.08,4.24-.79,2.72.83,3.58,2.05,2.88-2.18,3.27-.87-1.37-1.29-.56.37,6.44.61,2.33,2.79,4.72-.61.35L195.42-123l-.95-2.78-1.21-1.82-1.14-.72.24-1.27-.61-2.33.72-1.14,2.09.83v-2.52l-.61-2.49-3.5-3.42-.87-4.2-1.23.54-.3,3-1.06.69-1.2-1.66.9-.84-.34-3.29-.52-.92-3-.77-.72,1.14-1.46-.7.36-1.91-.87-1.53-1.4.24.49-2.39-1.62-.85-.41,1.13-1.74-.22-1.35,1.18-1.4.39-.73,1-1.69.73-2.13-1.45-2,1.06-.26,1-2.58-1.11-2.49.46-1.13-.57-.87,1.31-5.07-.5-2.11-1.14-4.42-.22-2.44-1.44-1.74-.22-3-2-2.69-.16-1-1.67-1.95-1,.12-.64,3.41-1-.84-.9,1-2.1,2.22.19.82-2.25,1.6.38,1.57-.09.67.75,2.46-1.09,1.47-1.82-1-1-.81-3.1-1.15-.88-.94-2.62-1.48-1-1.57-2.75-1.62-.85-2.65-2.21-2.22-.19-.43.81-1.82-1.47-1.23.54,1.51,1.65-1.2,1-.7-1.22-1.09.22-3.05-1.09-.66-.59-1.57.09-1.5-1.49L118.8-185,116-187.82l-1.09-2.46-4.23-2.44-1.61-.54-2.12-1.3-1.6-.38-1.83-1.79-2.42-3.8L94-167.67l.18.46L99.9-160l6.75,8,6.75,8,8.4,9.29,8.55,9.12,7.36,7.61,9.35,9.23,5.17,5.06h0l-5.17-5.06L137.73-118l-7.36-7.61-8.55-9.12-8.4-9.29-6.75-8-6.75-8-5.77-7.23-.18-.46,7.11-32.85h0l-.57-1.7-4-4-4.23-2.28-3.32-.28-3.4-1.7-1.83,1,0,2.21-1.52,3.71-1.29-.56-2.23,2.33-3.84-1-.92.52-1.95-1,.66-2.24,1.52-1,1.16-1.8,1.07-.53.39-1.44-1.72.26-1.48-1.18,1.44-2.44-.39-1.4.82-2.25,1.05-.85.23-1.43-2.26-1-.22,1.75H71.66l.14,2.51L70-214l-.38,1.6-1.85.74-1-.42L66-210.18l1.13.57-.41,1.13-1.73.1L63.51-207l2.51-.14,1.14.72L66.62-205l-2.48.77-1.54-2.12L61-207.22l-1.59-3.06-1.92-6,.32-5.37-.5-6-1.17-3.87-2.47-4.59-1.11-.09-1.61,2.14-.23,1.43.44,2.18,2.8,2.2-3.29.34-.81-.43-2.44,1.4-.34,2.38-2.88,1.9-4.08,3.07-1-1.2.81-2.41-3.2-.92-1.07.53-3.91.54-1.27-.24L28.7-221l-2.88,1.9-2.38,2.5.9-3.52L23-221l-2.33.61-1-1.2-2.48.77.52.92-1.49,1.5-2.64.62-1-.1-1,1L10-217.08l-.91.68-1.59-.22-.92,3.2.22,1.09,1.88-.26.72,1.53L8-210.19l-2.66-2.37-1.7.57L1-212.47l.09-1.11,1.41-.08L4-215l.69-1.77,1.24-.39.68.91,1-1.63,1.92-2.31,3.62,0,2-.27.09-1.27L17.34-224H20l1.13.57,3.45-.2.57,1.7,2.09-2,1.41-.08.57-1,8.51-2.69,1.07-.53,1.32-1.65-1.1-2.77-1.23.54L36-230.22l-1-1-1.73.1.4-1.28-2.55-.48-2.35.29L26.5-229l-1-1.52-1.13-.57L23.77-230l-1.27-.09-2.42,1.71-2.19.28-.59.66-2.49-2.22-1.49,1.5-1.61-.7-1.19,1.17-.38,1.6L7.7-224.51l-1.94-.83-1.42-.08-.89,1-3.6.36.7-1.46,3.34-2.24-2-1.93.45-3.18-1.57.09-1.61,2.14.38,1.08-.89,1-.87-1.37-1.61-.7-2.09-.67-1.52,1-.48,2.55-1-.1-1.21-1.82-2.21,0-.42,1-1.24.39-.65,2.4,1,1.52-2.19.28v2.52l1.63,1,1,2.94-.09,1.27-2-1.62-1.09-2.46-1-1.36L-20-223.41h0l-1.88.11-.83-.74-.88-1.68-1.46-.7L-30-233.07l-.77-2.48-1-.42-.88-1.68-.26-1.88-.87-1.53-.32-2.82-3.48-3-1-1.52-2.24-.66-2.92-1.57-2.16-1.92-82.3,175.75h0l82.3-175.75h0L-47-253.68l-1.58-.07-.65-3.11L-51.5-260l-1.14-.72-.71-4.21-1.22-2.14-.79-.11-1.22-2-5.12-1.44-.52-.76-1.55.4-1.3-.71-2,.59-1.81-1.31-.62.19-2.19-2.55-1.21-1.82-.8-2.95-1.59-.22L-76-281l-3.91-2.3-2.23-.5-3.69-3.89.57-1-2.22-3-1.24.39-.82-3.26-.8-.27-1.06-2-1.37-2-3.42-2-2.34.45-2.09-.83.9-.84-.69-1.06-1.79-1-.77.36-2.25-.82-1.2,1-.74-2-3.12-2.19,1.72-.26,1-1.16-1.31-.87-3.25-1.71,1.26-2.75,3.39-1.3-1.25-2.61-1.63-1-2.52-2.69-1.74-.06-2.31-1.76-2.78.95-.55-1.39-1.47-.86-.13-2.2,2-1.37L-120-331l-1.09-2.62-2,.43.07,1.26-3.13.34-1.18,1.48-1.1.06-1.78-.84.32-2.7.74-.83,1.47.86,2.64-.62.9-.84.23-1.43-.69-1.06-1.29-.56-.46-2.49-1.3-.71.18-2.37-1.89,0-2.62,1.09-2.9,1.58-3.58.83-3,.17-1.43-.23-4.53-2.1-4.38-2.27,1.47-1.82-2.7-.32-3.84,1.79-.09,1.11-.83,1.94-2,1.53-1.28-.4,3-2.38.57-1.13-1.78-.84-7,1.19-4-.72L-172-346l-2,.12,1.17-1.64-1.13-.57-2.62,1.09-3,.64-2,1.37-4.67.9-2.13,1.38-.72,1.14-4.35,3.87-1.56.25-4.64,1.52-3.6.36-3.35-.75-3-2-1.93-.68-4.1-2.76-.53-1.07-2.65-2.21-1,1.79-3.43,3.35-2.6,1.41-2.19.28,1,4.35-.49,2.55,2,3.83.55,4.06.14,2.51.7,1.22-.14,3.16.65,3.11-.47,2.86-1.22,3.53-2.32,3.44-.1,1,2.88,3.62,1,1.67,1.46.7,1.24,2.45,3.7,1.36,1,.73.76,2.32-1.42-.08-2.75,1.42-1.31,2,.07,3.93,1.36,1.81,2.62-1.09,1.95,1,1.12,3.09,1.08-.38.7,1.22-.22,1.75-1.93,2-2.75-1.26-1.15-.88-.34-3.29-.89-1.84-.93.21-2.25-.82-.78-2.63L-223-287l1.81-1.36-.22-1.09.58-3.66-1.09.22-1.62-.85-.44.65-.61,3.18,1,1,.1,4.56-.55,1.45-2.12,1.54,1.91.36,1.49,1.33,1.74,2.89-.33,2.54-1.27-.09-1-1.52.26-1-1.62-.85-2.28,1.39-2.81.47-1.37-2-1.92-.52-.37-.92-1.29-.56.07-1.58-1.16-1-1.6-.38-1.2-1.66-2.44-1.44-.14-2.51.86-1.47.92-.37,1.31-2,2.3-1.08.56-1.29-.57-1.7-2.12-1.3-3.4-1.7-2.82.32-2.61-1.58-4.45-.69-2,.59,1.3,3.55-2.24-.66-1.85-2.1-.59-2-4.44-.53-2.47.93-2.21,0-1.13-.57-.39-1.4-2.66.31-1.35,1.18-1.49-1.33-3.44.51,1,3.41.67,3.43,2.85,3,3.1,4.71-.41,1.13-1.95-1-.43.81-3.6.36-.7,1.61.81,3.1-1,1.16-1.84.89-.51,2.08.42,1.87,4.09,5.44,1.92,3.36,3.51.75-.12.64,3.18.45,2.34,2.39,1.29.56,1.53,2,.78,2.63,0,2.05,1.83-1-.52-.92-.61-2.49,1.74.06.37.92.53,3.75-.77.36-1,2.42,1.73-.1,1.65-1.51,1.24-.39,2.55.49,2.64-.62,3.35.75,1.84,1.94,3.7-1.47.12,2,.41,1.71-.51,2.08-1,1.16-3.41,1-2.66-2.53-1.05.85,1.22,2.14-.42,1,.17,3-2.16,3.59-1.79,4.51-1,1.16-2.47.93-3.42.82-3.39-1.38-.52-.76-3.27-2.18.89-1-.71-1.38-6,2.23-2.22-.19-1.53.72-2.51.14-2.27-1.13.23-1.43-1-1.2.31-2.85-2.2-2.71-1.94-.83-2.67.15-.49,2.55-2.13-1.45-3.36,1.77-1.32,1.65-1.13,2.27-1.53.87-2.12-1.3-2,.43-5.72,1.9-1.55.4-1.52,1-.73,1-.49,2.55-1.61-.7-2.31-1.92-.14,3-3.63-.11-.54,1.61,2.08.51.57,1.7-.9.84-1.74-.06-.36,1.91,1,1.83-1.78,2,.09,1.57.7,1.22,1.35-1.18.84.9.13,2.36-2.18.44-.24,1.27,2.44,1.28-.27.8,1.62.85-.38,1.6,1.63,1,2.5,2.38,4.07-.39-1.81,1.36-1.27-.09,1.89,2.73.24,1.4-1.35,1.18-2.36,0-1.3-.71.41-1.13,1.35-1.18-.41-1.71-3.16-.14.83-1.94-1-1.67-1.49-1.33,1.33-1.49-2.07-.35-2.36.13-.71,1.3-4.09.08-1.22.7.85,1.05,2.23.5-1.18,1.33-1-.42-.33,2.54,1.08,2.3.66,3.27-.53,1.76.76,2.32-1,1.16-.64,2.56,1.21,1.82,2,1.62,4.86,2.4,3.18.45,1.23-.54,1.66,1.48,1.37-.87,1.62-2-.38-1.08,1.56-.25,0,1.89-.76.52,0,2.21-.48,2.7-.86,1.47-.72,4-.71,1.3-.31,2.85L-314-170l-1.49,1.5-1.08.38-.69,1.77,1.69,2,.53,1.07-2.65.47-2.13,4.06-1.6-.38-1.52,1,2.51,2.54,2.22.35.9-.84,5.7.46,0,.79,2.49-.46,3.93-.07-.21,1.9-.88,1.15,1.36,1.81-.17,2.53,3.1-1,1,.89-.41,1.13.3,2.5-1.17,7.15,1.67,1.64,2-.59-.2-.78,1.21-3.69,1.55-.4,1.66-1.35,3.44-.51-.88,1.15-1.82,1.21.73,1.69-.64,2.56.87,1.53,6.38,1.37,1.4-.24,4.14.87,1.86-.58-3.44,3.19-3,.48-3.71,1.16-2.1,1.85-.4,1.28-2.41,1.87-2.51,3-2.54,2.35-1.9,2.63-2.7-.32-2.32.76-2.84-.15-5,1.54-1.53.72-2.79,3.62-1-.42-.59-2-2.85-.31-2.34.45-1.58-.07-3.05-1.09-3.92.38-2.07-.35-2.8.63-2.73,1.89-2.15.91-.39,1.44.92,2.31-.44.65-1.61-.7.4-1.28-1.63-1-2.47.93v-5.36l-3-2-4-1.35h-5.51l-5.59,1.42-.54,1.61-1.47-.86-3.1.81-1.89,0-.23-1.25-3.5-.59-1.71,3.09-1.87.42.06,1.1,3.47.12.59-.66-.44-2.18,1.36-1,.72,1.53-.43,3.49.67.75,2-.12,2.24-2.18-.25-1.56,1.22-.7.81.43-1,4.15-.74.83,1,1.36,4.13.55-.23-1.25,1.05-.85,1,.73,3.41-1,1.62-2,1.69-.73,1.94.83-.4,1.28-1.85.74-1.51,1.19,1.32,1,.38,1.08,3,.62,2-.74.27,2,3.22,1.23,1.37-.87,2.36,0,.81.43,3.12-.49,1.13.57.9-.84,1.37,2-1.23.54.4,1.55,2.28-1.39,1.57-.09,2.73.95,1.48,1.18,1.68-.88,2.43,1.12,1,.89,1.5-1.35,1.59.22.25-1.12,1.89,0-.72-1.53L-323-101.4l4.35-1,1.49,1.33,1.41-.08,1.2,1.66,1.18-1.33-.82-.58,1.36-1,1.61.7.08,1.41,1.63,1,.35-2.07,2.06.2.85-1.62,1,2.94,2.32-.76,3.91-.54,1.35,1.66,2.27-1.55,1.88-.11,1.12-2.43,1.66-1.35,3.47.12,2.7.48,2.82-.32,1.31-2,1.08,2.3,1,.26.7-1.46,3,.3,1.79-1.83,1.83,1.79,1.54-.56.39,1.4,2.45-1.24,1.33,1.18,1.85-.74,0-2.36,3.18.61.5-2.23,1,.73,2-1.69,1.79,1,3.29-.34,2.27-1.55.88-1.15-.75-2.16-1-.73-.09-1.57-3.94-2.77,2.67-3,1.55-.4-.05-.94,4,.56.22-1.59,1.93.68,1-1.16,1,.26,1,1.2,3,.14,1.35-1.18-1-1-.07-1.26,1.94.83,1.31.87,1.27.24,2.14-1.22,1-1-.11-1.88,1.23-.54,2.51-.14,2.12-1.54.41-1.13,1.69-.73,1.72-.26,1.06-.69,2.5-.3,2.54-2.35,2.19-.28,1.93.68,2.22.19,1.82-1.21,1.4-.24,2.23.35,1.24-.39,1,1.83,3.75,2.31,1.8-1.52,2.31-.92,1.26-.07,1.93.68.69,1.06-3.49-.43-1.86.58-2,1.37-2.18.44,2,4.93,1,.89.73,1.69,1.11.09.26,1.72-3.66-3.41-1.2-1.66h-2.52l-1.34-1.34,0-2.05-.83-.74-3.76.37-4,.86-1.62-.85-1.88.11-.73,3.82-1.75,2.46-1.1.06-1.17,1.64-1.21.86-3.56,1.15-4.06,3.38,0,2.36,1.86,2.26,4.69-.58.83.74-2.77,1.1-1.83,1-1.75-.37-.28.65-1.95-1h-2.84l-2.11,1.7.81,3.1,1.62.85,2.34-.45.53,1.07,1.48,1,.89-1,1.35,1.5.56-1.29,3.3-.19,2-1.37,1.38,2.13,2-.9.8.27,3.07-1.43,1,.57,2.38-2.5,1.3.71,3.25-1,3.16,3,3,2,1.75.22,2.26-1.86,1.27.24,1-1.32-.72-1.53,2.77-1.1,1.73-.1.42-1-.14-2.51-2.62,1.09.09-1.11,1.69-.73L-187-117l-2.14,1.07.82-2.25-1.57.09.85-1.62,3,.14,2.27-1.55,1.45.55-1,1.32.54,1.23,1.29.56.39,1.4,1,.1.71-1.3,1.23,2.29,3.41-1,1,.89,1.59.22,2.95-.8,2.27,1.13-.24,1.27-2.29-1.44-2.91,1.43-.07,1.58.9,2,1.27.09.7,1.22-3-.46.09,1.57h2.84l.53,1.07-1.52,1,3.16.14,1.37,2-.27.8-3.7,1.47,3.1,1.87.76,2.32,1.45.55,1.55-.4,1.66-1.35L-160-97l-.09,1.27-1.84.89-1,1.32,1.46.7.8,2.95,2.09.83,1.45,3.38.44,2.18,3.18.45,3.71,1.52,4,.88,6.59,5.14,1.54,2.12,1.13.41,2.67-.15.84.9-.72,1.14-1.56.25.87,1.37,2.73,3.63,2,1.78,2.59,1.27,5.19-.14,2.14-1.22,1.41-.08,1.34-1.34,1.19,4.34-.8-.27-.48-3-2.14,1.22-.49,2.39.39,1.24-2.73,1.89-2.07-.35,4,6.7,1.83,1.79,2.08,3.35,3.24,4.38,1.09,2.62-.49,2.39,2.16,4.76-.09,1.11,2.47,4.59,1.44.39,1,1.2-.26,1,1.42,2.75,1.66-1.35,1.14.72,3.17.29.76-.52v-2.84l.43-.81-1.32-3.86-1.14-.72.73-1-3.18-3.28.41-1.13,2,2.25,1.54-.56-.51,2.08,1.54,2.12,1,.42L-94.8-30l-.12,6.15-.91.68-.52,1.92,2.69.16.86,1.21,1,.1v3l1.34,1.34,1.5-1.35.48-2.7.12-3.47.77-.36.33-2.54-.22-3.93,1.41-2.92,1.28.4-.69,4.45-.57,1.13.26,1.88,1.39-.55L-85.1-23l-.63,0,.34,3.29-.19,2.22,2.16,1.92L-82-12.1l3.63-2.73-.36,1.91-1.08.38-.86,1.47-.5,2.23L-80-6.07l.53,3.75,2.25-2L-78.18-1l2.56,3.48-.6.51L-78.79-.63l-.94.05L-80.28.87-79.37,3l-.42,1,.17,3L-81,7.69l-1.33,1.49,2.5,2.38,1.57-.09-.09,1.11L-76,15.91l-1.23.54,1.1,2.77,1.52,1.8-.8,2.57,1.88-.11-1.16,1.8,1,1.67,0,1.89,1.63,1L-72.27,31l.92,2.31-1.88.26-.63,2.71-2.54,2.51L-78.84,40-79,43l1.71,2.42.85-1.62,1.53-.87,1.45-2.13-.87-1.53,1.73-.1,4-1,.38,1.08,1.87-.42-.08,1.42.56,1.54.83,3.58-.77,3-1.36,3.7L-70,54.16l-.42,1,.87,1.53-1,1.16.39,1.4L-71,61.31l.38,1.08,1.38-.71,1.8,1.16,2.93-1.11,2.25-2,2.67-2.83,1.22-.7,0-5.2.83-1.94,0-1.89,2.54-2.35.53-1.76h0l-.53,1.76-2.2,2.8.22,1.09-.85,1.62.14,2.51-.42,3.65-1.83,1-1.48,1.66.58,1.86,4-4.17.53-1.76,1.17-1.64.44,2.18-2.83,2.84-1.66,1.2-1.45,2.13L-62.25,63l-1.58,2.61-2.17.6-.24,1.27-1.09.22-1.51,3.87,1.92.52L-67,74l-.91.68,1.5,1.49L-67.59,80l1.66,4.32,3.31,8.32,1.39-.55L-60,88.72l1.66-1.2,3.4-1.14,1.66-1.2,0,1.89-1.23.54-.83,2.09-.21,1.9-2.32.76.52.92-.8,2.57,1.4,2.44,1.2,1.66-.66,5.08.21.93,1.63,1,1.71-.41-.37,1.75-2.34,3.13-.37,1.75-1.52,1,.71,1.38,2.52-2.82L-54.2,116l2,2.41,3.89-.85.74-.83h2.68l.27,2-2.11,1.7-.79-.11-1.67,1-2.16.75-1.3,2.12-2,.12-1,1.63-.48,2.7.39,1.4v2.84l1.27.09,1.74-2.62-.08-1.41,2.12,1.3,3.33.44,4.21,2-.14.32L-47,131.46l-3-.62-1.89,0-.76.52-1,2.1-1.68.88-.57,1,1.79,1-3.59.52-.09,1.27,1.2,1.66,1.58.07-1,1.95.87,1.53,3,2.35,1,1.2,2.42-1.71,1.83,1.79,1.25-.23.59,2,1.24-.39,2.4.65.12,2,1.32,1-.58.82-2.37-.18.07,1.26-1,1.16,3.07,1.4,1.7-.57,1.06,2,2.22.35,1.55-.4,2.79,1.89.28,2.19,1.11.09,2.9,1.1.74,2-2.73,4.57,2.93,4.4,2.7.48,1.69-.73,1.18,1.35-1.38.71L-23,177.5l.61,2.33,4.14,3.54,1.23-.54.08-1.42,3.26-.82-.75,3.35.08,1.41-.73,1,.54,1.23-.85,1.62.95,2.78.64.12,1.34-1.34,2,2.09h0l-.68,1.93.78,2.63,1.59.22.21,3.61-.9.84-1.11,2.58,1.35,1.66-.43,3.49,1.39,2.28-1.67,1-1.74,2.62-.64,2.56-.27,3.64.24,1.4-2,1.53-1-.42-.72,1.14-2.42,1.71-.72-1.53-1.25.23L-20.9,225l.85-1.62,1.07-.53.13,2.2,1.81-1.36,1.4-.39,1.71-3.09-.72-1.53,0-1.89,2.16-.75-.16-2.83-.64-.12-2.54,2.51-.56,1.29-2.64.62,2.19-3,1.27.09,1.19-1.17.09-1.11-.65-3.11.1-1-2.66.31-1-1.36-1.88.11-3.86-1.36-1.31-.87-4.17-1.34-1.69-2-1.8-1.16L-35,198.66l-1.22.7-1.59,2.45.23,1.25-.27,3.64,1.39,2.28.39,1.4-.1,3.79-.43,3.49.62,2.64-.27,3.48,1.61.7,0,.79,1.33,1.18-2.18.44-1,1.16-.24,1.27,2.09.83-1.13,5.1-2.46,1.09,1.23,2.29,3.14-.18,1,1,1.58.07,1.57,2.75,1.57-.09h0l1,.1,2.17,2.08.78,2.63-.61,5.86.67.75,1.61.54,3.26,1.86,4.06-.55,2.47-.93,2.86.47,3.69,1.21,1.37,2,1.09-.2-1.09.2-1.37-2L-9.89,255l-2.86-.47-2.47.93-4.06.55-3.26-1.86-1.61-.54-.67-.75.61-5.86-.78-2.63-2.17-2.08-1-.1h0l-.75.67-1.93-.68-1.22-2-1.39.55-3.17-.29L-38,239.32l.13,2.36-.37,1.75-.92.52.08,1.41-.68,1.93.26,1.88-1.69,3.56L-42.49,258l-2.09,4.84-.58.82-1,3.84-4.48,12.54-3.65,7.77L-56,289l-2.38,5.18-2.19,3,.11,1.88.89,1.84-.22,1.74-1.66,4-.08,4.1,1.41,2.6-.64,2.56-1,1.16,1.32,1v2.68l-.14,3-2,4.36-.75.67.13,2.36-2.85,5.2-.8-.27-2.92,4.1.13,2.36-.42,1,2.57,3.63,2.38,5.85.15,2.67-.32,2.7-1,1.63-.7,1.61.51,6.11-.88,1.15.6,2.17,2.26,3.65,1.79,3.84,1.5,1.49,1.31,3.71-.23,4.27,1.16,1,.9,2,.79.11,1.7,2.11,1.53-.87-.84-.9,1.08-3.21,1.39-.55,1.52,1.8,2.09.83,1.19-1.17.87,1.37-2.66.31-1-.89-2.77,1.1,1.19,4.34.89,1.84-.22,1.59-2.89-.94.08-4.1-1.41.08-.19,2.22-1,2.26.68.91.3,2.5-.77,3,2.63,4.73,1.14.72,1.88-.11.86,1.21.61,2.33-.83,2.09L-51.4,417l-.83-.74-.8,2.57,0,3.46.7,1.22,1.18,1.35,1.21,1.82.42,1.87,1,.89,0,1.89,1.54,2.12.46,2.49,1.3.71,1.63,3.69,1.82,1.47-.95,2.73,1.19,1.51,2,1.31.06,1.1-1.25,2.91.53,1.07-.69,1.77.38,1.08-1.15,2,1.83,1.63.23,1.25,5.09.81,1.76.53,1.81,1.31,2.09.67,1.73-.1,2.29,1.44,2.36,2.7.27,2,3.94,2.77,2.09.83,3.65.42,1.21,1.82.44,2.18-.7,1.61,1.63,1,.89-1,2.27,1.13,1.37,2,2.66,2.53L.59,489l2.15,4.6L3,497.84l-.58.82v2.52l1.31.87.15,2.67,20.72,1.5,16.6,1.1.6-.51,2.23.5h0l-2.23-.5-.6.51h0l-16.6-1.1-20.72-1.5h0l-.08,1.42.82,3.42,1,.73.61,2.33.31,2.66,1,.42L7.54,517l2,1.31-.22,1.59L7.6,523.57l2,2.56,2.14,4.45.39,1.4-1.07,3.37,1.27.24.9,2,1.64,1.17-.12,3.47-.64,2.56.29,2.35,1.23-.54L17,547.77l.43,2-.31,2.85-.83,2.09,1.31.87.27,2-.4,1.28,2.86,3.15,3.11,2,1.22,2.14,3.4,1.54,3.14,5.33,1.45.55,1.14,3.4,1,.1,1,1.36,1.49,4,1.61.54,1.63,3.69-2,3.58,1,1-1,1.48.45,2.34h-.16l-.48-.13L37.5,595l-1-.1.93,2.47-.9.84.92,2.31,1.87-.42,1.14.72-.73,1-1.45-.55-1.05.85-.68-.91-2-1.62-.31-2.66-3.07,1.43-1.74-.22-5-1.92-2.21,0,.59,2,1.77.69,1.53,2,.56,1.54,2.12,1.3L30,605.15l-.14,3.16,3,2,1,.1,2,1.15,1.41,2.6.78-.2,2.27,1.13,1.12,3.09,1.19,1.51,1.6.38.87-1.31,2.22.35,1.15.88L50,618.35l.54-1.61,1,.26-.39,1.44-1.36,1,1.14.72,1.08,2.3-.1,1,4.85,4.92.52.92,1.27.24,1.83,1.79.92-.37,1.52,1.8.46,2.49,1.48,1.18.67,3.43.74,2,.1,1.73-1.19,6.84-1,1.48-.38,1.6L64,656.3l-.57,1.13.43,2,1.14.72.92-.52,1.72,2.58.32,2.82,2.45-1.24.75,2.16,2.7,3.15,3.45,2.48,3,2.35,3.39,4.22,2.56,3.48,1.17,1.19,2.78,1.73,1.65,1.32,2,4.46.64,5.79.55,1.39,1.67,1.64,1,.1,3-1.91.43-.81,3.4-1.14,1.33-1.49.83-1.94.14-3-.59-2-3.42-2v-2.84L100.56,679l.35-2.07-1.7.57-1-.42L98,674.69l-2.47-1.91-.89-1.84-1.73.1.28,2.19-1,1.79-.86-1.21-2.57-1L87,669.8l0-1.89-.73-1.69.49-2.39,1.44-2.29-1.33-4-.81-.43-1.39-2.28-1.45-6.06.25-1.12-1.6-.38-1-1.83-.43-2-1.17-1.19-.52-3.59.83-1.94-.82-3.42.23-1.43-1-1.52.51-2.08-2-1.31.5-2.23-1.48-1.18-2.38-3-.62.19.52,3.59,1.7,2.27-1.06.69-2.43-4,.85-1.62L70,618.47l.86-1.47-.53-1.07-2.27-1.13-.41-1.71-1.23-2.29-.48-3-.52-.92L62,604.75l-1.53-2-.91-2.15.49-2.55-.45-2.34.4-1.28-1-1.83.69-1.77L58.9,589l-1.57.09-1.63-1-.9-4.67-.74-1.85-1.71.41-.11-1.88-1.48-1-.59-2-1.61-3.37.6-.51L47.26,570l-1-.73-1.89-2.73-1-.57L40.2,562.2l-1.09.22-.83-.74-.13-2.36L36.65,558l-.43-2-1.08-2.3,1.17-4.32,0-2.36-.57-1.7.52-1.92,0-3.62-1.5-1.49-.48-3,1.19-4,.49-2.55,1.44-2.29-.46-2.49-1.24-2.45,1.85,2.1.65.44,1,.73,1.43.23,1.21,1.82,4.8,4.14,1.9.21,1.2-1,1.54-.56,3.13,2.34.32,2.82.85,1.05,6.6,2.46.86,1.21-.35,2.23-.9.84-.77,3,.31,2.66L62.56,551l1.54,2.12v2.68l1.22,2L65,560.16l.37.92-.54,1.61,1,.42,2,4.3.24,1.4,1.73,2.74-.83,1.94.85,1.05,1.58.07.56,1.54-.41,1.13.71,4.21.8.27.89,1.84L76,585.36l-.57,1.13,2.21,2.87.61,2.33L82,593.53l.39,1.4,2.5,5.21,2.81,2.36,1.08-.38,2,1.93,1.05-.85,2.24.66,1.18,1.35-.2,2.06-.83,2.09.72,4.37.93-.21,1.27,2.92,1.7,2.11,3.21,1.08,1.89,0,.85,1.05,0,2.05.64,3,1.36,1.81,1.14.72,2.48-.77,1.75.37.2.78,2.57,3.63-.16,2.69,1.76.53-.29.49-1.38.71-.92.37h-.16l-1,1.79-1.62,2,0,2.36-.52,1.92,4.27,3.06.75,2.16,1.35,1.5.59-.66,1.91.36.09-1.27,1.45.55.94,2.62,1.27.24,1.52,1.8,1.78.84,1.7,2.11,2.05,0,.69,1.06,1.11.09-.06,1.74-1.54.56.43,2,1.84,1.94.62,2.64,2.91,1.25,1.21,1.82,1.95,1,1.84-.89.6,2.17-1.21.86,2.32,2.07.36.77,5.62,4.72,2,2.72,1.65,4.16.8.27,2.22,3,1.48,1.18,1.3,3.55,2.53,2.85,1,.73,3.09,4.39,1.47.86,2.37,2.86,1.25,2.61.91,4.83-.25,4,.42,1.87,3.54,6.89,2.62,1.74,1.35,1.5-1.16,1.8.31,2.66-.48,2.7L176,740l-1.62,2-2.2,2.8,1.78.84.92-.52,1.19,1.51,1,1-.26,1-1.5,1.35-4.55.26-2.28,1.39.74,1.85,1.7,2.27.34,3.29,1.74,2.89,2.93,4.4,1.83,1.63,1.13.57.13,2.2.87,1.53,3.79,2.93,1.26-.07,2.62,1.74,2.57,1,1.73-.1.41,1.71,2.74,1.1,3.58,2,4.31,3.69.41,1.71,2.49,2.22,1.28,3.08,2.6,1.43,4.49,1.48,1.59.22,5.18,2.38,2.7.48,7.86,2.55,1.35-1.18,1.09-.22,4.22,2.12,1.21,1.82,1.32,1,.55,1.39,2.74,1.1.73,1.69,3.7,1.36,1.47.86,3.17,3.13,5.63,2,13.49,4.59L277,825l2.57.8,4.42.22,4.31,1,5.45,1.58,1.54-.56,4.19,4.49,2.09.67,6.21,1.22.68.91,6,3.44,4.73,0,1.28.4,3.62,0,2.08.51,2.79,1.89,1.75.37,1.62.85,3.17.29,2.42,1,2.31-.92,3.79.1,2-1.53,3.06-1.59,5.55-2,1.67-1,2.49-.46,3.56-3.83,1.53-.72,1.74.06,3.1-.81-.19-.62-3-.3.41-1.13,1.1-.06,1-1.48,1.22-.7.82.58,1,1.83,2-1.53,1.46.7-.1,1-2.3,1.08.2.78,5-.29,6.27,2.16.42-1-1.74-.22-1-.73-1.07.53-2.46-1.75.88-1.15,2.77,1.58,1.7-.57,1,1.36,3.52.9,1,1.2-1.71.41,5.68,3,3.76,2.46,4.92,3.5,5.13,4.28,3.24,1.55,0,.63,2.51,2.54,8.27,6.93,1.33,1.18.76-.52.63-2.71-.91-2.15.53-1.76-.11-1.88,1.31-1.81-2.68-2.84-.22-1.09,7.13-15.84.44-.5,13.78-1.41,9.54-1.17.83-2.09-.73-1.69.84-1.78-.08-1.41-1.58-.07-1.32-1-2.08-.51.09-1.27-2.2-2.71-6.62-2.77L438,809.07l-1-.1-2.53-2.85-1.41.08-1.32-1,8.14-.94-1.24-10.64.61-.35,12.83-1.52,20.34-2.42-.16-2.83,1.67-1,3.4,1.7,2.16-3.59L480,781l1.34-1.34.82-2.25,0-1.89.74-.83,3.74-.69,2.47-6.44,1-1.63.73,1.69.41,1.71-.92,3.2,0,.79,2.71.63,2.23,3.18.94-2.89.17-2.53-.16-2.83.83-1.94.35-4.9.65-2.4.41-3.8-1.24.39-1,1.95-1-.26.17-2.53,1.34-1.34,1,.42,1.46-2-.07-1.26-2.51.14-1.86.58-1.3-.71-.25-1.56,1.85-.74.24-1.27,1.65-1.51.41-1.13L497,741.6l0-2.36,2.95-6.31,2.52-2.82,2.71-5,.44-3.33.94-2.89-1.29-.56-1-4.35-1.73.1L501,711.92l-2.56-.64.26,1.88L497,715l-4.25.08-1.13-.41-1.59-.22-2.64.62,0-.79-3.49-.43-3,.17-2.6,1.41-3,.17-2.62,1.09-1.48,1.66L464,721.27l-11.49,2.86-2.29,1.23-.9.84-2,.9-3.92,3.06-.44.65-.58,3.66.62-.19-1,1.63-.24,4.11.61,2.33.38,6.59.52.92.11,1.88-3.14,3-.52,1.92.34,6-1.15,2-.91.68-1.31,2L434.28,769l-1.33,1.49-2,1.22-2.56,2,1.37,2,1.08-.38.84.9-.21,1.9-.71,1.3L427.71,781l-.57,1.13-2.5.3-2.69-.16-1-1.2-2.19.28-.09-1.57,1.6.38.58-.82-1.48-1-2.21,0-6.23,1.3-1.24.39L406,781l-1.31,1.81-1.49,1.5-1.54.56-9.25.84-2.48.77-.09,1.27-1.74-.06-3.23,1.29-4.91,2.33-6.05,1.6-2.09-.67-1-1.83-1.67-1.64L367.2,786l-3.64-.27-1-1L359.62,783l-5.34.3-4.29-.7-2.31.92-1.12-3.09L345.11,777l-1.27-.09-2.21-2.87-2.3-1.6-1.66-4.32-1.17-3.87-.93-2.47-4.24-5.27L324.51,750l-2.19-2.55-1-1.67.08-1.42-2.78-4.57-1.1-2.77-1.94-3.67.07-1.58-1.59-.22L312.44,729l-1-3.57,1.45.55,2.53,2.85,2,1.62.21.93L316,732.69l.73,1.69,1.49-1.5.32-2.7-.36-.77L315,727.23l-1.85-2.1-3-4.87-.34-3.29-.81-3.1-1.46-3.54.95-2.73.58-.82.92-3.2-.78-5.47.13-3.32.46-5.7-.14-5.19.72-9.49,2.74-12.76,2.3-3.91,2.31-6.43-.12-2,.33-2.54-1.88.11L313.25,649l-4.44-3.21-2.08-.51-2.35.29-4.74-.2-1.3-.71-1.19-1.51-3.53-1.06-1.08.38-1.64-1.17-1-1.2-1.57.09-1.29-.56-2.05,0-.45-2.34-1-.73-1.27-.09-.24-4.24-1.61-.7-.26-1.72-.82-.58-.88-1.68.47-2.86-1.09-2.46.38-1.6-.62-2.64L276,616.67l-1.76-.53-1.68-1.79-.82-.58-.42-1.87-2-2.09L268,607.2l-1.95-1-1.5-1.49-1.89-5.56L261.14,597l-.42-1.87-1.7-2.11-.83-3.58-1.48-1-.89-1.84-3.27-2.18-.39-1.4-.93.21-2.61-1.58.57-1.13-1.29-.56-.84-.9-.73-1.69-2.39-.49-1.24.39-5.41-1-2.35.29L232,575.06l-1.22.7-.56,1.29-1.74-.22-2.79.79-1.57,2.77h0l1.58-2.77,2.79-.79,1.74.22.56-1.29,1.22-.7,2.92,1.57,2.35-.29,5.41,1,1.24-.39,2.39.49.73,1.69.84.9,1.09-.22,1.55,2.27,1.63,1,.39,1.4,3.27,2.18.89,1.84,1.48,1,.83,3.58,1.7,2.11.42,1.87,1.54,2.12,1.89,5.56,1.5,1.49,1.95,1,1.25,2.61,2,2.09.42,1.87.82.58,1.68,1.79,1.76.53,1.65,1.32.62,2.64-.38,1.6,1.09,2.46-.47,2.86,1.46.7.39,1.4,1.62.85.78,2.63,1.48,1-.65,2.4,1,.73.45,2.34,2.05,0,1.29.56,1.57-.09,1,1.2,1.64,1.17,1.08-.38,3.53,1.06,1.19,1.51,1.3.71,4.74.2,2.35-.29,2.08.51,4.44,3.21,2.87-2.21,1.88-.11-1.59-.22-.26-1.72L315,643.9l-.08-1.41L314,641l.09-1.27-1.65-1.32.35-2.07-1.36-4.49-1.15-.88,0-3.46,1.25-.23-.4-1.55.76-.52V622.5l-1.21.86-1.9-.21-.05-.94,1.67-1,1.75.37,2.45-6.76-1.63-1-.57-1.7-1.74-.06-.51-.6,4.23-.4,1.31.87,2.45-3.92-1.29-.56-1-1,4.54-.57L322,604l-.09-1.57-1.19-1.51,1.07-.53,2.17,2.08,4-2.27-2-2.09-1-.57.24-1.27,3.47.12,1.36-1,1,1.83,6.12-3.18,2-.12,1.39-.55,3.49-2.4,3.43-3.35-.11-1.88,1.35-1.18,2.65-3.3-2.38-3,0-3.31,2.26,1,.68-1.93,1.24-.39,1,1.52-.76,3.19,2.33-.61-.68,1.93,9.32-5.1h3l-1.21-1.82.06-1.74,1-2.26.94-.05.65.44-.21,1.9-1.67,1,1.06,2,1.37-.87,4.51-1,4.07-.39,2.86.47,5.78,1.88,2.23.5,4.42.22,2.57-1.88L395,571.3l.1-1,2.15-.91.12-.64,2.19-.28-.39,1.44,3.14-.18,1,.26-.07,1.58,1.26-.07.74,2,3.48.27.59-.66,1.22,2.14-1.6,2.3,1.78.84,4.92.66,1.56-.25,2.09.83,2-3.58,2.66-.31,2.4.65-.07,1.58.87,1.37,2.09-2-.42-1.87.7-1.61-1-3.1,1.79,1,1.09-.22,2.12,1.3.52.76,4.64,1.31,2,2.72,1.29.56,1.89,0,2.38-2.5-3.35-3.43-2.18.44-1.62-.85-1.24.39-.71-1.38-2.09-.67-1-1.36,1.23-.54,2.44-4.23.66.59,1.16-1.8-1.77-.69-.13-2.36-2.12,1.54-.51,2.08-1.1.06-2.62-1.74.52-1.92-1.62-.85-.57,1.13-1.66,1.2-2,.59-2.86-.47-1.64-1.17.23-1.43,2.64-3.46,2.53.17,1.67,1.64,3.31,0,1,1,3-.64h0l-1.12-.25-.87-1.53-1.1-2.77-2.15-1.77-1.06-2,1.13-5.1-.05-.94h0l.05.94-1.13,5.1,1.06,2,2.15,1.77,1.1,2.77.87,1.53,1.12.25,1.26-.07.23-1.43,1.37-.87,4.76-2.16,1.18-1.33L446,552l1.79,1,2.82-.32,1.43.23,1-1.32-5.18-27.27L447,497l-.81-28.15-1.67-1.64h0l1.67,1.64L447,497l.93,27.36,5.18,27.27.61-.35,4,.72-.28-2.19.41-3.8,1.71-.41.9,2-.4,1.28.53,1.07,2.61,1.58.08,1.41,2.93-1.11.11-.79,1.52-1,.85-1.62-.35-.61,1,.1-.5,2.23,1.43.23,2.34-3.13,2-1.22,1.48,1-1.5,1.35,5.59-1.42,2.9-1.58,1.27.09,1.84-.89,2.23.35-3,1.91,4.92.66,3.37,1.07,2.31-.92,1.07,2.14,5.71,3.46,1.19,1.51.26,1.88,2.77-1.1,3.73-.84,2.12-1.54,1.18-1.33,2-1.69,2.67-.15-1.06-2,1.64-1.67,3.72-1,3.07,1.4,1.11.09,1.94.83,1.66,1.48,1.52,1.8,2.08.51.46,2.49,3.4,1.54,1.36,1.81,1.27.24,1.35,1.66,2.8-.63,1.31.87.74,1.85,2.14,1.61.79,2.79.64,5.63-1,4.94.56,1.54-.17,5.37.79.11,2.3,1.6.79,0,.17-2.53-.37-.92-2.08-.51.38-1.6,1.43.23,2.12,1.3.91-.68.91,2.15-1.87,3.1,0,2.05-1.22.7.39,1.4,1.46.7.59,2,4.26,5.59,1.5,1.49,2.07.35.32-2.7,1.63,1,.36,3.6,1.25,2.61,2.26,1,1.09-.22,1.1,2.77,1.15,3.56,2.77,1.58-.09,1.11,2-.27,3,.62,1.48,1,4.46,6.36,1,.57,2.06.2,1.15.88-.1,1-2.4-.65-1.46-.7,0,1.89,2,1.62,2.77-1.1.74-.83,2.53.17,1.76-2.31,2.67-.15.22-1.59,1-1.63-.91-2.15,0-2.36.49-2.39.76-.52-.12-2,.59-.66-.9-7.51-.76-5,.28-.65-1.17-4-1.26-2.76-1.89-2.73-.48-.13L591.44,580l-1.25-2.61-7.67-10.27-1.72-2.58-2.69-5.83,1.78.84.28,2.19,2.49-.61-6.87-7.17-6.15-8.47-2.08-3.35-4.12-8.74-.25-1.56-1.54-2.12-.34-3.13L560,526.3h0l-.94-2.62,0-2.05.87-1.31.19-2.22,1.26-2.75-1.13-.57-.88-1.68.3-3,.93-3,1.79-1.68-.58-1.86,1.59.22,1.56-3.08-1-.26h0l-2.09-.67-.92.37h0l.92-.37,2.09.67,0-.63,1.92-2.16.71-1.3-2.29-1.44.43-.81,2.28,1.29,1.23-.54,1.31-2-.86-1.21-1.61-.54.41-1.13,2.09.67,1.08-.38,2.39-2.34,2-1.06,1.47-1.82.23-1.43,1.52-1,1.43-2.6-.11-1.88,1.58.07,1.38-.71,2-3.89.07-4.26,1.94-4.68,2-3.11,2.37-2.66h0l4.46-1.83,3.45-.35,1.48-1.66-.33-3,.22-1.74,1.69-3.56,1.45-2.13,3.59-3.35.4-1.28,4.1-2.75,3.58-.68.87-1.31,1.1-.06,1.72-2.93-.85-1.05-2.67.15-1.23.54-1.47,1.82-.39-1.4,2.34-3.13-1.77-.69,2.27-1.55-.55-1.39h-3l1.19-1.17,2.16-.75,2.7.32,1.71-.41,2.54-5.19,1.82-1.21.07-1.58-.61-2.33-2.64-2.06L619,413.31l.63,2.8-1.13-.41-.87-1.53,0-2.36-2.18.44L613,414l-1.43-.23-1,1-2.49.46,0-2.05,2.53.17,1.31-1.81,2.93-1.11,2.07-2.32,2.51-.14-2.12-4-1.61-.7-.71-1.38h0l-26.52,7.34-13.19,3.43-18,4.33-8.42,1.58-7.94,1.71-5.78.8-.65-.28h0l-3.58.68-.6.51-12.61,2.61-12,2.42h0l12-2.42L530.3,422l.6-.51,3.58-.68.65.28,5.78-.8,7.94-1.71,8.42-1.58,18-4.33,13.19-3.43L615,401.88l.31-.17.62-.19-.79-2.79.47,0,1.57,2.59.31-.17-2.75-4.1-.88-1.68-2,.43-2.22-.19-.39,1.44-2.35.29L605,395.52l-1.41.08-1.2-1.66-2.92-1.41,3.94.09L604,394l2.73.95.52.92,1.66-1.2-.61-2.33-2.7-.48.86-1.47-1.07-2.14,1.41-.08.71-1.3L605.6,386l-1.66-1.48,1.23-.54-.11-1.88.52-1.92-.39-1.4-4.47-1-1.84-1.94-3.75.53-1.27-.24-1.5-1.49-.06-1.1-3.06,1.59-.64-.12-1-1.67.4-4.12,1.42.08-.07-1.26.92-.52-.47-2.65-.66-.59-1-.26,1,.26.66.59.17.15.21.93h0l1.14-2.11h0L590.12,366l.26,1.88-.7,1.61-.92.52-.49,2.39.57,1.7,1,.26,1.92-2.31,2.19,2.55,2.7.48,1.87-.42,3,.93,1.54-.56-1.34-1.34-1-1.52.09-1.27-2.32-2.07-1.14-3.4-.67-.75.63-2.71-.7-1.22,1.05-.85-1.59-3.06.39-1.44-.68-.91,2.75-1.57L600,350.6l.86,1.21-1.63,1.83-.44,3.33,2.05,0,.27,2-1,1.32,1.61.7-.37,1.75-1.41.08-.06,1.74,1.57-.09,1.45.55-1.35,4,2,1.93,3,.93,1.53-.87,1,.57-.86,1.47,1.88-.11-.31,2.85,3.44-.51h0L613,377.9l-1,1,.54,1.23-1.27,2.59.67.75-.52,4.76.22,1.09,1.37,2L612.9,387l.52-1.92,2.69-8,.73-1-.56-1.54.41-1.13h0l.67-2.09.19-2.22,1.07-.53-.08-4.09h0l.31,0,.15-.17-.73-1.69-1.12-.25.36-1.91-.74-2-1.24.39-2.62-1.74-.37-.92-1.32-1-1-2.94-1-1.36-2.79-2,.07-1.58-1.16-1,1.5-4-2.51.14-1.49,1.5,1.49-1.5,2.51-.14.27-.8,3-2.06-.07-1.26,1.19-1.17-.94,2.89L608.23,341l-1.32,1.65-.33,2.54.49,3.12,3.1,1.87,1.74.22,1.65,1.32,1.85-.74,2.24.66-.09,3.94,1.23-.54,1.28-2.44.47-2.86.54-1.61.35-2.23,1.22-3.53,1.7-3.4-.52-.76.35-2.07-.64-3,.62-.19-.49-5.8-1.35-1.5-2.34.45-1.46-.7.32-2.7.59-.66.78-.2.56-1.29.39-4.28-.21-.93h0l.21.93.45,2.34,1.36-1,1.37-3.54-1.66-1.48h0l1.66,1.48.91-.68,4.49-4.19,4.53-3.41,2.14-1.07,1.42.08.74-.83,2-.59,1-1,1.09-.22,2.59-1.57.81.43L649,299l1.4-.39.35-2.07-.89-1.84.13-3.32,1.74.06-1.79-1L648,286.75l-5.25,1.87h0l-1.55.4-11,3.3-9.46,2.59L624,308.43l1.17,1.19h0L624,308.43l-3.29-13.52-.49-.29-.56-12.57-4.28-14.25-1-1-1.73.1h0l1.73-.1,1,1,4.28,14.25h0l.56,12.57.49.29,9.46-2.59,11-3.3,1.55-.4,5.25-1.87,1.94,3.67,1.79,1,.81.43.79,0,1.09,2.46,1.09-.22,1.19-1.17-.07-1.26,1.51-1.19,1-1.79,1.15,3.56,1.8-1.52.55-1.45,6.13-3-1.28-3.08-1.15,2-2.25,2-2.36,0-1.45-.55-1.39-2.28-1.08.38-.61-2.49-3-2.19-3.45.2.2-2.06L652.1,276l-.52-.76,2.41-1.87-.71-1.38-1,1-1.15-.88-.95-2.78h0l.32-2.7-.69-1.06h0l-1.48-1h0l1.48,1,1.06-.69.36-4.75,1.32-1.65-.45-2.34,1.66-1.35-1.22-2.14,1-2.42,1.17-1.64,2.28,1.29,1,.1.75-3.51.73-1,1.45.55-.13-2.2.59-.66,1.95,1,.75-.67.37-1.75-.13-5,.25-1.12-1-1,1.63-1.83,1.86,2.26,1.74.06,1.24-.39-1-1.67,3-2.85,2-.59.72,1.53,1.09-.22,1.18-1.33.14-3.16,3-.64L679.7,224l1.89,0,.71-1.3,1.25-.23,1.81-4.2-1.82-1.47-2.89-3.77,1.48,1,1.13-2.27,1,1.36,2.2-.13,2.52-2.82,1.15.88,2.36-2.81,0-2.05.92-.52,2.09.67,3.56-3.83L701,199.3,704.1,196l.69-1.77,1.54-.56.17-2.53.53-1.76,2.19-.28.21-1.9,1.13.41.48-2.7,1.2-1-.85-1.05,1.85-.74.52-1.92-2.82.32-1.36,1-1.61-.7-3.08,1.28-2.11-1.14-.39-1.4L700,177.3l-.74-1.85-2.42-1-1.35-1.5.5-2.23-1-1.67-5.85,2.38,1.73-2.78.37-1.75.75-.67-.21-3.77-.85-1.05.62-2.87.57-1-2.25-.82L688.07,158l-.68-.91-2,1.37-1.31,1.81-.83,1.94-1.68.88-1-.57-1.53-2-1.29-.56-1.87.42-3.94-.09-1.77-.69-3.44,3.19-1.4.39-.9.84.9-.84h0l3-2.53.1-1,2.76-1.26,2-.43,1-2.42,2.56.64,3.6-.36,1.13.57,1.68-.88,2.49-3.29.56-1.29,1.35-1.18,0-2.36,1.31-1.81,2.12-1.54.81-2.41-1.27-.24-.06-1.1.91-.68-2-1.15-4-1.35,3-.33.39-1.44-2.74-1.1-3.36-.91-4.57-.05L671,135.47l-3.19,2.07-3.67,1.94-3.91,3.22-4.6,5-2.82,3-1.38.71L647.8,156l-2.4,2-1.14,2.11-1,1-.24,1.27-1.75,2.46-.92.37-2,3.58-1.78,4.67-1.19,1.17-.5,2.23.2.78-1.61,5-1.69,3.56.11,1.88-1,1.48-1.17,4.32-1,2.42-3.75,3.36-.57,1.13-2.14,1.07-1.13,2.27-4.36,3.71-1.74-.22-1.44,2.44-1.8,1.52-.51,2.08-2.25,2-1.58,2.61-.23,1.43-2.28,1.39-1,1.63-1.06.69-.24,4.11L601.13,230l.31,2.66-.39,1.44.7,1.22-.41,1.13-1.73.1-2.06,2.48-1.28,2.44-1.24.39-2.69,2.52L591.8,246l-2.55,2.19,1.76-2.3.09-1.11,1.47-1.82h0l1.49-1.5.41-1.13,2.14-1.22-2-1.46,1.62-2,1.09-3.05.9-.84,2.14-1.07,1.7-3.4.4-4,1.51-1.19-.26-1.88,1.49-1.5L608,217.2l1.12-2.43,2.09-2-.09-1.57,1.81-1.36,1.59-2.45,2.34-.45,2.41-1.87,1.23-.54,1.17-1.64.09-1.11,1.83-3.88,2.21-2.65.63-2.71.11-3.63,2.71-2.2-.26-1.88,2.12-4.22.22-4.42-.14-2.51-1.89,0-1-.89-1.42-.08-1.54.56-1.76-.53H621l-3.09,1.12-.55-1.39,4.09-.08.76-.52,3.2.92,1.85-.74,2.91,1.25,1.53-.72,1.71-3.09.74-3.66-.14-2.51.92-.52-.17-3,.74-.83,1.56-3.08,1.53-.72-.57-1.7,2.18-3.27.81.43,1.52-1-.32-2.82,1.82-1.21,1.56-.25.73-1,3.83-2,.79-2.72L650,137l.23-1.43-.53-1.07-.1-1.73.92-.37,0-3.15,1.93-2,.21-1.9,1.05-.85-.22-1.09,1.18-1.33,1,.73,2.16-.75,1.2-1,.7-1.61,2.35-.29,4.85-3.27,4.52-.89,2.75-1.42,1.34-1.34,2.83-.16,1.23-.54,1.34-1.34,2.92-1.27,1.75.37.91-.68,1.13.41,2-1.22.4-1.28,3.53-1.62,4.64-1.52,1-1,1.59.22,4.18-1.34,2.28,1.29L711,98.86l1.54-.56L713.74,97,715,96.9l.55-1.45,1.57-.09,2-.9.72-1.14,1.7-.57,1.18-1.33,1.27.09,1.77-2.15-.84-.9.22-1.59,2.11-1.7.25-4,1.6-2.3.38-1.6,1.4-.39-1.52-4.48,1.76-2.31-.27-2,1.25-2.91,2.65-.47L737,62.41,738.21,59l1.11.09,1.5-1.35.43-.81,1.81-1.36,1.33,1.18.92-.52h0l1.37-.87-.37-.92,1.21-.86.49-2.39L747.77,50l.76-.52,1.38-3.39,1.2-1,.38-1.6,1.31-2-.26-1.72.59-.66.51-2.08-1.2-1.66-1.94-.83.61-3.18L749.68,31l-2.77,1.1-1.29-.56.84-1.78L744,28.3l.55-1.45,1.36-1-1-1.52-2.09-.83.07-1.58.85-1.62-1.28-.4-1.08-2.3-.82-.58-2.36,0-1.35-1.66.11-.79L732.61,16l-2.34.45-.71-1.38-3.35,2.08-.49,2.55.54,1.23-.85,1.62-1.33-1.18-1.92-.52,2.19-3.12.09-1.11-1.94-.83-.38-1.08-1.46-.7-1.84-1.94-1.6-.38-.43.81-5.28,1.25L709.39,15l-1,1.32.07,1.26,2.54.33-2.54,2.35-2.67,2.83.06,1.1-1,2.42L706,27.78l-.43.81-2.56,2-.66,2.24-3,2.69-.6,3.34-.59.66-2.81.47,2.34-3.13-1.31-.87-1.78-3.52,1.79-1.68.7-1.46,2.79-.79,2.32-3.44,2.09-2,.36-1.91,1.71-.41.89-1,.59-3.5-1.21.86-1,2.1L700.61,24l-1.26.07,4.32-4.34,1.53-.72,1.89-2.79,2-1.37-.28-2.19,2.57-1.88,2.3-1.08,1-1.48-1.91-.36,2.58-1.72-.41-1.71L713.49,4l-2,1.37-2.73-.95-2.9,1.58-1.14-.72-1.68.88L700,7.34,697.28,7,696.43,6l-1.6-.38.09-1.27-1-1-3,.17V6l-1.13-.41-4.14,2L686,4.67l-1.44-.39L684,6.35,680.64,8l-1,2.26-.76-2.32-.28-2.19-.81-.43,0-1.89-.68-.91-2.09-.83.9-.84L674.79-.68,674-1,673.47,1l-1.9-.21-.86-1.21L669,.12,668,1l-.7-1.22-3,.48-1.67-1.64.59-.66L662-4.21l-1.5,1.35L656.91-2l-.28.65-2.09-.83L657-3.29l1.12.25L659-4l-2.71-.63-2.46-1.75,2.34-.45-.87-1.37-1.47-.86,1-2.42-1.61-.54,1.18-1.33-.36-.77.49-2.55,1.53-.87-1.54-2.12-1.74-.06-2.29,1.23-.94.05-1-1.67-.13-2.2-2.7-.48-3,2.06,0-2.05,1.8-1.52-.05-.94,1.2-1-.37-.92-2-1.46-1.74-.22.22-1.59-1.32-1-.57,1.13L638-30.72l.42-1L636.14-32l-1.47-.86-3,2.85-1.45-.55,3.65-2.26-1.15-3.56-.66-.59,0-1.89-2,.9-1.45,2.13-2.24-.66L628-39.13l.22-1.59-2-2.41-2.09-.67-2-1.46-.22-1.09h-2.84l-.12-2-2.46-1.75-2.8.63-.32-2.82-2.73-.95-.87-1.37-1.53.87-1.79-1,.6-.51-.47-2.65L604.78-60l-2.34.45-.1-1.73-1-1.83-1.44-.39h0l-3.3,0,.53,1.07-.71,1.3.54,1.23.29,2.35-.38,1.6.75,2.16-1.9,2.63L595-49.22l2.7,3.15,1.06,2L598.66-43l-1.23.54,1.2,1.66-1.85.74,1,1.83,1.34,1.34-1,1.79-.08,1.42L597-32.8l-.14,3,.38,1.08-3.53-1.22-.29.49.6,2.17-.76.52.13,2.36.73,1.69-3.08,1.28-.34,2.38-.92.52-2.2,2.8-1.5,1.35-1.33-1.18-.11-1.88-2.29,1.23-.26-1.72-2.49.46.79,5.63-.64-.12-.38-3.92-1.53-2-1-.73-1.27-2.92-3.37-1.07-1.57.09L570-21.33l-1-.1-2.62.94-1,1-.53,1.76-.89,1-.09,1.27-1,2.42-1.66-1.48-2.37-.18.7-1.46,2.56-2,.84.9,1.08-.38.51-2.08-2.65-5,2.42-1.71-.89-1.84-2,.12L560-26.76l-1.41-2.6-1-.26.07-1.58.88-1.15.07-1.58L557.12-34l-.51-3.44-1.41.08-.86-1.21-2.44,1.4-1.26.07-1.61-.7,3.88-1,.23-1.43,1,.1.87-1.31-.76-2.32-2.14-1.61-.76-2.32-1.16-1,1-1L549.95-52l.71-1.3,1.62-2-.56-1.54L549-60l-.91.68.27,2-.86,1.47-.2,2.06-1.6-.38-1.78-3.68-2.21,0-2.08,2.17-1.76-.53-1.68.88-3.2-.92-1.37.87-3.55-1.53-.42-1.87-1.91-.36.63-2.71L527.58-63l-1.48-1-3.17-.29-.11.79-3.48-3.11-3.63-.11-1.12-3.09L513-70.39l-1.23.54L510-70.22l-1.63-1-.37-.92-1.93-.68-1.88.11-1.34-1.34-1.68.88-.52,1.92-1,1.32-1.23.54-.84,1.78-2.63.78-.38,1.6-2.43-1.12-3.16-.14-1.37.87-3.12.49L483-65.53,476.85-66l-1.76-.53L473-66.7l-1.87.42-3.15,0-3,4.58-.76.52-.67,2.09.62,2.64,2,5.24,2.39,3.33,1.09-.22L471-46.89l1.73,2.74-1.54.56,1.51,4.32.16,2.83-2.23,5.17.09,1.57,2.43-1.56.67.75h2.52l-1.42,2.76,3,2-1,1.95,1.31.87,1,1.67,1.14.72-.66,2.24.69,1.06,2-.59.81.43-.16,2.69,1.2,1.66-1.08.38.13,2.36-3.26.82,1,.89.26,1.72-1.18,1.33,1.48,1.18L481.75-2,479.36.36l.27,2-1.18,1.33.26,1.88-2.47.93,2,4-.56,1.29.38,1.08h2.52l.68.91,2.9,1.1,0,.79L489,16.83l1.61.7,2.15,1.77.48.13,2.62,1.74,1.2,1.66,2.85,3,.39,1.24,4,5.76L505.65,36l.06,1.1,1.83,4.46.83,3.58,1,2.94.31,2.66.09,4.41-2.62,6.61-.85,1.62.65.44-.83,1.94-3.18,5.06-1,2.42-3.27,3.49-2.06,2.64L492.1,83l-.71,1.3-5,3.12-1.79,1.68,2,1.78.2.78,1.8,4,1.61.7.06,1.1,1.59.22,1.3.71,2.31,4.59-.06,1.74.69,1.06-.08,1.42,1.78.84L496,109.37l1.61.7.86,1.21,1.29,3.23L499.4,117l1.72,2.58,1.45.55.56,1.54.29,2.35,2.31,1.92,1.45.55.92,2.31-.39,1.44.72,1.53-.22,1.74L507,134.89l-.07,1.58-1.37.87,1,1.83-1.81,1.36,1.54,2.12,1.76.53.61,2.49-.7,1.61-1.61-.54-1.81-1.31-1.38.71-.27-2-1.27-.24-1,1.79-.91.68.72,1.53,2.25,9.17.18.46h0l13.61,56.41,1.2,4.5-.34,2.38h0l.34-2.38-1.2-4.5L503,157.49l-2.78-1.73-.69-1.06-4.84-2.09-3.32-.13-1.5,1.35-1.26,2.75-.66-.59,1.28-2.44,1.51-1.19-.6-2.17-1.15-.88-1.59-3.06-2.64-2.06-1.93-.68-1-1.52-2.07-.35-3-.93-1.83-1.79-2.64.62,1.63-1.83-.47-2.65-1.95-1-1.51-1.65-1.45-.55-1.22-2.14-1.65-1.32-2.42-1-.47-2.65.19-2.22,1-1.32-.94-2.62-1.44-3.23.24-4.11-2.3-4.44-1.8-1.16-.87-1.37-.48-3,.41-3.8.18-5.05-.84-.9-.79-2.79L453,87.4h-2.52l-1.38.71-1.48-1.18-1.27-.09-2,.74-3,.17-3-.14-1.76-.53-1.51,1.19-1.58-.07-4,1.8-3.8-.26-1.88.11-.53-1.07-3.34-.6-3-2.67-2.73-.95L409.93,84l-6.76-2.45-.78.2-4.13-.55-1.93-.68-1.65-1.32-4.75-6-3.7-1.36-2.31-1.76-1.61-.7-1-1-2.61-1.58L366.2,85.09l-12.66,18.36-18.89,27.85L333.33,133l-14.61,17.21m3.72,57M671,79.87l16.44-7.24L705.57,64l12-5.88,12.87-6.4,9.79-5.13h0l-9.79,5.13-12.87,6.4-12,5.88-18.1,8.59L671,79.87Zm-9.27-10.66,4.69-3.42,2.71.63h0l-2.71-.63-4.69,3.42-.26,1,.42,1.87,2.06,3-.22,1.75.55,1.39,1.34,1.34-.91.68L666,82.52l-1.37.87,1.4,2.44,1.16,1-.07,1.58-1.45,2.13-.65-.4.65.4,1.45-2.13.07-1.58-1.16-1-1.4-2.44,1.37-.87-1.23-2.29.91-.68-1.34-1.34-.55-1.39.22-1.74-2.06-3-.42-1.87Zm6.43,5-2.33.61h0l2.33-.61ZM659,90l1.12.25.71-1.3L663,89h0l-2.21,0-.71,1.3L659,90l-1.71.41h0Zm-4.77-.83,1.42.08h0l-1.42-.08Zm-12.6-2.75L643,88.55l-1.06.69h0l1.06-.69-1.38-2.13,3.21,1.08ZM638.71,35.2l.65.32.55,1.39h0l-.55-1.39Zm14.8,52.53-1-.51-2.46,1.09h0l2.46-1.09Zm-7.42-52.91h0l1.16,1h0Zm.89-12h0l1.43.23h0Zm-2-2.72,3.73-.84h0l-3.73.84Zm-1.78-3.68,1.12.25h0l-1.12-.25ZM648,87.48l1.26-.07h0l-1.26.07L646.66,89l-1.27-.09h0l1.26.09ZM637.12,10l1.54-.56,2-.12,1.6.38h0l-1.6-.38-2,.12-1.54.56Zm-.35-3.29h0l-1.55.4h0ZM614.09,62l2.43,1.11h0Zm2.27-15.42-2.58-1.11h0l2.58,1.11Zm-.33-3h0l1.33,1.18h0Zm1.89,22.1h0l2.24.66h0ZM622,68.17h0l3.45-.2h0ZM620.22-24h0l-1.87.42h0Zm-1.95-9.34,1-1.32h0l-1,1.32Zm12.18,114.3L627,80.49h0l3.49.43,1.94,1Zm4.63-7.19h0L634.42,76l-.77.36.62,2.64-.89,1,.53,1.07L633,82.19h0l.88-1.15L633.38,80l.89-1-.62-2.64.77-.36Zm-6.73-93.34h0Zm2.19,60.68h0l-1.8-1.16-1-1.2h0l1,1.2ZM625-20.69h0l-1.71.41h0ZM615.7-37l.83-1.94,1.22-.7.71-1.3,1.42.08,1.8,1.16-1.8-1.16L618.47-41l-.71,1.3-1.22.7L615.7-37l-1.58-.07h0ZM623,38.5h0l-5.22-3.17ZM611-41.79h0L609.59-42h0Zm-2.41,1.87h0l-.81-.43Zm.26,1.72,1.61.54,2.46-1.09h0l-2.46,1.08-1.61-.54-.89,1h0Zm3.5,80.77h0l-.22-1.09h0ZM602.27-48.69l2.91,1.25,1.75-2.46h0l-1.75,2.46-2.91-1.25Zm-.75-7.68-1.72.26h0l1.72-.26Zm-.82-3.42-1.76-.53h0ZM590.17,236.8h0l.28,4.87h0ZM-111.16-68.41l-2.5,3.14h0l2.5-3.14Zm0-.19.08-.76h0ZM-81.5-37.18h0l1.62-2h0Zm3.44,10.67h0l.55-1.45Zm7.11,42,1.79-1.83h0l-1.79,1.83Zm2.32,7.59h0l.43-.81h0ZM-70,20.3h0l1.73-2.78h0ZM308.34,673.58l1,.73.52-1.92-.84-3.73,1.62-2-1.3-.71-.39-1.24.49-2.55-.74-1.85.51-2.08,2.1,1,.86-1.47h0l1.06-.69.61,2.49-1.95,4.52.23,1.25-.95,2.73-.34,2.38-1.53,6.39-1.94-.83-.41-1.71ZM242.63-71.22l.08,4.09-.1,3.79L241.81,14h0l.79-77.39.1-3.79-.08-4.09L234.34-73ZM209-78.44l4.31.94L209-78.44l-5.43-1.36Zm-41.19-23.49.5.44,8.1,12.3,1,1.36,2,1.46,1.94.83,10.87,2.82-10.87-2.82-1.94-.83-2-1.46-1-1.36-8.1-12.3-.5-.44ZM86.62,182.29h0l-.65-.38Zm.27,18.57L89,202h0l-2.11-1.14Zm-1.25-19.15h0l-1.23.54h0Zm-7.05-10.47h0l-1-.26h0ZM37.78-11.52,47-9.37l9.1,2.16,6.7,1.44-6.7-1.44L47-9.37l-9.26-2.15-9.11-2.32h0Zm33,167.61h0l-.78,0-1.49,1.5-.81-.43h0l.81.43,1.49-1.5Zm-6.73-7.49-2.54-.33h0Zm-3.48-5.79-1.45-.55h0Zm-2.31-1.92-1.18,1.48-1.72.26h0l1.72-.26,1.18-1.48ZM53.83,132l-1.09.22h0l1.09-.22Zm-4.34-7L49,126.62h0l.54-1.61,1.64,1.17h0Zm2,148.75-.54.66-1.47,3.23,1.47-3.23Zm-3.71,5.88-.51,2.08h0l.51-2.08ZM43.1,297.71h0l-.22-1.09L44,295l-.89-1.84-2.57-1,.44-3.33h0l-.44,3.33,2.57,1L44,295l-1.17,1.64Zm-.59-10.36h0l1.88-2.94h0ZM27.18-23.52l-1.78-.84,1.78.84Zm-12.12-11,3.41,1.85,1.85-.74,2.7.48,1-1.79,2.26,1h0l-2.26-1-1,1.79-2.7-.48-1.85.74-3.41-1.85Zm-3.66-.58,1.53-.72,1.27.09h0l-1.27-.09-1.53.72-3-.14h0Zm-4-1.19h0l-1.68.88-2-1.31h0l2,1.31Zm-3.8-5.93h0l1.27.24h0ZM1.91-52.32,4-52l1.19,1.51h0L4-52l-2.07-.35L-1-56.88Zm-4.09-8.27.94-.05h0l-.94.05ZM18.9,257.19l3.18.61-3.18-.61-3.16-.14Zm-3.77.26-.46.3L11,257.63l-2.5.29,2.5-.29,3.63.11ZM-6.66-67.21l-1-1.27-1.26.07h0l1.26-.07Zm-1.51-9.9,1,1-1-1Zm-3.23-31.79h0l1.49,1.33Zm3.48,8.62,1,.26h0l-1-.26Zm3,33.07,1.28.4h0l-1.28-.4L-6-66.36h0Zm-2.45-21h0l-1.95-1h0Zm-6-66.29,1,.1h0l-1-.1L-15-153.12l-1.61-.54h0l1.61.54Zm-7.9,24.55,1.95,1h0ZM1.45,257.81l-3.27.72L-3.58,258h0l1.76.53Zm.62-.14,1.78.84,3.16.14.77-.39-.77.39-3.16-.14-1.78-.84Zm-19.53-384.5h0l-1.35-1.53Zm-1.32-9.38h0l1.33,1.18h0Zm4.58,16.75-1.88.26-.51-.71.51.71,1.88-.26.9-.84h0Zm-2.59-3.95h0l1.16,1h0Zm1.48-32.06-1.61-.54-3,.64-1.47-.86,1.47.86,3-.64,1.61.54Zm-5-8.22h0l1.79,1ZM-30-198.1l.67.72-.67-.72Zm-3.32,13.58h0l6.77,2.76,9.68,4h0l-9.68-4ZM68.42,230.58h0l.17.94Zm1.53,4.8h0l-.91.68h0Zm-.26-1.88h0l.2,1.41Zm.39,4.07h0l-1.05.85h0Zm3.09,4.55h0l.56,1.54h0Zm6.29,30.2-.56-1.54,2.42-1.71-.1-1.73L80.52,266l1-2.42-.08-1.41,2.1-4.53.52-1.92h0l-.52,1.92-2.1,4.53.08,1.41-1,2.42.71,1.38.1,1.73-2.42,1.71.56,1.54-1,2.26h0Zm-2.17-21.46.08-1.42h0l-.08,1.42ZM88.3,281,88,275.78h0L88.3,281Zm2.1,3.66h0l.77,2.48-.72,1.14h0l.72-1.14ZM93.92,291l1.43,3.07.2,3.45h0l-.2-3.45Zm-43.4,159h0l-.75-2.16Zm-.24,9.62h0l-.65-3.11Zm-7.15,34.9h0l1.4-.24,1.78-2,.91-3.36.27-3.48,2-1.69.71-1.3,2.14-1.07,2-1.22h0l-2,1.22-2.14,1.07-.71,1.3-2,1.69L47.22,489l-.91,3.36-1.78,2Zm179,92.67-1.53.72-1.92,2.16-.7,1.46-2.57-1-1.1.06-1.64-1.17-1-1.2-2.08-.51-1.64-1.17-.2-.78-2.23-.35-2.1-1-3.2-3.6-1.27-.24-3-2.51-.44-2.18-1.74-2.89-.26-1.72.46-3L193,567l-1.6-3.22-.44-2.18L189,559.24l-1.13-.57-2.17-2.08-2.09-.83-3-2.82-.39-1.4-2.79-2-1.38-2.13-2-2.09-2.58-1.11-1.72-2.58-.94-2.62-2.26-1-1.33-1.18-.82-3.26h0l.82,3.26,1.33,1.18,2.26,1,.94,2.62,1.72,2.58,2.58,1.11,2,2.09,1.38,2.13,2.79,2,.39,1.4,3,2.82,2.09.83,2.17,2.08,1.13.57,1.87,2.41.44,2.18L193,567l1,1.36-.46,3,.26,1.72,1.74,2.89.44,2.18,3,2.51,1.27.24,3.2,3.6,2.1,1,2.23.35.2.78,1.64,1.17,2.08.51,1,1.2,1.64,1.17,1.1-.06,2.57,1,.7-1.46,1.92-2.16,1.53-.72Zm-104-292L119,298h0ZM276.9,492h0l.09-1.26h0Zm20.28-155.68-2.37-.18,2.37.18ZM553.66,447.59l.76,2.32h0l-.76-2.32Zm.3,43.93,3.57,1.84h0L554,491.52Zm-.57,34.21,3.35.75h0l-3.35-.75Zm-2.82-41.27h0l-4-1.35h0Zm-1.43,46.87.94,2.62,1,.73h0l-1-.73-.94-2.62ZM543.06,480l1.61.54h0l-1.61-.54Zm-2.4-3.33,2.13,1.45h0l-2.13-1.45-2.57-.8h0Zm-8.79-49.28,2.21-2.65h0l-2.21,2.65Zm2.89,45.2,2.12,1.3h0l-2.12-1.3-3.55-1.53h0Zm-8.91-40.29,2.58-1.72,1.93.68.74-.83h0l-.74.83-1.93-.68-2.58,1.72Zm-5.9-208.85,1,3.41h0l-1-3.41Zm-55.71,25.85h0l-1.2,1h0Zm4.2,10.16,1.38-.71-2.3-1.6.09-1.11-3-.62.58-.82-.74-1.85,1.57-.09h0l2.51-.14,2.86.47.92-.37,4.91.51,3.45-.2,3.4-1.14.51.6,3.23-1.29,1.13.57,4.09-.08,5.93-1-.55,1.45,4.57.05,4.68-.74,3.06,1.24.9,2,2,1.46,2.11,1.14.25,1.56,1.5,1.49,2.13-1.38,1.48,1.18-.83,1.94,1.95,1-.38,1.6L524,266.4l1.27.09,1.91,3-1.73.1-1.35-1.5-1.81,1.36.22,1.09,1.78.84.33,3-.87,1.31-1.92-.52-2.84-.15-2.09-.67-1-1.52-1.55.4-1.92,2.16.18-2.37-.84-.9-1.25.23-.12-2-1.71.41-2-1.46-1.07-2.14-.26-1.88-3.89.85.39,1.24,2.31,1.92.53,1.07,1.1-.06.25,1.56,1.33,1.18.8,2.95-.79,2.72-.09,1.11-1.05.85-1,1.95-.13,3.32-.7,1.46.93,2.47.9,4.67,1,2.94V300l-1.43,2.6-1.51,1.19-1.43,2.6-3.19,2.07-.1,3.79.34,3.13-.7,1.46-.76.52.83.74,2.35-.29.32,2.82-2.3,1.08-2,.43-2.37-.18-1.52,1,.28-.65,1.8-1.52-.33-3,.39-1.44,1.18-1.48,1.13.41.27,2,.76-.52.7-1.46-.34-3.13.1-3.79h0l-1-1.36L497.28,304l-1-2.94-.71-1.38-1.86-4.94-1-1.83-2-1.62-1.6-.38-2,1.37L485,293.5l-1.12,2.43-.77,3-.8-.27-1.44,2.44-3.19-.76-.52-.76-.32-2.82.81-2.41,1.71-.41,1-1.32.1-3.79,2.12-1.54.07-1.58-.69-3.9.08-1.42-1.3-3.39-2-1.46.08-1.42,1.68-.88-.53-1.07L478.7,271l.11-.79-1.8-1.16-2.21,0-2.4-.65-1.46-.7-1.88.26-2.18-2.24-1.27-.24-1.72.26-4.49-1.48-2,1.53-1.3,2.12,0,2.05,1.34,1.34-.09,1.11-1.55.4-2,1.37-.53,1.76.76,2.32-.14,3.16-1.48-1-.28,3.32-1-.42.4-4-.55-1.39-1.79,1.83-.82,2.25-1.13-.41-1.5,1.35,0,3.31-1.54.56-.43.81.74,1.85.21,3.77-1.18,4.16-1.17,1.64,1.22,2.14.65,3.11-.84,1.78-.08,1.42.71,1.38,4.36,7.47,1.09,2.46.89,4.52-.06,4.41-.71,4.14-1.11,2.58-1.05,3.68-1.13,2.27-1.49,1.5,7.65-1.22,19.81-3.49-19.81,3.49-7.65,1.22-2.27,1.7-3.37,1.61-1.9-.21-1.48-1.18,6.22,42.81-1,1.32.57,1.7-.73,1,1.41,2.6-1.41-2.6.73-1-.57-1.7,1-1.32-6.22-42.81-1-.89-1.42-2.75-.93-2.47-1-.57-1.25-2.61-.38-3.92h0l-.48-3v-3l-1-1-.24-1.4-.87-1.37.09-1.11-1-2.94.88-3.83-.13-2.2.81-2.41-.74-2-.11-1.88.6-3.34,1.59-2.45-1-1.67.25-4,1.08-3.21.19-2.22-1.8-1.16-2.42,1.71-1.09,3.05-1.5,1.35-1.69.73.45-3.18,1.24-3.06.09-1.11,2.13-1.38.21-1.9-1.8-1.16-.06-1.1.5-2.23h0l-.5,2.23.06,1.1,1.8,1.16.38-1.6,2.1-4.69.5-2.23,1-2.57.91-.68.19-2.22,1,.42.25,1.56,1.53-.72,1.1-2.74,1.64,1.17-.66,2.24,1.12.25,1-2.26,1.67-1,1.09-3.05,2.17-.6,5.29-1.09,1.12-2.43,2.49-.61,4.3.86,3,2.19,1.27.24-.26-1.88.52-1.92,2.69.16ZM492.2,389h0l-1.59-.22L488,385.17l-1.95-1h0l1.95,1,2.57,3.63Zm-8.73-3.91h0l-1.32-1h0ZM477,393.36h0l-1.14-.72h0Zm-9.72,14.73-2.22-.19-1.46-.7-.39-1.24h0l.39,1.24,1.46.7Zm-9.9,3.24h0l-1.35-1.5h0ZM452.82,414h0l-5.31-1.9h0Zm-29.05,18.19-1.22.7h0l1.22-.7,1.95,1h0Zm1,8.61h0l-1.63-1h0Zm0-9h0l1.57-2.92,2-.59,4.17,1.34,2.23.5.53-1.76-.53,1.76-2.23-.5-4.17-1.34-2,.59ZM415.86,268.3h0l1,.57.92,2.31h0l-.92-2.31Zm5.6,4.25-1.64-1.17h0l1.64,1.17.37,3.76-.67,2.09h0l.67-2.09ZM434,424h0l4.78-1.85.57-1h0l-.57,1Zm3.82-4.79,1.13-2.27h0l-1.13,2.27Zm1.23-3.22h0l-.57-4.54,1.3-2.12h0l-1.3,2.12.57,4.54,1.42.08Zm2.57,20.17,1,3.41h0l-1-3.41Zm-.67-22.8h0l1.46.7h0Zm.58-9.17-1,2.1-1.39.55-.37,1.75h0l.37-1.75,1.39-.55,1-2.1-.19-.62,1.5-1.35v-2.52l.91-.68.38-1.6-1-1.83.06-1.74h0l-.06,1.74,1,1.83-.38,1.6-.91.68v2.52l-1.5,1.35Zm2.58,9.3,1.13.57h0l-1.13-.57ZM387,232.29l1.35,1.5h0l-1.35-1.5Zm-9.68-1.18.91,2.15h0l-.91-2.15ZM366.12,233l1,1.52,1.47.86h0l-1.47-.86-1-1.52Zm-3.75-2.31,1.21,1.82h0l-1.21-1.82Zm0,31,.92-.37,1.16-1.8.12-.64,3.44-3.19,3.27-3.49,5.41-7.4,2.53-2.66,3-2.06,5.21-2.5,5.74-4.26h0l1.61-2.14,1.23-.54,1-4.15-.43-2,.74-.83,3.82-2.11-.11,3.63,1.72-.26.63-2.71,0-1.89.61-.35-.16-2.83,1.18-1.48,1,.1.73,1.69-.9,3.52,2.76-1.26.83-1.94-.41-1.71-1.29-.56-1.09-2.62,3.13-.34,1,.57,3.49.43,1.62.85.92-.37,2.27,1.13,3.1-.81,2.53.17,1.19-1.17,2.1,1,1.21-.86,2.86,3.15.95,2.78L435.7,224l3.31,2.8,1.44.39,4.08-.23,1.53-.87,4.35-1,1.15.88-.87,1.31.53,1.07-.85,1.62.11,1.88,1.66,1.48,2.74,1.1,2,1.93-1.23,3.22-.14,3,1.44.39,3-.33,1,.73-.25,1.12-1.86.58,1.85,2.1-1.15,2-.25,1.12,1.49,1.33.72-1.14h0l-.72,1.14h0l-.74.83-1.33-1.18-2.14,1.07-3-.77,0-3.62-.52-.76-2,.27-3.64,2.41-4.4.25-2.77,1.1-.64-.12-1.49,1.5-2.42,1.71-1.44,2.29-1.78-.84-1.52,1-1.34-1.34-1.25.23-1.83,1-1.58-.07-3.7-4-.69-1.06-2.27-1.13h-5.51l-1.62,2-1.25.23.17-2.53-1.56-2.43-1.27-.24-.87-1.37L404,248.5l-.69,1.77-2,.59-1,1.48-2,1.53-5,1.23-2.52,2.82-4.58,2.62.19.62h0l-.19-.62h0l-2.06-.2-2.27-1.13L380,261l.1-3.79,1-1.95-1.16-1-1.55.4-1.79,1.83-1.27-.24-2.26,1.86-4.45,2.14-2.18.44-2-1.15-1.16,1.8-.92.37Zm56.73,185.8,1.35,1.66h0l-1.35-1.66Zm-2.8-27.09h0l1.44.39h0Zm3.5,25.48h0l.86,1.21h0Zm.6-3.34h0l.75,2.16h0Zm-28.61-106.9h0l2.78,1.73,1.08,2.3,3.42,2,.72,1.53h0l-.72-1.53-3.42-2-1.08-2.3Zm4.4,57.88-3.58-2h0l3.58,2ZM388.7,261.65h0l1.74,2.89h0Zm13.67,137.68,3.69,1.21,1,.73-1-.73-3.69-1.21-1.94,1.84h0ZM409,416.13l2.88.78,3.09,1.71h0l-3.09-1.71-2.88-.78-3.8-3.09Zm-17.23-26h0l-3.94-2.77h0Zm-8.16-65.85h0l.81-2.41h0Zm6.32,36.34-1.3-.71h0l1.3.71.86,1.21h0ZM356.29,229.16,358.4,233h0l-2.11-3.82Zm-1.66-1.48h0l-.53,1.76h0Zm1.87,52.19,1-1.32,1-2.57,4.11-2.44.72-1.14h0l-.72,1.14L358.48,276l-1,2.57-1,1.32Zm2.31,7.43-.24,4.11h0l.24-4.11.95-2.73h0Zm.55,6.9h0l-.46,3h0Zm-8.89-67.7,1.13.57h0l-1.13-.57Zm-11,.63,1.54,2.12h0l-1.54-2.12ZM334.06,226l1,1h0l-1-1Zm-9-11.3,2,1.15.28,2.19,1.52,4.64.12,2,1.65,1.32h0l-1.65-1.32-.12-2-1.52-4.64-.28-2.19-2-1.15ZM292.25-129.34l1.2-1,.53,1.07-1.11-.09-1,1.16L289.69-130l-.57-1.7ZM308,288.93l1.59.22h0l-1.59-.22Zm4.3,213.83h0l.24-1.27h0Zm-.67-161.26-1.18-1.35-.38-1.08-1.12-.25-.84-.9-3.66-.74L302,335.58h0l2.45,1.59,3.66.74.84.9,1.12.25.38,1.08,1.18,1.35,1.74.22Zm13.48,34.83,1,1.36,1.12,3.09,3.38,4.06-.09,1.27,1.46.7,1.83,1.63,1.77.69h0l-1.77-.69L332,386.8l-1.46-.7.09-1.27-3.38-4.06-1.12-3.09-1-1.36Zm3.75,65.79h0L345.82,441h0L343,402.25l-3.08-1.56-1.41-2.6-2.84-2.83.65-2.4,2-3.11-1.82-1.47h0l1.82,1.47-2,3.11-.65,2.4,2.84,2.83,1.41,2.6,3.08,1.56L345.82,441Zm78.49,83.74-.24,1.27-.91.68-1.3,2.12-1.23.54-.82,2.25-.14,3.16-1.33,1.49.72,1.53-.49,2.39-1.4.24.55,1.39-.25,1.12,1,1.52-1.19,1.17h0l1.19-1.17-1-1.52.25-1.12-.55-1.39,1.4-.24.49-2.39-.72-1.53,1.33-1.49.14-3.16.82-2.25,1.23-.54,1.3-2.12.91-.68.24-1.27,1.92-5-3.09-1.71-.26-1.88-1-1.2-.08-4.25.87-1.31L404,509l-.11-1.88.75-.67-.28-2.19-1.31-.87.72-1.14-.11-1.88-1.47-.86.68-1.93-.7-1.22,1.92-2.16,0-2.21-.85-1.05h0l.85,1.05,0,2.21-1.92,2.16.7,1.22-.68,1.93,1.47.86.11,1.88-.72,1.14,1.31.87.28,2.19-.75.67L404,509l1.66,1.48-.87,1.31.08,4.25,1,1.2.26,1.88,3.09,1.71Zm-2.49-38.14h0l1.16,1-.25,1.12h0l.25-1.12Zm4.35-9.38.54,1.23v2.68l-3.14,3-.55,1.45h0l.55-1.45,3.14-3v-2.68l-.54-1.23.52-1.92h0Zm1.91-2.47-.23-1.25h0l.23,1.25Zm-1.44-22.44.23-1.43,1.59-2.45,1.92-2.16-.08-1.41-1.7-2.27-13,1.53-12.05,1.32-16.14,1.55-16,1.38-8.16.62h0l8.16-.62,16-1.38,16.14-1.55,12.05-1.32,13-1.53,1.7,2.27.08,1.41-1.92,2.16L409.93,452l-.23,1.43,9.53-1.33.51-2.08h0l-.51,2.08,1,1.36h0l-1-1.36h0Zm9.86,1.64h0l-.71-1.38h0Zm-2.87,2.21h0l.55,1.39.11,1.88h0l-.11-1.88Zm-.71,4.14.06,1.1h0l-.06-1.1Zm-.29,6h0l-.56-1.54-.12-2h0l.12,2Zm-1.18,1.33-.55,1.45h0l.55-1.45Zm93.17,67.79-1-.57-.92-2.31-1.2-1.66-15,2.59-9.84,1.51-15.61,2.46h0l15.61-2.46,9.84-1.51,15-2.59-.56-1.54h0l.56,1.54,1.2,1.66.92,2.31,1,.57ZM496.78,500h0l1.26,2.76h0Zm3.33,11.47,1.9-2.63h0l-1.9,2.63.29,2.35-.75,3.51,1.08,2.3,1.42,2.75-.19,4.89.56,1.54h0l-.56-1.54.19-4.89-1.42-2.75-1.08-2.3.75-3.51Zm.31-5.69h0l.27,2h0Zm1.21-48-15.43,2.93-3.43.67,1.33,4,3,8.49,8.1,23.32.91,2.15h0l-.91-2.15-8.1-23.32-3-8.49-1.33-4h0l-16.7,2.68-11.73,1.46-10,1.36.17.31-16.1,2.18-15.49,1.83.55,1.39-1,1.32h0l1-1.32-.55-1.39h0l15.49-1.83,16.1-2.18-.17-.31,10-1.36,11.73-1.46,16.7-2.68,3.43-.67,15.43-2.93h0l17.75-3.69h0Zm-7.89-69.33h0l1.59.22,2.47,1.91h0l-2.47-1.91Zm7.92,64.45h0l2.49-.61.58-.82h0l-.58.82Zm19.15-17.79,1.81-1.36,1,1.36,1.22-.7h0l-1.22.7-1-1.36-1.81,1.36Zm-1.35,1.18,1,.26h0l-1-.26Zm1.46,25.59,1.81,1.31,2.51-.14h0l-2.51.14-1.81-1.31-3.38-1.23h0Zm-12.58-16.14,3.43-.67,3.11-3.48,2.27-1.7,1.4-.24h0l-1.4.24-2.27,1.7-3.11,3.48-3.43.67-2,1.37-1.62,2h0l1.62-2Zm-4.59-55.66-1.15-.88-2.39-.49h0l2.39.49,1.15.88Zm10.62,1.13-1.83-1.79-2.08-.51-1.41-2.6h0l1.41,2.6,2.08.51,1.83,1.79Zm9.93,13.93-1.15-.88-1.78-.84-6.55-7.19.52-1.92-1-3.1h0l1,3.1-.52,1.92,6.55,7.19,1.78.84,1.15.88Zm-6.37-15.07.46-3h0l-.46,3Zm1.4-3.07h0l-1-3.41,1.33-4.33.6-.51-.6.51-1.33,4.33Zm4.47-7.34h0l-.58-4.69.54-1.61h0l-.54,1.61ZM527.61,408l-.87-1.37-.24-1.4h0l.24,1.4.87,1.37Zm-2.32-35.31h0l.82-2.25h0Zm21.22-70-1.36,1-.95,2.73-2.39,2.34-1,1.79L537.54,314,536,315l-5.53,5.2-1.82,1.21,5.61,23.78,3.77,16.48h0l-3.77-16.48-2,1.53,1.53,2-.09,1.11.71,1.38-.55,1.45-.26,3.8.29,2.35-.63,2.71.17,3-2.07,2.32-.7,1.61-1,1.32h0l1-1.32.7-1.61,2.07-2.32-.17-3,.63-2.71-.29-2.35.26-3.8.55-1.45-.71-1.38.09-1.11-1.53-2,2-1.53-5.61-23.78-6.07,4-3.92,3.06-3.52,4.61-2.61,1.25-2.21,0L507.77,336l-3.21,1.76-1.78-.84-2.82.32-1.2,1-3-3-1.74-.06-1.47-.86-2.21,0,.38-1.6,1.38-3.39.61-.35.21-4.58.12-.64.44-.65h0l-.09,1.11.34,3.13,3,.93L498,328l1.35-1.18,1.24-.39,1.14.72,1.87-3.1,3.6-3.2,1.71-.41.74-.83.51-2.08,2.63-3.62,2.09-2,1.69-.73,3.89-.85,5.85.45,2-.59,3.46,0,0-.63-4.54.57-.19-.62,2.18-3.27,4.46-2,1.82-1.21,1.12.25,2.45-1.24,3.1-.81,1.59.22,1.51-1.19.25-1.12-1.77-.69-.73-1.69,2,0,.1,1.73,1.55,2.27Zm-4.13-8.9h0l-1.53.72-1.64,1.67-2.81.47-2.06-.2L532.84,295l1.38-3.39-.08-1.41,1.31-1.81,1.25-.23,2.76-4.1,5.81-3.17,1.41-.08,2.58-1.72,4.62-1.84,1.21-.86,2.46-1.09,1.8,1.16,1.69-.73,2,1.15,1.57-.09,2.24-2.18-1.31-.87-1.74-.22v-2.52l1.66,1.48,1.31-2,2-1.69,2.46-1.09,2.39-2.34,3.34-2.24,1.44-2.29.69-1.77,3.88-6.52,1.48-1.66,2.85-2.53,2-.27h0l-2,.27L584.36,251l-1.48,1.66L579,259.17l-.69,1.77.52.76L576.08,266l-1.35,1.18L573,269.44l1.31.87,2-.12.45,2.34-1.52,1,2.39,3.33-.32,2.7-2.17.6-2.49,3.29-.4,1.28-3.2,1.91-5,1.07-2,1.37-1.27-.09-1.94-.83-4.87.28-1.38.71-2,.27-3.84,1.64Zm14.87,86.89-1-1.52h0l1,1.52Zm9.6-22.28h0l.06-1.74h0Zm15.33,3.7-.28-2.19h0l.28,2.19Zm28,4.86h0l-7.31-20.53-.39-1.24h0l-7.75,2.17-15.67,4.2-12.57,3.39-14.14,3.48h0l14.14-3.48,12.57-3.39,15.67-4.2,7.75-2.17h0l.39,1.24Zm-1.9-116.46-.55-1.39-.31-2.66-.66-.59-.64-3-16.86,5.37h0l16.86-5.37.64,3,.66.59.31,2.66.55,1.39,1.5,1.49h0Zm1.62,3.53.76,2.32h0l-.76-2.32Zm3,11-2-4.46-.66-.59h0l.66.59,2,4.46Zm35.3-93.84,3.09-1.12h0l-3.09,1.12ZM628.05,276.85h0l.34-2.38-1.06-4.82.27-.8h0l-.27.8,1.06,4.82Zm2-31L628.46,248l-1.53.87-.4,1.28.61,2.49L627,257.7l.26,1.88-.86,1.47.25,1.56-.35,2.07h0l.35-2.07-.25-1.56.86-1.47L627,257.7l.18-5.05-.61-2.49.4-1.28,1.53-.87,1.61-2.14.61-3.18h0Zm5.24-18.57-1.57.09-1.52,1h0l-.41,1.13-2.05,0-.87,1.31-.06,4.41.59,2-.6,3.34h0l.6-3.34-.59-2,.06-4.41.87-1.31,2.05,0,.41-1.13,1.52-1,1.57-.09Zm.44-3.33-1,1.79h0l1-1.79Zm2.18-6-1.76,2.31-.69,1.77h0l.69-1.77,1.76-2.31Zm-1-6.24h0l.39-1.44Zm.7-7.13-.85,1.62-.3,3,.3-3,.85-1.62Zm10.26,58.49-2.79-1.89h0l2.79,1.89Zm-3.65-77.92-.75-2.16-2.21,0-.44.5-4.13,16h0l4.13-16,.44-.5,2.21,0,.75,2.16,3-2.53,2.08-2.17-2.08,2.17Zm7.86-3.12-1.85.74-.87,1.31-1.22.7-1.49,1.5h0l1.49-1.5,1.22-.7.87-1.31,1.85-.74.54-1.61h0Zm8.5-14-3.65-.42-.38-1.08-5.86,2.22h0l5.86-2.22.38,1.08,3.65.42Zm4.11-2.6-1.42-.08L662,166.71l-1.4.39h0l1.4-.39,1.34-1.34,1.42.08Zm7.3,42.43-2.88-.78-.06-1.1,3.39,1.38,2-.43Zm6.5,6.25h0l1-1.16h0Z"/>
    <polygon class="cls-3" points="759.75 160.82 759.99 159.55 758.99 158.51 756.15 158.51 755.25 159.19 752.55 158.87 751.72 160.81 751.1 163.84 751.8 165.06 750.5 167.18 751.65 167.9 754.46 164.75 752.52 169.43 752.92 170.82 750.12 171.46 749.41 172.91 748.1 171.88 749.28 170.56 748.71 168.86 750.22 167.67 750.35 164.51 751.08 163.37 751.97 159.69 750.35 158.84 750.22 153.81 748.72 149.64 746.21 149.78 745.33 148.26 745.33 148.26 743.91 148.18 743.51 152.3 742.8 153.6 742.88 160.53 742.5 162.12 742.35 165.12 741.08 167.72 741.05 169.92 742.76 172.19 744.64 174.92 747.11 176.67 748.3 175.5 749.57 175.74 750.59 174.26 753.67 172.99 754.16 173.27 757.45 170.25 758.76 168.28 758.85 167.18 759.88 165.86 758.73 164.98 760.4 163.94 761.25 162.31 761.03 161.07 759.75 160.82"/>
    <polygon class="cls-3" points="747.5 180.9 747.58 179.47 748.77 178.31 748.71 177.21 747.44 176.96 744.68 175.54 743.46 176.25 743.38 177.51 741.03 177.8 739.43 177.42 737.69 174.53 735.13 179.4 734.09 180.4 733.39 182.02 731.94 181.47 729.24 180.99 725.23 182.48 724.04 183.81 720.41 183.7 720.2 182.77 718.36 183.5 717.61 184.33 715.73 184.44 713.93 183.28 712.23 183.85 711.03 184.86 710.55 187.57 710.55 187.57 709.68 188.88 709.62 190.62 708.09 194.17 706.49 196.46 706.17 199.16 708.97 198.53 709.06 197.26 710.1 196.26 712.61 196.12 713.35 195.13 716.1 193.71 717.81 193.3 721.81 191.65 723.89 192.17 720.97 193.44 719.94 194.75 716.93 197.29 716.44 199.68 714.19 198.86 713.43 196.7 712.16 199.13 710.05 200.83 708.57 202.49 705.8 206.43 705.54 207.39 700.75 214.59 699.48 217.18 700.9 217.26 699.49 220.18 699.14 222.24 699.57 224.27 699.55 226.79 701.05 228.12 701.63 230.13 703.18 232.41 705.19 231.67 705.25 230.09 708.04 231.98 708.61 233.68 710.54 234.35 712.81 232.81 713.82 231.17 713.24 229.16 714.34 229.25 715.82 227.44 716.76 227.38 717.7 224.5 718.45 223.98 717.73 222.29 719.22 220.79 718.99 219.54 719.89 218.86 720.69 213.46 719.62 211.31 720.61 209.37 721.67 208.52 721.88 206.77 723.45 206.53 724.33 208.21 725.86 207.49 727.31 208.04 729.13 206.83 729.25 206.04 727.39 203.94 729.62 204.28 729.4 203.19 731.1 202.62 731.36 201.66 733.81 200.42 734.68 199.11 735.78 199.05 735.7 197.64 737.37 196.6 738.23 194.97 739.46 194.59 739.71 193.31 743.3 190.12 743.26 189.33 744.79 188.61 745.18 187.02 747.18 186.27 747.58 184.99 749.55 183.62 749.78 182.19 752.86 180.91 753.37 178.83 751.03 179.12 747.5 180.9"/>
    <polygon class="cls-3" points="751.7 174.36 749.89 175.72 750.71 176.3 752.1 175.75 751.7 174.36"/>
    <polygon class="cls-3" points="740.57 14.79 739.02 15.2 738.63 16.64 740.97 16.34 740.57 14.79"/>
    <polygon class="cls-3" points="792.63 68.69 793.17 67.25 791.87 66.53 791.87 66.53 790.94 66.74 790.12 68.99 790.98 70.2 792.63 68.69"/>
    <polygon class="cls-3" points="706.93 5.05 707.21 4.25 706.33 2.72 706.33 2.72 704.06 4.42 705.55 5.6 706.93 5.05"/>
    <polygon class="cls-3" points="831.34 106.81 830.15 102.47 829.3 101.42 828.14 97.55 828.57 96.89 828.04 93.14 826.93 92.89 826.37 91.35 825.58 91.39 824.87 90.01 823.62 90.08 824.59 93.34 824.5 94.45 823.58 97.65 820.64 95.92 820.68 93.88 819.84 92.98 820.01 90.45 819.48 89.38 819.71 85.11 818.45 85.18 818.4 86.92 817.18 87.77 816.33 89.4 816.48 92.07 816.34 95.07 817.17 95.81 817.2 99.11 813.04 97.93 813.21 95.4 812.68 91.65 811.38 90.94 808.93 92.18 807.76 90.99 809.56 89.47 810.97 89.23 811.34 87.48 812.65 85.67 812.26 84.27 814.1 83.38 814.77 81.3 813.96 78.19 812.97 77.46 811.94 78.62 811.77 81.15 809.98 80.15 809.21 80.51 809.55 83.8 806.09 83.84 804.55 84.4 805.81 81.65 804.83 81.07 804.01 83.33 802.52 81.99 803.11 81.33 801.09 78.92 802.13 77.92 801.91 76.83 803.22 74.86 802.97 73.3 802.99 70.78 799.49 70.19 794.62 70.47 792.86 72.78 790.75 74.47 790.36 73.08 788.92 72.69 788.71 77.27 785.68 79.48 784.03 81 783.12 78.84 783.34 77.1 782.34 76.05 778.45 79.74 778.55 81.47 773.4 79.55 773.63 78.12 772.97 77.53 773.17 75.63 773.91 74.8 774.58 72.71 774.04 71.48 772.87 72.97 767.79 72.31 766.34 71.77 765.56 74.64 765.74 77.78 765.12 77.98 764.44 82.74 762.05 82.25 762.63 81.27 762.15 78.46 761.29 77.25 762.01 73.27 761.5 69.83 761.98 67.13 761.88 65.4 762.25 63.65 762.01 62.09 762.38 57.66 762.36 54.51 761.62 52.5 759.88 52.44 758.22 53.64 757.6 51.15 759.28 50.11 761.63 49.98 761.38 48.26 762.14 47.9 761.3 44.17 760.05 44.4 758.28 46.39 759.26 46.97 757.12 48.19 757.06 47.09 756.06 46.2 756.06 46.2 754.64 48.96 751.73 53.06 750.15 55.83 750.09 57.57 750.98 59.25 750.39 60.07 750.96 61.77 750.39 62.75 751.27 64.43 750.51 67.63 749.02 69.13 750.01 70.02 749.75 73.66 750.88 79.73 751.27 89.32 752.48 91.14 751.75 92.13 750.81 95.02 751.04 96.42 751.93 98.1 754.01 98.77 754.43 100.48 751.4 102.7 751.16 103.98 751.77 106.46 751.63 109.46 752.54 111.62 751.67 112.93 749.63 113.04 748.78 111.99 747.23 115.23 747.48 116.79 748.97 115.28 751.56 113.72 752.75 112.55 755.1 112.26 755.47 113.34 754.49 115.44 754.56 116.7 753.09 121.35 751.22 124.45 750.62 127.64 752.89 128.92 753.82 131.39 756.49 131.24 758.29 129.56 759.97 128.68 761.75 126.84 764.63 124.79 765.57 124.74 766.59 123.26 769.71 122.61 770.93 121.91 772.67 122.13 773.09 121.16 775.7 119.91 778.52 119.75 779.88 118.72 781.77 118.77 782.54 118.41 782.89 116.19 786.28 114.89 787.78 113.55 788.16 111.95 789.46 109.83 790.76 110.54 792.09 111.89 790.64 114.02 794.24 113.65 795.25 112.02 796.08 112.76 797.89 111.4 797.47 109.53 796.19 109.13 796.57 107.53 800.8 107.14 802.46 105.78 803.43 106.36 802.89 107.81 800.8 109.97 800.4 111.25 801.18 113.89 800.22 116.31 800.26 117.09 798.48 118.92 796.68 120.44 796.34 122.83 797.18 123.72 798.59 123.64 800.88 122.41 801.31 121.6 803.48 121 804.8 119.19 804.52 117.16 805.25 116.02 804.68 114.32 804.53 111.81 804.87 109.42 806.26 109.03 807.59 107.38 808.69 107.32 808.24 104.98 808.61 97.56 810.32 97.3 814.32 101.01 815.41 103.63 816.14 110.99 817.42 114.07 819.12 113.5 820.16 109.66 820.99 104.88 822.11 105.14 821.81 108.14 823.13 109.17 823.36 110.42 824.36 111.47 825.1 113.31 826.21 113.56 826.92 112.11 827.14 110.52 828.54 110.13 829.85 111 831.19 109.66 830.95 108.25 831.34 106.81"/>
    <polygon class="cls-3" points="729.81 168.83 731.33 167.96 732.76 165.35 731.19 165.44 726.28 167.77 721.73 170.87 718.81 172.13 716.73 171.62 712.66 172.01 711.9 172.53 712.49 174.54 711.4 174.76 710.25 174.04 710 172.32 705.81 170.67 706.23 169.7 706.23 169.7 706.3 168.28 704.47 166.49 703.37 169.39 703.46 170.8 702.76 172.42 702.69 174 703.52 174.74 705.2 173.85 707.31 174.84 708.07 177.16 710.21 175.93 712.11 176.14 712.78 176.89 715.36 177.84 720.51 177.08 721.51 175.29 723.09 175.36 724.56 176.22 724.78 177.31 727.17 177.8 729.92 176.38 729.36 174.84 730.11 174.17 727.85 173.19 727.47 172.11 729.18 171.7 729.81 168.83"/>
    <polygon class="cls-3" points="660.65 293.27 659.68 295.53 663.22 294.23 661.57 292.75 660.65 293.27"/>
    <polygon class="cls-3" points="214.99 223.5 214.99 223.5 214.99 223.5 214.99 223.5"/>
    <polygon class="cls-3" points="398.65 572.04 397.33 573.69 400.39 574.93 401.01 574.74 401.01 574.74 402.01 572.95 398.65 572.04"/>
    <polygon class="cls-3" points="652.53 291.84 653.5 294.94 654.4 294.26 653.32 291.8 652.53 291.84"/>
    <polygon class="cls-3" points="651.72 291.42 651.72 291.42 651.72 291.42 651.72 291.42"/>
    <polygon class="cls-3" points="581 562.76 581.79 565.55 582.52 564.4 582.69 561.88 582.69 561.88 581 562.76"/>
    <polygon class="cls-3" points="560.37 512.9 561.01 513.17 561.01 513.17 561.81 510.61 560.87 510.66 560.37 512.9"/>
    <polygon class="cls-3" points="615.31 401.71 615.31 401.71 616.14 402.45 616.71 401.31 616.25 401.5 615.93 401.51 615.31 401.71"/>
    <polygon class="cls-3" points="430.11 280.72 428.5 285.69 429.21 287.07 430.33 287.32 430.89 286.19 431.25 284.12 432.3 280.44 432.18 278.24 431.18 280.19 430.11 280.72"/>
    <polygon class="cls-3" points="644.45 307.58 643.62 306.84 642.44 308.17 641.21 308.71 640.21 307.82 641.99 305.83 640.59 306.07 638.12 309.83 635.83 311.07 631.49 312.26 630.32 313.9 626.73 314.42 626.45 315.07 624.02 316.78 623.77 317.9 621.93 318.79 621.17 321.98 622.17 323.03 623.79 321.05 625.72 321.57 627.36 320.06 629.81 318.81 631.3 317.31 634.99 315.68 637.55 313.65 639.1 313.24 641.35 311.23 646.74 306.19 646.08 305.76 644.45 307.58"/>
    <polygon class="cls-3" points="641.99 305.83 641.99 305.83 641.99 305.83 641.99 305.83"/>
    <polygon class="cls-3" points="619.24 323.98 620.64 323.75 620.71 322.17 619.3 322.4 619.24 323.98"/>
    <polygon class="cls-3" points="672.06 230.87 671.16 231.56 670.99 234.09 671.49 234.69 673.9 232.82 673.9 232.82 673.7 231.88 672.06 230.87"/>
    <polygon class="cls-3" points="401.16 234.32 401.27 233.37 404.32 231.62 405.35 230.46 406.02 228.38 404.64 229.09 402.39 230.95 399.05 233.18 398.01 234.34 399.19 235.7 401.16 234.32"/>
    <polygon class="cls-3" points="410.08 249.88 411.91 246 415.58 241.38 417.59 240.63 417.59 240.63 416.28 239.76 413.47 240.24 411.63 241.13 409.05 242.85 407.16 245.64 407.25 247.21 408.68 247.44 410.08 249.88"/>
    <polygon class="cls-3" points="449.31 269.39 450.42 269.48 451.01 268.82 449.64 266.85 449.31 269.39"/>
    <polygon class="cls-3" points="474.24 258.99 475.1 257.52 473.77 256.34 472.02 255.97 472.25 257.21 470.77 258.87 474.24 258.99"/>
    <polygon class="cls-3" points="406.02 228.38 406.02 228.38 406.02 228.38 406.02 228.38"/>
    <polygon class="cls-3" points="38.45 525.91 39.22 525.55 38.18 524.03 37.28 524.72 38.45 525.91"/>
    <polygon class="cls-3" points="53.39 569.8 51.88 568.15 51.09 568.19 50.11 570.3 53.39 575.31 55.09 577.58 56.76 579.21 57.16 577.93 56.13 576.41 56.43 573.4 53.4 572.63 53.95 571.34 53.39 569.8"/>
    <polygon class="cls-3" points="70.79 576.52 68.11 576.52 66.82 578.8 66.77 580.69 64.98 582.37 68.09 584.55 69.85 584.93 71.64 580.41 70.72 578.1 70.79 576.52 70.79 576.52"/>
    <polygon class="cls-3" points="21.8 587.66 21.21 585.49 20.34 586.8 20.41 588.06 18.61 589.73 19.99 591.86 21.03 590.7 21.03 590.7 21.8 587.66"/>
  </g>
</svg>