<svg id="prefix__northAmerica" data-name="Layer 1" xmlns="http://www.w3.org/2000/svg" viewBox="0 0 800 600"><defs><clipPath id="prefix__clip-path"><path fill="none" d="M0 0h800v600H0z"/></clipPath><style>.prefix__svg-item{fill:#ddd}</style></defs><g clip-path="polygon(97.94% 79.14%,98.18% 28.15%,30.86% 27.99%,30.87% 78.98%)"><path class="prefix__svg-item" d="M466.94 122.52l-1.38 3.39 1.45.54 5.72.94 2.2-.13 3.21 1.08 2.83-.16 1.23-.54-2.09-3.51-2.81-2.36-2.13-1.45-3.46.19-4.77 2.01zM478.79 59.47l-1.43 2.44-1.89 5.62 1.92.52 1.73-5.61 1.25-.07-.91 3.36.05.78 1.88-.1.67-2.09.67-4.76.91-.69.01-2.52-1.75-3.2-1.09.22-.56-1.55.75-.67-1.25.23.67 3.42-.04 4.89-1.59-.22zM475.08 57.94l-.09 1.11-1.08.38-.68 1.93 1.44.39 2.21-2.65.56-1.29-2.36.13zM486.86 60.11l1.33-1.65-.65-2.96-.22-1.24-1.1.06-.39 1.59.43 2.03-.53 1.6 1.13.57zM487.06 116.17l1.08-.37-.72-1.54-1.36 1.03 1 .88zM500.45 138.25l.5-2.23-1.27-.24-2.98 3 .67.75 2.33-.6.75-.68zM487.42 114.26zM477.98 258.3l-.67-.74-1.42-.08-.56 1.29 1.47.86 1.18-1.33zM480.53 258.79l1.77.69 3.45-.36 3.37 1.07 1.41-.08 2.42 1.12 2.06.2 2.83-.16 1.65-4.19-2.29-1.45-2.07-.51-.87-1.37-1.51 1.19-.37 1.76-2.1-.99-.54-1.07-2.13 1.23-1.03 1.32-1.98 1.21-1.2-1.66-1.57.08-3.39 1.3.2.78 1.89-.11zM443 230.52l-1.92-.67-1.57.24-.69 1.62 2.5-.3 1.68-.89zM469.51 253.43h-2.68l.1 1.72 2.33 2.08.37-1.76.87-1.31-.99-.73zM500.65 155.73l2.12 1.29-2.25-9.16-1.62 1.98.54 1.23-.18 2.37 1.39 2.29zM412.91 216.49l.42-.82-.22-1.24-2.35.29-1.35 1.18 1.47.86 2.03-.27zM599.64 231.53l-1.24.39-1.72 2.93 1.72-.26 1.24-3.06zM696.2 123.64l2.71.48 5.16-.61 2.01-.74 3.46-.04 3.97-2.12.78-.2 1.14-2.11-4.07-2.29-4.05.7-.99-.73-1.56.25-2.59-1.12-4.56.11-1.12-.41-5.17.61-6.84 1.49-2.37-.02-3.34 2.23-.26.96 1.31.72 6.61-.06 2.22.34 2.11.98 1.52 1.81 3.92-.23zM623.58 201.03l1.45-2.13-.71-1.38-1.56 2.92.82.59z"/><path class="prefix__svg-item" d="M600.91 234.45l-.2-3.45-1.47 1.81-.24 1.28-1.03 1.32.05.94 2.36-.13.53-1.77zM691.27 156.06l1.6.38.19-2.22-1.69.73-.1 1.11zM687.4 218.03l-.04 2.05.81.42 1.37-.86-1.53-1.96-.61.35z"/><path class="prefix__svg-item" d="M322.86 214.68l-.43-7.54-3.72-57L333.33 133l1.32-1.65 18.89-27.85 12.66-18.41 12.5-18.35-1.08.38-3.85-1.2-4.58-.21-1.44-.39-1.32-1-5.66-2.51-2.85-.31-1.88.11-7.35 3.73-2 1.22-2.62 1.09-.67-.75-4 1.65 1.13-2.27.66-2.24.16-2.69-.57-1.7-3.91-7.81-.86-4-1.92-3.36-2.18-5.07-.33-3-.72-1.53-5.37-.17-1.53.87h-2.68l-2.45 1.24-1.06-2-2.26-1.82-.07-1.26-1.15-.74-.16-5.5.56-1.29-1.42-5.59.17-2.53-.56-4.38.83-2.09-.18-3.14.64-2.56-.72-1.53 1.48-1.65.2-2.06.72-1.14.3-3 .89-1 1.47-4.65.35-2.23-.36-.77 1.83-1-1.57-2.59 1.14-2.11 4.8-4.21-2-1.93-.1-1.73 1.46.7 1.15-2 2.22-2.49-1.75-.37.42-1 2.59-1.57 1.73-.1-.07-1.26-1.18-1.35-.27-1.88 1.86-.58 2.27-1.7 2.54.33.66-2.24-3-.3-2.5-2.38 1-1 1.61.54.55-1.45 1.13.41 5.09.81.77-.36L342-49l1.5-1.35h1.89l1.29-2.65-.53-1.07-.34-3.13-1-1.67-1.81-.74-.54-1.23-2.85-.31-2.61-1.43-.39-1.24L335-65l-1.68.88-4.21 3.55-.52-.76 2.13-1.38 1.15-2-1.29-.56-1.26.07-1.32-1.27-.74.83-1.31-.87-1.27-.09-2.91-1.25-1.83-1.15-.42 1 1 1-1.53.72-1.13-.57-1.23-2.29 1.57-.09.9-.84 2.89.94 1 .73 2.55.48.52.76 2.23.35 1.32 1 3 .3 2.66-.31 3.5.59 1.34 1.34.78-.2 1.63 1 2.2-.13 4.91-2.33L351-69l-1.17-1.19-.4-1.55 2.66-.31-1.37-2 .89-1 2.6 1.43 1.54-.56 1 1 .87-1.31 4 .88 4.17-4.18 1.36-1v-1.89L368-82v-2.21l.6-1.79 1.4-1 1.75-5.3 1.17-4.32 1-1.48.06-1.74-1.36-1.81-2.85-.31-3.27.66-1.74-.22-1.4.39-4.41-.06-3.77.21-1.54-2.12-2-1.15-1.07-2.14-1.13-.57-1.35-1.5-2-1.15-5.09-1.24-3.16-.14-1.6-.38-.21 1.9-3.41-1.85 1.53-.72 1.13.41 6.78.09.84.9 2.15-.91 1.95 1 1-2.57 3.26 1.86 3.46 2.64 1.08-.38 2.42 1 .54 1.23 2.14 1.61 1.2 1.66 2.74 1.1 4.69-.58 2.26-1.86-.39-1.4 1-1.63 1.06-.69.84-1.78 1.05-.85.55-1.45-.39-1.4.35-2.23 1.68-.88-.05-.94 1.65-1.51-.23-1.25.7-1.46-1-.57-3.54-1.37-2.37-.18-1.85-2.1 1.39-.55-.24-1.4 4.06-.55 3.1-.81 1.66-1.35 1.09-.22 1 1.67 1.17 4 1.08-.38 1.29.56 3.32.28 1.31.87.75-.67-2.68-2.84 1.36-1 .72 1.53 1.53-.72 2.48 2.06 2.35-.29-3.45-5.32-2.48-2.06.2-2.06-1.4.39-.56-1.54-2-1.15-.92-2.31-2.19.28-.22 1.59-1.52 1-.87-1.53 1.5-1.35 2.95-.8 2.19-.28v1.89l1.61.7-.42 1 .71 1.38 1.12.25.51-2.08 1.1-.06-.5 2.23.23 1.25 1.67 1.64 1.42.08 1.36 1.81.23 1.25 1.74.06 2.16-3.59-.06-1.1 1.22-.7 1.88-.26 1.36-3.86 1.51-1.19.55-1.45.29-3.17 2-.43 1.38-.71.5-2.23-.39-4.07.09-3.94-2.5-3.22-1.78-.84-4.46-3.68-1.06-2V-169l-1.75-.37-.1-1.73-1-.73-.26-1.88-1.48-1-.87-1.53 2.69.16 1.35-1.18.71 1.38 1.19-1.17.24-1.27 1.11.09 2.33-3.28-.48-3-1.35-1.66-1.72.26-1.13-.57-.27-2 .92-.37 1-2.42-.11-1.88-1.27-.09-2.26-1-1.88.26-1.66 1.35-1.09-2.62-.08-1.41-7.46-1 5.35-.15-1.19-1.51-.13-2.36-2.51.14-.77.36-1.9-.21-.74.83-3-.14-2.4-.65-1.17-1.19-1.45-.55-2.64.62-3.36 1.92-2.46 1.09.73 1.69-.58.82.88 1.68v2.52l2.35 5.38 1.18 1.35 3.64.27.73 1.69-1.88.11.57 1.7-1.28 2.44h2.68l-1 1.32-1.82 1.21-3.44.51-.2 2.06.92 5.15-.52 4.76.32 2.82-1.52 2.32-1.53 3.55-.63 2.71.55 1.39.61 5.16-1.4.24-1-.73-1.16 1.34.29 2.35-1.54.56-1.19 1.63-1.37-2-.42-1.87-1.65-1.32-3.19-3.44-1.64-1.17-1.06-2-1.65-4-.23-1.25.51-2.08-1.43-3.07 1-1.63.72 1.53 2.11 1.14.93-3-.79-2.79-1.43-2.91.09-1.27-1.27-2.92-2.18-2.4-4.1-2.76-1.17-1.19-.89-1.84-2.09-.83-1.05.85-1.19 3.68-.72 1.14-.31 2.85.74 2-1.47 4.65 1 1.52-.09 1.27-.88 1.15.07 1.26-1 1.48.38 1.08-1.07.53-1.09-2.62L334-165l.57-1.13v-2.21l-.67-.75.36-1.91-.21-3.77-1.51-2.23-.58-1.86-1-.42-2.18-2.24 1.68-.88-.3-2.5 2.25-2 .26-1-1.78-.84-.72 1.14-1.15-.88-1.53.72-1.42-2.75-1.44-.39-1 1.95-1.48 1.66-2.4-.65-3.15-2.81-3 .17 2.2-2.8 2-1.37.26-1 1.9-2.63-1.49-1.33-2.67.15.06-1.74 1.2-1 2.31 1.76 3.26-.82-.22-1.09-1-.57-.63-2.8-1-.26-.88 1.15-1.29-3.23-.87-1.37-.59-2-2.74-1.1-.74-1.85-1-.73-.9-2-.16-5.66-.72-1.53-.64-3-1.3-.71-.57-1.7-3.27-2.18-1.35-1.66.56-1.29-2.32-1.54-3.43.67-1-1 1.21-.86.35-2.23-1-1.2-4.8 1.53-.18 5.21-1.41.08-2.44 2.28-.53 1.76 1 .89 2.55.49-.55 1.45.71 1.38-.39 1.44-.93.21-2.52-2.69-1.69.73-1.42 2.76v2.21l-.73 1 1.18 1.35-.58.82-.68 4.61 1.75 3.05 1.65 1.32-.37 1.75-2.06 5.32.1 1.73.81 3.1 1.89 2.73 1.12.25.12 2 1 1.67 2.51-.14 2 2.09 4.23 2.28 2.27-1.7.39 1.4 1.88 2.57 3 .14.25-1.12 2.45-1.24.69 1.06-.65 2.4 1.12.25-1.71 3.09-1.44-.39.39-1.44-1.79-1-1.53.72-.4 4 1.6.38-.66 2.24-.93.21-1.24 3.06-.46 3 1.76.53.91-.68 1.4-.24.27-3.48 1-2.26 2.1 1 .6 2.17-.24 1.27-.54 4.28 1.62.85-3 2.22-1.92 2.31.13 2.36-.92.52L301-153l-3.18-.61-1.73.1.38 1.08-1.11 2.58.43 2-1 1-.09 1.11 2 1.46 1.25 2.61-.58.82 1.52 4.48-.5 2.23.5 3.28.66.59-.54 1.61-1.29-.56-2.48.77-.68-.91h-.31l1.68-.88.52.76 2.16-.75-.67-3.43-1.2-1.66-2.32.76 1.75-2.46.24-1.27-1.59-.22-2.65 3.3-1.37-2 .83-1.94-1.76-.53-1.23-2.29 2.18-3.27-.41-1.71.79-5.56.37-1.75-.51-.6.49-2.39-3 1.91-1 1.32-.22 1.59-1.54.56-.38-1.08 2.33-3.28-1.66-1.48-1.83 1-.76-2.32-2.18-2.4-1.3-.71h-1.89l-1.61-.7-1 1 1.69 2-2.31.92-.71 1.3-2-1.46-.9.84.47 2.65 1.48 1-1 2.1.56 1.54 1.34 1.34.39 1.24 2.4-2 1.84-.89 2.67 2.68.76-.52.94 2.62-.57 1 1.16 1-2.16.75-.58.82-1.4.24-.68-.91-2.27-1.13-1.33-1.18-1.29-3.23-2.36-2.7-1.75-.37.13 2.2 3 3.14-4.44 2.3-2.69-.16-1.35-1.5-1.74-.06-1.14-.72-2.5.3-.66-.59-4.57-.05-1.92 2.16-2.39-.49-1.53.87-.72 1.14-2.41-.81-.87-1.53-1.56.25-.89 1-1.8-1.16-2.41-.81-1.56-2.43-1.11-.09-2.16-1.92.2-2.06-1.44-.39-.24 1.27-1.11-.09-1.52 1-1-.57-1.23.54-1.31-.87-1.39.55-1.4-2.44.68-1.93-1.6-.38-1.67-1.64-.72 1.14-1.69-2-.39-1.4-1.3-.71 1.16-1.8-.94-2.62.7-1.46-2.08-3.35-3.41-1.85-.74.83-7.08 2.92-1.2 1-1-.1-3.1.81-3.76.37-1.18 1.33-1.7 3.4-1.51 1.19-.56 1.29 1.76.53 1.57-.09-.53 1.76.83.74 2.83-.16.51.6 1.66-1.2-1.19-1.51.4-1.28 2.5-.3.19.62 3 .77 1-1.48 2.2-.13.88 1.68 1-1.63-.52-.76.5-2.23 3.55-1.3 1.68-.88 1.29 3.23-.55 1.45-1.74-.22-1.18 1.33-1.29-.56-1.88 2.94-2.64.62.29 2.35-1.29-.56-4.17 1.5-2.44-1.28-1.11-.09-.36 1.91 2 1.46-.28.65-2.14 1.07-.8 2.57.05.94 3.08 4.24-.79 2.72.83 3.58 2.05 2.88-2.18 3.27-.87-1.37-1.29-.56.37 6.44.61 2.33 2.79 4.72-.61.35-3.23-5.49-.95-2.78-1.21-1.82-1.14-.72.24-1.27-.61-2.33.72-1.14 2.09.83v-2.52l-.61-2.49-3.5-3.42-.87-4.2-1.23.54-.3 3-1.06.69-1.2-1.66.9-.84-.34-3.29-.52-.92-3-.77-.72 1.14-1.46-.7.36-1.91-.87-1.53-1.4.24.49-2.39-1.62-.85-.41 1.13-1.74-.22-1.35 1.18-1.4.39-.73 1-1.69.73-2.13-1.45-2 1.06-.26 1-2.58-1.11-2.49.46-1.13-.57-.87 1.31-5.07-.5-2.11-1.14-4.42-.22-2.44-1.44-1.74-.22-3-2-2.69-.16-1-1.67-1.95-1 .12-.64 3.41-1-.84-.9 1-2.1 2.22.19.82-2.25 1.6.38 1.57-.09.67.75 2.46-1.09 1.47-1.82-1-1-.81-3.1-1.15-.88-.94-2.62-1.48-1-1.57-2.75-1.62-.85-2.65-2.21-2.22-.19-.43.81-1.82-1.47-1.23.54 1.51 1.65-1.2 1-.7-1.22-1.09.22-3.05-1.09-.66-.59-1.57.09-1.5-1.49-4.93-2.73-2.8-2.82-1.09-2.46-4.23-2.44-1.61-.54-2.12-1.3-1.6-.38-1.83-1.79-2.42-3.8-7.1 32.86.18.46L99.9-160l6.75 8 6.75 8 8.4 9.29 8.55 9.12 7.36 7.61 9.35 9.23 5.17 5.06-5.17-5.06-9.33-9.25-7.36-7.61-8.55-9.12-8.4-9.29-6.75-8-6.75-8-5.77-7.23-.18-.46 7.11-32.85-.57-1.7-4-4-4.23-2.28-3.32-.28-3.4-1.7-1.83 1v2.21l-1.52 3.71-1.29-.56-2.23 2.33-3.84-1-.92.52-1.95-1 .66-2.24 1.52-1 1.16-1.8 1.07-.53.39-1.44-1.72.26-1.48-1.18 1.44-2.44-.39-1.4.82-2.25 1.05-.85.23-1.43-2.26-1-.22 1.75h-2.59l.14 2.51L70-214l-.38 1.6-1.85.74-1-.42-.77 1.9 1.13.57-.41 1.13-1.73.1-1.48 1.38 2.51-.14 1.14.72-.54 1.42-2.48.77-1.54-2.12-1.6-.87-1.59-3.06-1.92-6 .32-5.37-.5-6-1.17-3.87-2.47-4.59-1.11-.09-1.61 2.14-.23 1.43.44 2.18 2.8 2.2-3.29.34-.81-.43-2.44 1.4-.34 2.38-2.88 1.9-4.08 3.07-1-1.2.81-2.41-3.2-.92-1.07.53-3.91.54-1.27-.24L28.7-221l-2.88 1.9-2.38 2.5.9-3.52L23-221l-2.33.61-1-1.2-2.48.77.52.92-1.49 1.5-2.64.62-1-.1-1 1-1.58-.2-.91.68-1.59-.22-.92 3.2.22 1.09 1.88-.26.72 1.53-1.4.87-2.66-2.37-1.7.57-2.64-.48.09-1.11 1.41-.08L4-215l.69-1.77 1.24-.39.68.91 1-1.63 1.92-2.31h3.62l2-.27.09-1.27 2.1-2.27H20l1.13.57 3.45-.2.57 1.7 2.09-2 1.41-.08.57-1 8.51-2.69 1.07-.53 1.32-1.65-1.1-2.77-1.23.54-1.79 1.89-1-1-1.73.1.4-1.28-2.55-.48-2.35.29L26.5-229l-1-1.52-1.13-.57-.6 1.09-1.27-.09-2.42 1.71-2.19.28-.59.66-2.49-2.22-1.49 1.5-1.61-.7-1.19 1.17-.38 1.6-2.44 1.58-1.94-.83-1.42-.08-.89 1-3.6.36.7-1.46 3.34-2.24-2-1.93.45-3.18-1.57.09-1.61 2.14.38 1.08-.89 1-.87-1.37-1.61-.7-2.09-.67-1.52 1-.48 2.55-1-.1-1.21-1.82h-2.21l-.42 1-1.24.39-.65 2.4 1 1.52-2.19.28v2.52l1.63 1 1 2.94-.09 1.27-2-1.62-1.09-2.46-1-1.36-2.61-1.62-1.88.11-.83-.74-.88-1.68-1.46-.7-4.95-6.65-.77-2.48-1-.42-.88-1.68-.26-1.88-.87-1.53-.32-2.82-3.48-3-1-1.52-2.24-.66-2.92-1.57-2.16-1.92-82.3 175.75 82.3-175.75-1.1-1.13-1.58-.07-.65-3.11-2.27-3.14-1.14-.72-.71-4.21-1.22-2.14-.79-.11-1.22-2-5.12-1.44-.52-.76-1.55.4-1.3-.71-2 .59-1.81-1.31-.62.19-2.19-2.55-1.21-1.82-.8-2.95-1.59-.22L-76-281l-3.91-2.3-2.23-.5-3.69-3.89.57-1-2.22-3-1.24.39-.82-3.26-.8-.27-1.06-2-1.37-2-3.42-2-2.34.45-2.09-.83.9-.84-.69-1.06-1.79-1-.77.36-2.25-.82-1.2 1-.74-2-3.12-2.19 1.72-.26 1-1.16-1.31-.87-3.25-1.71 1.26-2.75 3.39-1.3-1.25-2.61-1.63-1-2.52-2.69-1.74-.06-2.31-1.76-2.78.95-.55-1.39-1.47-.86-.13-2.2 2-1.37-.15-2.2-1.09-2.62-2 .43.07 1.26-3.13.34-1.18 1.48-1.1.06-1.78-.84.32-2.7.74-.83 1.47.86 2.64-.62.9-.84.23-1.43-.69-1.06-1.29-.56-.46-2.49-1.3-.71.18-2.37h-1.89l-2.62 1.09-2.9 1.58-3.58.83-3 .17-1.43-.23-4.53-2.1-4.38-2.27 1.47-1.82-2.7-.32-3.84 1.79-.09 1.11-.83 1.94-2 1.53-1.28-.4 3-2.38.57-1.13-1.78-.84-7 1.19-4-.72L-172-346l-2 .12 1.17-1.64-1.13-.57-2.62 1.09-3 .64-2 1.37-4.67.9-2.13 1.38-.72 1.14-4.35 3.87-1.56.25-4.64 1.52-3.6.36-3.35-.75-3-2-1.93-.68-4.1-2.76-.53-1.07-2.65-2.21-1 1.79-3.43 3.35-2.6 1.41-2.19.28 1 4.35-.49 2.55 2 3.83.55 4.06.14 2.51.7 1.22-.14 3.16.65 3.11-.47 2.86-1.22 3.53-2.32 3.44-.1 1 2.88 3.62 1 1.67 1.46.7 1.24 2.45 3.7 1.36 1 .73.76 2.32-1.42-.08-2.75 1.42-1.31 2 .07 3.93 1.36 1.81 2.62-1.09 1.95 1 1.12 3.09 1.08-.38.7 1.22-.22 1.75-1.93 2-2.75-1.26-1.15-.88-.34-3.29-.89-1.84-.93.21-2.25-.82-.78-2.63.51-3.42 1.81-1.36-.22-1.09.58-3.66-1.09.22-1.62-.85-.44.65-.61 3.18 1 1 .1 4.56-.55 1.45-2.12 1.54 1.91.36 1.49 1.33 1.74 2.89-.33 2.54-1.27-.09-1-1.52.26-1-1.62-.85-2.28 1.39-2.81.47-1.37-2-1.92-.52-.37-.92-1.29-.56.07-1.58-1.16-1-1.6-.38-1.2-1.66-2.44-1.44-.14-2.51.86-1.47.92-.37 1.31-2 2.3-1.08.56-1.29-.57-1.7-2.12-1.3-3.4-1.7-2.82.32-2.61-1.58-4.45-.69-2 .59 1.3 3.55-2.24-.66-1.85-2.1-.59-2-4.44-.53-2.47.93h-2.21l-1.13-.57-.39-1.4-2.66.31-1.35 1.18-1.49-1.33-3.44.51 1 3.41.67 3.43 2.85 3 3.1 4.71-.41 1.13-1.95-1-.43.81-3.6.36-.7 1.61.81 3.1-1 1.16-1.84.89-.51 2.08.42 1.87 4.09 5.44 1.92 3.36 3.51.75-.12.64 3.18.45 2.34 2.39 1.29.56 1.53 2 .78 2.63v2.05l1.83-1-.52-.92-.61-2.49 1.74.06.37.92.53 3.75-.77.36-1 2.42 1.73-.1 1.65-1.51 1.24-.39 2.55.49 2.64-.62 3.35.75 1.84 1.94 3.7-1.47.12 2 .41 1.71-.51 2.08-1 1.16-3.41 1-2.66-2.53-1.05.85 1.22 2.14-.42 1 .17 3-2.16 3.59-1.79 4.51-1 1.16-2.47.93-3.42.82-3.39-1.38-.52-.76-3.27-2.18.89-1-.71-1.38-6 2.23-2.22-.19-1.53.72-2.51.14-2.27-1.13.23-1.43-1-1.2.31-2.85-2.2-2.71-1.94-.83-2.67.15-.49 2.55-2.13-1.45-3.36 1.77-1.32 1.65-1.13 2.27-1.53.87-2.12-1.3-2 .43-5.72 1.9-1.55.4-1.52 1-.73 1-.49 2.55-1.61-.7-2.31-1.92-.14 3-3.63-.11-.54 1.61 2.08.51.57 1.7-.9.84-1.74-.06-.36 1.91 1 1.83-1.78 2 .09 1.57.7 1.22 1.35-1.18.84.9.13 2.36-2.18.44-.24 1.27 2.44 1.28-.27.8 1.62.85-.38 1.6 1.63 1 2.5 2.38 4.07-.39-1.81 1.36-1.27-.09 1.89 2.73.24 1.4-1.35 1.18h-2.36l-1.3-.71.41-1.13 1.35-1.18-.41-1.71-3.16-.14.83-1.94-1-1.67-1.49-1.33 1.33-1.49-2.07-.35-2.36.13-.71 1.3-4.09.08-1.22.7.85 1.05 2.23.5-1.18 1.33-1-.42-.33 2.54 1.08 2.3.66 3.27-.53 1.76.76 2.32-1 1.16-.64 2.56 1.21 1.82 2 1.62 4.86 2.4 3.18.45 1.23-.54 1.66 1.48 1.37-.87 1.62-2-.38-1.08 1.56-.25v1.89l-.76.52v2.21l-.48 2.7-.86 1.47-.72 4-.71 1.3-.31 2.85-3.63.32-1.49 1.5-1.08.38-.69 1.77 1.69 2 .53 1.07-2.65.47-2.13 4.06-1.6-.38-1.52 1 2.51 2.54 2.22.35.9-.84 5.7.46v.79l2.49-.46 3.93-.07-.21 1.9-.88 1.15 1.36 1.81-.17 2.53 3.1-1 1 .89-.41 1.13.3 2.5-1.17 7.15 1.67 1.64 2-.59-.2-.78 1.21-3.69 1.55-.4 1.66-1.35 3.44-.51-.88 1.15-1.82 1.21.73 1.69-.64 2.56.87 1.53 6.38 1.37 1.4-.24 4.14.87 1.86-.58-3.44 3.19-3 .48-3.71 1.16-2.1 1.85-.4 1.28-2.41 1.87-2.51 3-2.54 2.35-1.9 2.63-2.7-.32-2.32.76-2.84-.15-5 1.54-1.53.72-2.79 3.62-1-.42-.59-2-2.85-.31-2.34.45-1.58-.07-3.05-1.09-3.92.38-2.07-.35-2.8.63-2.73 1.89-2.15.91-.39 1.44.92 2.31-.44.65-1.61-.7.4-1.28-1.63-1-2.47.93v-5.36l-3-2-4-1.35h-5.51l-5.59 1.42-.54 1.61-1.47-.86-3.1.81h-1.89l-.23-1.25-3.5-.59-1.71 3.09-1.87.42.06 1.1 3.47.12.59-.66-.44-2.18 1.36-1 .72 1.53-.43 3.49.67.75 2-.12 2.24-2.18-.25-1.56 1.22-.7.81.43-1 4.15-.74.83 1 1.36 4.13.55-.23-1.25 1.05-.85 1 .73 3.41-1 1.62-2 1.69-.73 1.94.83-.4 1.28-1.85.74-1.51 1.19 1.32 1 .38 1.08 3 .62 2-.74.27 2 3.22 1.23 1.37-.87h2.36l.81.43 3.12-.49 1.13.57.9-.84 1.37 2-1.23.54.4 1.55 2.28-1.39 1.57-.09 2.73.95 1.48 1.18 1.68-.88 2.43 1.12 1 .89 1.5-1.35 1.59.22.25-1.12h1.89l-.72-1.53-2.43-1.2 4.35-1 1.49 1.33 1.41-.08 1.2 1.66 1.18-1.33-.82-.58 1.36-1 1.61.7.08 1.41 1.63 1 .35-2.07 2.06.2.85-1.62 1 2.94 2.32-.76 3.91-.54 1.35 1.66 2.27-1.55 1.88-.11 1.12-2.43 1.66-1.35 3.47.12 2.7.48 2.82-.32 1.31-2 1.08 2.3 1 .26.7-1.46 3 .3 1.79-1.83 1.83 1.79 1.54-.56.39 1.4 2.45-1.24 1.33 1.18 1.85-.74v-2.36l3.18.61.5-2.23 1 .73 2-1.69 1.79 1 3.29-.34 2.27-1.55.88-1.15-.75-2.16-1-.73-.09-1.57-3.94-2.77 2.67-3 1.55-.4-.05-.94 4 .56.22-1.59 1.93.68 1-1.16 1 .26 1 1.2 3 .14 1.35-1.18-1-1-.07-1.26 1.94.83 1.31.87 1.27.24 2.14-1.22 1-1-.11-1.88 1.23-.54 2.51-.14 2.12-1.54.41-1.13 1.69-.73 1.72-.26 1.06-.69 2.5-.3 2.54-2.35 2.19-.28 1.93.68 2.22.19 1.82-1.21 1.4-.24 2.23.35 1.24-.39 1 1.83 3.75 2.31 1.8-1.52 2.31-.92 1.26-.07 1.93.68.69 1.06-3.49-.43-1.86.58-2 1.37-2.18.44 2 4.93 1 .89.73 1.69 1.11.09.26 1.72-3.66-3.41-1.2-1.66h-2.52l-1.34-1.34v-2.05l-.83-.74-3.76.37-4 .86-1.62-.85-1.88.11-.73 3.82-1.75 2.46-1.1.06-1.17 1.64-1.21.86-3.56 1.15-4.06 3.38v2.36l1.86 2.26 4.69-.58.83.74-2.77 1.1-1.83 1-1.75-.37-.28.65-1.95-1h-2.84l-2.11 1.7.81 3.1 1.62.85 2.34-.45.53 1.07 1.48 1 .89-1 1.35 1.5.56-1.29 3.3-.19 2-1.37 1.38 2.13 2-.9.8.27 3.07-1.43 1 .57 2.38-2.5 1.3.71 3.25-1 3.16 3 3 2 1.75.22 2.26-1.86 1.27.24 1-1.32-.72-1.53 2.77-1.1 1.73-.1.42-1-.14-2.51-2.62 1.09.09-1.11 1.69-.73.9-2.65-2.14 1.07.82-2.25-1.57.09.85-1.62 3 .14 2.27-1.55 1.45.55-1 1.32.54 1.23 1.29.56.39 1.4 1 .1.71-1.3 1.23 2.29 3.41-1 1 .89 1.59.22 2.95-.8 2.27 1.13-.24 1.27-2.29-1.44-2.91 1.43-.07 1.58.9 2 1.27.09.7 1.22-3-.46.09 1.57h2.84l.53 1.07-1.52 1 3.16.14 1.37 2-.27.8-3.7 1.47 3.1 1.87.76 2.32 1.45.55 1.55-.4 1.66-1.35 1.56.8-.09 1.27-1.84.89-1 1.32 1.46.7.8 2.95 2.09.83 1.45 3.38.44 2.18 3.18.45 3.71 1.52 4 .88 6.59 5.14 1.54 2.12 1.13.41 2.67-.15.84.9-.72 1.14-1.56.25.87 1.37 2.73 3.63 2 1.78 2.59 1.27 5.19-.14 2.14-1.22 1.41-.08 1.34-1.34 1.19 4.34-.8-.27-.48-3-2.14 1.22-.49 2.39.39 1.24-2.73 1.89-2.07-.35 4 6.7 1.83 1.79 2.08 3.35 3.24 4.38 1.09 2.62-.49 2.39 2.16 4.76-.09 1.11 2.47 4.59 1.44.39 1 1.2-.26 1 1.42 2.75 1.66-1.35 1.14.72 3.17.29.76-.52v-2.84l.43-.81-1.32-3.86-1.14-.72.73-1-3.18-3.28.41-1.13 2 2.25 1.54-.56-.51 2.08 1.54 2.12 1 .42 1.25-.75-.12 6.15-.91.68-.52 1.92 2.69.16.86 1.21 1 .1v3l1.34 1.34 1.5-1.35.48-2.7.12-3.47.77-.36.33-2.54-.22-3.93 1.41-2.92 1.28.4-.69 4.45-.57 1.13.26 1.88 1.39-.55-.7 2.4h-.63l.34 3.29-.19 2.22 2.16 1.92L-82-12.1l3.63-2.73-.36 1.91-1.08.38-.86 1.47-.5 2.23L-80-6.07l.53 3.75 2.25-2-.96 3.32 2.56 3.48-.6.51-2.57-3.62-.94.05-.55 1.45.91 2.13-.42 1 .17 3-1.38.69-1.33 1.49 2.5 2.38 1.57-.09-.09 1.11 2.35 3.33-1.23.54 1.1 2.77 1.52 1.8-.8 2.57 1.88-.11-1.16 1.8 1 1.67v1.89l1.63 1-.21 1.16.92 2.31-1.88.26-.63 2.71-2.54 2.51-2.44 1.21-.16 3 1.71 2.42.85-1.62 1.53-.87 1.45-2.13-.87-1.53 1.73-.1 4-1 .38 1.08 1.87-.42-.08 1.42.56 1.54.83 3.58-.77 3-1.36 3.7-2.83 2.09-.42 1 .87 1.53-1 1.16.39 1.4-.84 2.06.38 1.08 1.38-.71 1.8 1.16 2.93-1.11 2.25-2 2.67-2.83 1.22-.7V51l.83-1.94v-1.89l2.54-2.35.53-1.76-.53 1.76-2.2 2.8.22 1.09-.85 1.62.14 2.51-.42 3.65-1.83 1-1.48 1.66.58 1.86 4-4.17.53-1.76 1.17-1.64.44 2.18-2.83 2.84-1.66 1.2-1.45 2.13-1.61 1.21-1.58 2.61-2.17.6-.24 1.27-1.09.22-1.51 3.87 1.92.52L-67 74l-.91.68 1.5 1.49-1.18 3.83 1.66 4.32 3.31 8.32 1.39-.55 1.23-3.37 1.66-1.2 3.4-1.14 1.66-1.2v1.89l-1.23.54-.83 2.09-.21 1.9-2.32.76.52.92-.8 2.57 1.4 2.44 1.2 1.66-.66 5.08.21.93 1.63 1 1.71-.41-.37 1.75-2.34 3.13-.37 1.75-1.52 1 .71 1.38 2.52-2.82-.17 3.26 2 2.41 3.89-.85.74-.83h2.68l.27 2-2.11 1.7-.79-.11-1.67 1-2.16.75-1.3 2.12-2 .12-1 1.63-.48 2.7.39 1.4v2.84l1.27.09 1.74-2.62-.08-1.41 2.12 1.3 3.33.44 4.21 2-.14.32-3.71-1.54-3-.62h-1.89l-.76.52-1 2.1-1.68.88-.57 1 1.79 1-3.59.52-.09 1.27 1.2 1.66 1.58.07-1 1.95.87 1.53 3 2.35 1 1.2 2.42-1.71 1.83 1.79 1.25-.23.59 2 1.24-.39 2.4.65.12 2 1.32 1-.58.82-2.37-.18.07 1.26-1 1.16 3.07 1.4 1.7-.57 1.06 2 2.22.35 1.55-.4 2.79 1.89.28 2.19 1.11.09 2.9 1.1.74 2-2.73 4.57 2.93 4.4 2.7.48 1.69-.73 1.18 1.35-1.38.71-.96 1.61.61 2.33 4.14 3.54 1.23-.54.08-1.42 3.26-.82-.75 3.35.08 1.41-.73 1 .54 1.23-.85 1.62.95 2.78.64.12 1.34-1.34 2 2.09-.68 1.93.78 2.63 1.59.22.21 3.61-.9.84-1.11 2.58 1.35 1.66-.43 3.49 1.39 2.28-1.67 1-1.74 2.62-.64 2.56-.27 3.64.24 1.4-2 1.53-1-.42-.72 1.14-2.42 1.71-.72-1.53-1.25.23-.45-.97.85-1.62 1.07-.53.13 2.2 1.81-1.36 1.4-.39 1.71-3.09-.72-1.53v-1.89l2.16-.75-.16-2.83-.64-.12-2.54 2.51-.56 1.29-2.64.62 2.19-3 1.27.09 1.19-1.17.09-1.11-.65-3.11.1-1-2.66.31-1-1.36-1.88.11-3.86-1.36-1.31-.87-4.17-1.34-1.69-2-1.8-1.16-1.79-1.88-1.22.7-1.59 2.45.23 1.25-.27 3.64 1.39 2.28.39 1.4-.1 3.79-.43 3.49.62 2.64-.27 3.48 1.61.7v.79l1.33 1.18-2.18.44-1 1.16-.24 1.27 2.09.83-1.13 5.1-2.46 1.09 1.23 2.29 3.14-.18 1 1 1.58.07 1.57 2.75 1.57-.09 1 .1 2.17 2.08.78 2.63-.61 5.86.67.75 1.61.54 3.26 1.86 4.06-.55 2.47-.93 2.86.47 3.69 1.21 1.37 2 1.09-.2-1.09.2-1.37-2-3.71-1.2-2.86-.47-2.47.93-4.06.55-3.26-1.86-1.61-.54-.67-.75.61-5.86-.78-2.63-2.17-2.08-1-.1-.75.67-1.93-.68-1.22-2-1.39.55-3.17-.29-1.38-1.12.13 2.36-.37 1.75-.92.52.08 1.41-.68 1.93.26 1.88-1.69 3.56-1.3 5.27-2.09 4.84-.58.82-1 3.84-4.48 12.54-3.65 7.77L-56 289l-2.38 5.18-2.19 3 .11 1.88.89 1.84-.22 1.74-1.66 4-.08 4.1 1.41 2.6-.64 2.56-1 1.16 1.32 1v2.68l-.14 3-2 4.36-.75.67.13 2.36-2.85 5.2-.8-.27-2.92 4.1.13 2.36-.42 1 2.57 3.63 2.38 5.85.15 2.67-.32 2.7-1 1.63-.7 1.61.51 6.11-.88 1.15.6 2.17 2.26 3.65 1.79 3.84 1.5 1.49 1.31 3.71-.23 4.27 1.16 1 .9 2 .79.11 1.7 2.11 1.53-.87-.84-.9 1.08-3.21 1.39-.55 1.52 1.8 2.09.83 1.19-1.17.87 1.37-2.66.31-1-.89-2.77 1.1 1.19 4.34.89 1.84-.22 1.59-2.89-.94.08-4.1-1.41.08-.19 2.22-1 2.26.68.91.3 2.5-.77 3 2.63 4.73 1.14.72 1.88-.11.86 1.21.61 2.33-.83 2.09-1.18 1.29-.83-.74-.8 2.57v3.46l.7 1.22 1.18 1.35 1.21 1.82.42 1.87 1 .89v1.89l1.54 2.12.46 2.49 1.3.71 1.63 3.69 1.82 1.47-.95 2.73 1.19 1.51 2 1.31.06 1.1-1.25 2.91.53 1.07-.69 1.77.38 1.08-1.15 2 1.83 1.63.23 1.25 5.09.81 1.76.53 1.81 1.31 2.09.67 1.73-.1 2.29 1.44 2.36 2.7.27 2 3.94 2.77 2.09.83 3.65.42 1.21 1.82.44 2.18-.7 1.61 1.63 1 .89-1 2.27 1.13 1.37 2 2.66 2.53L.59 489l2.15 4.6.26 4.24-.58.82v2.52l1.31.87.15 2.67 20.72 1.5 16.6 1.1.6-.51 2.23.5-2.23-.5-.6.51-16.6-1.1-20.72-1.5-.08 1.42.82 3.42 1 .73.61 2.33.31 2.66 1 .42v1.3l2 1.31-.22 1.59-1.72 3.67 2 2.56 2.14 4.45.39 1.4-1.07 3.37 1.27.24.9 2 1.64 1.17-.12 3.47-.64 2.56.29 2.35 1.23-.54 1.37 1.17.43 2-.31 2.85-.83 2.09 1.31.87.27 2-.4 1.28 2.86 3.15 3.11 2 1.22 2.14 3.4 1.54 3.14 5.33 1.45.55 1.14 3.4 1 .1 1 1.36 1.49 4 1.61.54 1.63 3.69-2 3.58 1 1-1 1.48.45 2.34h-.16l-.48-.13-.83.07-1-.1.93 2.47-.9.84.92 2.31 1.87-.42 1.14.72-.73 1-1.45-.55-1.05.85-.68-.91-2-1.62-.31-2.66-3.07 1.43-1.74-.22-5-1.92h-2.21l.59 2 1.77.69 1.53 2 .56 1.54 2.12 1.3 1.21 1.4-.14 3.16 3 2 1 .1 2 1.15 1.41 2.6.78-.2 2.27 1.13 1.12 3.09 1.19 1.51 1.6.38.87-1.31 2.22.35 1.15.88 1.53-1.64.54-1.61 1 .26-.39 1.44-1.36 1 1.14.72 1.08 2.3-.1 1 4.85 4.92.52.92 1.27.24 1.83 1.79.92-.37 1.52 1.8.46 2.49 1.48 1.18.67 3.43.74 2 .1 1.73-1.19 6.84-1 1.48-.38 1.6.3 2.79-.57 1.13.43 2 1.14.72.92-.52 1.72 2.58.32 2.82 2.45-1.24.75 2.16 2.7 3.15 3.45 2.48 3 2.35 3.39 4.22 2.56 3.48 1.17 1.19 2.78 1.73 1.65 1.32 2 4.46.64 5.79.55 1.39 1.67 1.64 1 .1 3-1.91.43-.81 3.4-1.14 1.33-1.49.83-1.94.14-3-.59-2-3.42-2v-2.84l-2.28-3.12.35-2.07-1.7.57-1-.42-.21-2.39-2.47-1.91-.89-1.84-1.73.1.28 2.19-1 1.79-.86-1.21-2.57-1L87 669.8v-1.89l-.73-1.69.49-2.39 1.44-2.29-1.33-4-.81-.43-1.39-2.28-1.45-6.06.25-1.12-1.6-.38-1-1.83-.43-2-1.17-1.19-.52-3.59.83-1.94-.82-3.42.23-1.43-1-1.52.51-2.08-2-1.31.5-2.23-1.48-1.18-2.38-3-.62.19.52 3.59 1.7 2.27-1.06.69-2.43-4 .85-1.62-2.1-3.2.86-1.47-.53-1.07-2.27-1.13-.41-1.71-1.23-2.29-.48-3-.52-.92-3.42-2.13-1.53-2-.91-2.15.49-2.55-.45-2.34.4-1.28-1-1.83.69-1.77-.79-1.83-1.57.09-1.63-1-.9-4.67-.74-1.85-1.71.41-.11-1.88-1.48-1-.59-2-1.61-3.37.6-.51-1.9-3.22-1-.73-1.89-2.73-1-.57-3.17-3.77-1.09.22-.83-.74-.13-2.36-1.5-1.32-.43-2-1.08-2.3 1.17-4.32v-2.36l-.57-1.7.52-1.92v-3.62l-1.5-1.49-.48-3 1.19-4 .49-2.55 1.44-2.29-.46-2.49-1.24-2.45 1.85 2.1.65.44 1 .73 1.43.23 1.21 1.82 4.8 4.14 1.9.21 1.2-1 1.54-.56 3.13 2.34.32 2.82.85 1.05 6.6 2.46.86 1.21-.35 2.23-.9.84-.77 3 .31 2.66 1.23 2.77 1.54 2.12v2.68l1.22 2-.32 2.36.37.92-.54 1.61 1 .42 2 4.3.24 1.4 1.73 2.74-.83 1.94.85 1.05 1.58.07.56 1.54-.41 1.13.71 4.21.8.27.89 1.84 2.05 1.76-.57 1.13 2.21 2.87.61 2.33 3.75 1.84.39 1.4 2.5 5.21 2.81 2.36 1.08-.38 2 1.93 1.05-.85 2.24.66 1.18 1.35-.2 2.06-.83 2.09.72 4.37.93-.21 1.27 2.92 1.7 2.11 3.21 1.08h1.89l.85 1.05v2.05l.64 3 1.36 1.81 1.14.72 2.48-.77 1.75.37.2.78 2.57 3.63-.16 2.69 1.76.53-.29.49-1.38.71-.92.37h-.16l-1 1.79-1.62 2v2.36l-.52 1.92 4.27 3.06.75 2.16 1.35 1.5.59-.66 1.91.36.09-1.27 1.45.55.94 2.62 1.27.24 1.52 1.8 1.78.84 1.7 2.11h2.05l.69 1.06 1.11.09-.06 1.74-1.54.56.43 2 1.84 1.94.62 2.64 2.91 1.25 1.21 1.82 1.95 1 1.84-.89.6 2.17-1.21.86 2.32 2.07.36.77 5.62 4.72 2 2.72 1.65 4.16.8.27 2.22 3 1.48 1.18 1.3 3.55 2.53 2.85 1 .73 3.09 4.39 1.47.86 2.37 2.86 1.25 2.61.91 4.83-.25 4 .42 1.87 3.54 6.89 2.62 1.74 1.35 1.5-1.16 1.8.31 2.66-.48 2.7-1.42.59-1.62 2-2.2 2.8 1.78.84.92-.52 1.19 1.51 1 1-.26 1-1.5 1.35-4.55.26-2.28 1.39.74 1.85 1.7 2.27.34 3.29 1.74 2.89 2.93 4.4 1.83 1.63 1.13.57.13 2.2.87 1.53 3.79 2.93 1.26-.07 2.62 1.74 2.57 1 1.73-.1.41 1.71 2.74 1.1 3.58 2 4.31 3.69.41 1.71 2.49 2.22 1.28 3.08 2.6 1.43 4.49 1.48 1.59.22 5.18 2.38 2.7.48 7.86 2.55 1.35-1.18 1.09-.22 4.22 2.12 1.21 1.82 1.32 1 .55 1.39 2.74 1.1.73 1.69 3.7 1.36 1.47.86 3.17 3.13 5.63 2 13.49 4.59L277 825l2.57.8 4.42.22 4.31 1 5.45 1.58 1.54-.56 4.19 4.49 2.09.67 6.21 1.22.68.91 6 3.44h4.73l1.28.4h3.62l2.08.51 2.79 1.89 1.75.37 1.62.85 3.17.29 2.42 1 2.31-.92 3.79.1 2-1.53 3.06-1.59 5.55-2 1.67-1 2.49-.46 3.56-3.83 1.53-.72 1.74.06 3.1-.81-.19-.62-3-.3.41-1.13 1.1-.06 1-1.48 1.22-.7.82.58 1 1.83 2-1.53 1.46.7-.1 1-2.3 1.08.2.78 5-.29 6.27 2.16.42-1-1.74-.22-1-.73-1.07.53-2.46-1.75.88-1.15 2.77 1.58 1.7-.57 1 1.36 3.52.9 1 1.2-1.71.41 5.68 3 3.76 2.46 4.92 3.5 5.13 4.28 3.24 1.55v.63l2.51 2.54 8.27 6.93 1.33 1.18.76-.52.63-2.71-.91-2.15.53-1.76-.11-1.88 1.31-1.81-2.68-2.84-.22-1.09 7.13-15.84.44-.5 13.78-1.41 9.54-1.17.83-2.09-.73-1.69.84-1.78-.08-1.41-1.58-.07-1.32-1-2.08-.51.09-1.27-2.2-2.71-6.62-2.77-1.11-1.98-1-.1-2.53-2.85-1.41.08-1.32-1 8.14-.94-1.24-10.64.61-.35 12.83-1.52 20.34-2.42-.16-2.83 1.67-1 3.4 1.7 2.16-3.59.51-2.61 1.34-1.34.82-2.25v-1.89l.74-.83 3.74-.69 2.47-6.44 1-1.63.73 1.69.41 1.71-.92 3.2v.79l2.71.63 2.23 3.18.94-2.89.17-2.53-.16-2.83.83-1.94.35-4.9.65-2.4.41-3.8-1.24.39-1 1.95-1-.26.17-2.53 1.34-1.34 1 .42 1.46-2-.07-1.26-2.51.14-1.86.58-1.3-.71-.25-1.56 1.85-.74.24-1.27 1.65-1.51.41-1.13-.35-3.41v-2.36l2.95-6.31 2.52-2.82 2.71-5 .44-3.33.94-2.89-1.29-.56-1-4.35-1.73.1-1.54-2.16-2.56-.64.26 1.88L497 715l-4.25.08-1.13-.41-1.59-.22-2.64.62v-.79l-3.49-.43-3 .17-2.6 1.41-3 .17-2.62 1.09-1.48 1.66-7.2 2.92-11.49 2.86-2.29 1.23-.9.84-2 .9-3.92 3.06-.44.65-.58 3.66.62-.19-1 1.63-.24 4.11.61 2.33.38 6.59.52.92.11 1.88-3.14 3-.52 1.92.34 6-1.15 2-.91.68-1.31 2-2.41 1.66-1.33 1.49-2 1.22-2.56 2 1.37 2 1.08-.38.84.9-.21 1.9-.71 1.3-3.05 1.57-.57 1.13-2.5.3-2.69-.16-1-1.2-2.19.28-.09-1.57 1.6.38.58-.82-1.48-1h-2.21l-6.23 1.3-1.24.39-3.69.97-1.31 1.81-1.49 1.5-1.54.56-9.25.84-2.48.77-.09 1.27-1.74-.06-3.23 1.29-4.91 2.33-6.05 1.6-2.09-.67-1-1.83-1.67-1.64-1.95-2.77-3.64-.27-1-1-2.94-1.73-5.34.3-4.29-.7-2.31.92-1.12-3.09-1.45-3.43-1.27-.09-2.21-2.87-2.3-1.6-1.66-4.32-1.17-3.87-.93-2.47-4.24-5.27-6.82-6.51-2.19-2.55-1-1.67.08-1.42-2.78-4.57-1.1-2.77-1.94-3.67.07-1.58-1.59-.22-1.62-2.55-1-3.57 1.45.55 2.53 2.85 2 1.62.21.93-1.63 1.31.73 1.69 1.49-1.5.32-2.7-.36-.77-3.18-2.18-1.85-2.1-3-4.87-.34-3.29-.81-3.1-1.46-3.54.95-2.73.58-.82.92-3.2-.78-5.47.13-3.32.46-5.7-.14-5.19.72-9.49 2.74-12.76 2.3-3.91 2.31-6.43-.12-2 .33-2.54-1.88.11-2.81 2.12-4.44-3.21-2.08-.51-2.35.29-4.74-.2-1.3-.71-1.19-1.51-3.53-1.06-1.08.38-1.64-1.17-1-1.2-1.57.09-1.29-.56h-2.05l-.45-2.34-1-.73-1.27-.09-.24-4.24-1.61-.7-.26-1.72-.82-.58-.88-1.68.47-2.86-1.09-2.46.38-1.6-.62-2.64-1.6-1.32-1.76-.53-1.68-1.79-.82-.58-.42-1.87-2-2.09-1.32-2.61-1.95-1-1.5-1.49-1.89-5.56-1.52-2.15-.42-1.87-1.7-2.11-.83-3.58-1.48-1-.89-1.84-3.27-2.18-.39-1.4-.93.21-2.61-1.58.57-1.13-1.29-.56-.84-.9-.73-1.69-2.39-.49-1.24.39-5.41-1-2.35.29-2.94-1.5-1.22.7-.56 1.29-1.74-.22-2.79.79-1.57 2.77 1.58-2.77 2.79-.79 1.74.22.56-1.29 1.22-.7 2.92 1.57 2.35-.29 5.41 1 1.24-.39 2.39.49.73 1.69.84.9 1.09-.22 1.55 2.27 1.63 1 .39 1.4 3.27 2.18.89 1.84 1.48 1 .83 3.58 1.7 2.11.42 1.87 1.54 2.12 1.89 5.56 1.5 1.49 1.95 1 1.25 2.61 2 2.09.42 1.87.82.58 1.68 1.79 1.76.53 1.65 1.32.62 2.64-.38 1.6 1.09 2.46-.47 2.86 1.46.7.39 1.4 1.62.85.78 2.63 1.48 1-.65 2.4 1 .73.45 2.34h2.05l1.29.56 1.57-.09 1 1.2 1.64 1.17 1.08-.38 3.53 1.06 1.19 1.51 1.3.71 4.74.2 2.35-.29 2.08.51 4.44 3.21 2.87-2.21 1.88-.11-1.59-.22-.26-1.72-1.15-.84-.08-1.41L314 641l.09-1.27-1.65-1.32.35-2.07-1.36-4.49-1.15-.88v-3.46l1.25-.23-.4-1.55.76-.52v-2.71l-1.21.86-1.9-.21-.05-.94 1.67-1 1.75.37 2.45-6.76-1.63-1-.57-1.7-1.74-.06-.51-.6 4.23-.4 1.31.87 2.45-3.92-1.29-.56-1-1 4.54-.57L322 604l-.09-1.57-1.19-1.51 1.07-.53 2.17 2.08 4-2.27-2-2.09-1-.57.24-1.27 3.47.12 1.36-1 1 1.83 6.12-3.18 2-.12 1.39-.55 3.49-2.4 3.43-3.35-.11-1.88 1.35-1.18 2.65-3.3-2.38-3v-3.31l2.26 1 .68-1.93 1.24-.39 1 1.52-.76 3.19 2.33-.61-.68 1.93 9.32-5.1h3l-1.21-1.82.06-1.74 1-2.26.94-.05.65.44-.21 1.9-1.67 1 1.06 2 1.37-.87 4.51-1 4.07-.39 2.86.47 5.78 1.88 2.23.5 4.42.22 2.57-1.88-.79-1.66.1-1 2.15-.91.12-.64 2.19-.28-.39 1.44 3.14-.18 1 .26-.07 1.58 1.26-.07.74 2 3.48.27.59-.66 1.22 2.14-1.6 2.3 1.78.84 4.92.66 1.56-.25 2.09.83 2-3.58 2.66-.31 2.4.65-.07 1.58.87 1.37 2.09-2-.42-1.87.7-1.61-1-3.1 1.79 1 1.09-.22 2.12 1.3.52.76 4.64 1.31 2 2.72 1.29.56h1.89l2.38-2.5-3.35-3.43-2.18.44-1.62-.85-1.24.39-.71-1.38-2.09-.67-1-1.36 1.23-.54 2.44-4.23.66.59 1.16-1.8-1.77-.69-.13-2.36-2.12 1.54-.51 2.08-1.1.06-2.62-1.74.52-1.92-1.62-.85-.57 1.13-1.66 1.2-2 .59-2.86-.47-1.64-1.17.23-1.43 2.64-3.46 2.53.17 1.67 1.64h3.31l1 1 3-.64-1.12-.25-.87-1.53-1.1-2.77-2.15-1.77-1.06-2 1.13-5.1-.05-.94.05.94-1.13 5.1 1.06 2 2.15 1.77 1.1 2.77.87 1.53 1.12.25 1.26-.07.23-1.43 1.37-.87 4.76-2.16 1.18-1.33 1.37.33 1.79 1 2.82-.32 1.43.23 1-1.32-5.18-27.27L447 497l-.81-28.15-1.67-1.64 1.67 1.64L447 497l.93 27.36 5.18 27.27.61-.35 4 .72-.28-2.19.41-3.8 1.71-.41.9 2-.4 1.28.53 1.07 2.61 1.58.08 1.41 2.93-1.11.11-.79 1.52-1 .85-1.62-.35-.61 1 .1-.5 2.23 1.43.23 2.34-3.13 2-1.22 1.48 1-1.5 1.35 5.59-1.42 2.9-1.58 1.27.09 1.84-.89 2.23.35-3 1.91 4.92.66 3.37 1.07 2.31-.92 1.07 2.14 5.71 3.46 1.19 1.51.26 1.88 2.77-1.1 3.73-.84 2.12-1.54 1.18-1.33 2-1.69 2.67-.15-1.06-2 1.64-1.67 3.72-1 3.07 1.4 1.11.09 1.94.83 1.66 1.48 1.52 1.8 2.08.51.46 2.49 3.4 1.54 1.36 1.81 1.27.24 1.35 1.66 2.8-.63 1.31.87.74 1.85 2.14 1.61.79 2.79.64 5.63-1 4.94.56 1.54-.17 5.37.79.11 2.3 1.6h.79l.17-2.53-.37-.92-2.08-.51.38-1.6 1.43.23 2.12 1.3.91-.68.91 2.15-1.87 3.1v2.05l-1.22.7.39 1.4 1.46.7.59 2 4.26 5.59 1.5 1.49 2.07.35.32-2.7 1.63 1 .36 3.6 1.25 2.61 2.26 1 1.09-.22 1.1 2.77 1.15 3.56 2.77 1.58-.09 1.11 2-.27 3 .62 1.48 1 4.46 6.36 1 .57 2.06.2 1.15.88-.1 1-2.4-.65-1.46-.7v1.89l2 1.62 2.77-1.1.74-.83 2.53.17 1.76-2.31 2.67-.15.22-1.59 1-1.63-.91-2.15v-2.36l.49-2.39.76-.52-.12-2 .59-.66-.9-7.51-.76-5 .28-.65-1.17-4-1.26-2.76-1.89-2.73-.48-.13-4.49-6.19-1.25-2.61-7.67-10.27-1.72-2.58-2.69-5.83 1.78.84.28 2.19 2.49-.61-6.87-7.17-6.15-8.47-2.08-3.35-4.12-8.74-.25-1.56-1.54-2.12-.34-3.13-1.31-.29-.94-2.62v-2.05l.87-1.31.19-2.22 1.26-2.75-1.13-.57-.88-1.68.3-3 .93-3 1.79-1.68-.58-1.86 1.59.22 1.56-3.08-1-.26-2.09-.67-.92.37.92-.37 2.09.67v-.63l1.92-2.16.71-1.3-2.29-1.44.43-.81 2.28 1.29 1.23-.54 1.31-2-.86-1.21-1.61-.54.41-1.13 2.09.67 1.08-.38 2.39-2.34 2-1.06 1.47-1.82.23-1.43 1.52-1 1.43-2.6-.11-1.88 1.58.07 1.38-.71 2-3.89.07-4.26 1.94-4.68 2-3.11 2.37-2.66 4.46-1.83 3.45-.35 1.48-1.66-.33-3 .22-1.74 1.69-3.56 1.45-2.13 3.59-3.35.4-1.28 4.1-2.75 3.58-.68.87-1.31 1.1-.06 1.72-2.93-.85-1.05-2.67.15-1.23.54-1.47 1.82-.39-1.4 2.34-3.13-1.77-.69 2.27-1.55-.55-1.39h-3l1.19-1.17 2.16-.75 2.7.32 1.71-.41 2.54-5.19 1.82-1.21.07-1.58-.61-2.33-2.64-2.06-1.33 2.13.63 2.8-1.13-.41-.87-1.53v-2.36l-2.18.44L613 414l-1.43-.23-1 1-2.49.46v-2.05l2.53.17 1.31-1.81 2.93-1.11 2.07-2.32 2.51-.14-2.12-4-1.61-.7-.71-1.38-26.52 7.34-13.19 3.43-18 4.33-8.42 1.58-7.94 1.71-5.78.8-.65-.28-3.58.68-.6.51-12.61 2.61-12 2.42 12-2.42 12.6-2.6.6-.51 3.58-.68.65.28 5.78-.8 7.94-1.71 8.42-1.58 18-4.33 13.19-3.43 26.54-7.36.31-.17.62-.19-.79-2.79h.47l1.57 2.59.31-.17-2.75-4.1-.88-1.68-2 .43-2.22-.19-.39 1.44-2.35.29-1.9-1.82-1.41.08-1.2-1.66-2.92-1.41 3.94.09.59 1.38 2.73.95.52.92 1.66-1.2-.61-2.33-2.7-.48.86-1.47-1.07-2.14 1.41-.08.71-1.3-1.91-.87-1.66-1.48 1.23-.54-.11-1.88.52-1.92-.39-1.4-4.47-1-1.84-1.94-3.75.53-1.27-.24-1.5-1.49-.06-1.1-3.06 1.59-.64-.12-1-1.67.4-4.12 1.42.08-.07-1.26.92-.52-.47-2.65-.66-.59-1-.26 1 .26.66.59.17.15.21.93 1.14-2.11-1.2 2.16.26 1.88-.7 1.61-.92.52-.49 2.39.57 1.7 1 .26 1.92-2.31 2.19 2.55 2.7.48 1.87-.42 3 .93 1.54-.56-1.34-1.34-1-1.52.09-1.27-2.32-2.07-1.14-3.4-.67-.75.63-2.71-.7-1.22 1.05-.85-1.59-3.06.39-1.44-.68-.91 2.75-1.57 1.47-2.32.86 1.21-1.63 1.83-.44 3.33h2.05l.27 2-1 1.32 1.61.7-.37 1.75-1.41.08-.06 1.74 1.57-.09 1.45.55-1.35 4 2 1.93 3 .93 1.53-.87 1 .57-.86 1.47 1.88-.11-.31 2.85 3.44-.51-.23 2.62-1 1 .54 1.23-1.27 2.59.67.75-.52 4.76.22 1.09 1.37 2-.11-4.32.52-1.92 2.69-8 .73-1-.56-1.54.41-1.13.67-2.09.19-2.22 1.07-.53-.08-4.09h.31l.15-.17-.73-1.69-1.12-.25.36-1.91-.74-2-1.24.39-2.62-1.74-.37-.92-1.32-1-1-2.94-1-1.36-2.79-2 .07-1.58-1.16-1 1.5-4-2.51.14-1.49 1.5 1.49-1.5 2.51-.14.27-.8 3-2.06-.07-1.26 1.19-1.17-.94 2.89-2.06 1.09-1.32 1.65-.33 2.54.49 3.12 3.1 1.87 1.74.22 1.65 1.32 1.85-.74 2.24.66-.09 3.94 1.23-.54 1.28-2.44.47-2.86.54-1.61.35-2.23 1.22-3.53 1.7-3.4-.52-.76.35-2.07-.64-3 .62-.19-.49-5.8-1.35-1.5-2.34.45-1.46-.7.32-2.7.59-.66.78-.2.56-1.29.39-4.28-.21-.93.21.93.45 2.34 1.36-1 1.37-3.54-1.66-1.48 1.66 1.48.91-.68 4.49-4.19 4.53-3.41 2.14-1.07 1.42.08.74-.83 2-.59 1-1 1.09-.22 2.59-1.57.81.43L649 299l1.4-.39.35-2.07-.89-1.84.13-3.32 1.74.06-1.79-1-1.94-3.69-5.25 1.87-1.55.4-11 3.3-9.46 2.59 3.26 13.52 1.17 1.19-1.17-1.19-3.29-13.52-.49-.29-.56-12.57-4.28-14.25-1-1-1.73.1 1.73-.1 1 1 4.28 14.25.56 12.57.49.29 9.46-2.59 11-3.3 1.55-.4 5.25-1.87 1.94 3.67 1.79 1 .81.43h.79l1.09 2.46 1.09-.22 1.19-1.17-.07-1.26 1.51-1.19 1-1.79 1.15 3.56 1.8-1.52.55-1.45 6.13-3-1.28-3.08-1.15 2-2.25 2h-2.36l-1.45-.55-1.39-2.28-1.08.38-.61-2.49-3-2.19-3.45.2.2-2.06 1.18-2.2-.52-.76 2.41-1.87-.71-1.38-1 1-1.15-.88-.95-2.78.32-2.7-.69-1.06-1.48-1 1.48 1 1.06-.69.36-4.75 1.32-1.65-.45-2.34 1.66-1.35-1.22-2.14 1-2.42 1.17-1.64 2.28 1.29 1 .1.75-3.51.73-1 1.45.55-.13-2.2.59-.66 1.95 1 .75-.67.37-1.75-.13-5 .25-1.12-1-1 1.63-1.83 1.86 2.26 1.74.06 1.24-.39-1-1.67 3-2.85 2-.59.72 1.53 1.09-.22 1.18-1.33.14-3.16 3-.64-.47-1.79h1.89l.71-1.3 1.25-.23 1.81-4.2-1.82-1.47-2.89-3.77 1.48 1 1.13-2.27 1 1.36 2.2-.13 2.52-2.82 1.15.88 2.36-2.81v-2.05l.92-.52 2.09.67 3.56-3.83 1.94-3.21 3.1-3.3.69-1.77 1.54-.56.17-2.53.53-1.76 2.19-.28.21-1.9 1.13.41.48-2.7 1.2-1-.85-1.05 1.85-.74.52-1.92-2.82.32-1.36 1-1.61-.7-3.08 1.28-2.11-1.14-.39-1.4-2.39-2.26-.74-1.85-2.42-1-1.35-1.5.5-2.23-1-1.67-5.85 2.38 1.73-2.78.37-1.75.75-.67-.21-3.77-.85-1.05.62-2.87.57-1-2.25-.82-1.8 1.28-.68-.91-2 1.37-1.31 1.81-.83 1.94-1.68.88-1-.57-1.53-2-1.29-.56-1.87.42-3.94-.09-1.77-.69-3.44 3.19-1.4.39-.9.84.9-.84 3-2.53.1-1 2.76-1.26 2-.43 1-2.42 2.56.64 3.6-.36 1.13.57 1.68-.88 2.49-3.29.56-1.29 1.35-1.18v-2.36l1.31-1.81 2.12-1.54.81-2.41-1.27-.24-.06-1.1.91-.68-2-1.15-4-1.35 3-.33.39-1.44-2.74-1.1-3.36-.91-4.57-.05-7.1 2.19-3.19 2.07-3.67 1.94-3.91 3.22-4.6 5-2.82 3-1.38.71-3.63 4.59-2.4 2-1.14 2.11-1 1-.24 1.27-1.75 2.46-.92.37-2 3.58-1.78 4.67-1.19 1.17-.5 2.23.2.78-1.61 5-1.69 3.56.11 1.88-1 1.48-1.17 4.32-1 2.42-3.75 3.36-.57 1.13-2.14 1.07-1.13 2.27-4.36 3.71-1.74-.22-1.44 2.44-1.8 1.52-.51 2.08-2.25 2-1.58 2.61-.23 1.43-2.28 1.39-1 1.63-1.06.69-.24 4.11-1.51 2.48.31 2.66-.39 1.44.7 1.22-.41 1.13-1.73.1-2.06 2.48-1.28 2.44-1.24.39-2.69 2.52-.54 1.62-2.55 2.19 1.76-2.3.09-1.11 1.47-1.82 1.49-1.5.41-1.13 2.14-1.22-2-1.46 1.62-2 1.09-3.05.9-.84 2.14-1.07 1.7-3.4.4-4 1.51-1.19-.26-1.88 1.49-1.5 2.8-1.52 1.12-2.43 2.09-2-.09-1.57 1.81-1.36 1.59-2.45 2.34-.45 2.41-1.87 1.23-.54 1.17-1.64.09-1.11 1.83-3.88 2.21-2.65.63-2.71.11-3.63 2.71-2.2-.26-1.88 2.12-4.22.22-4.42-.14-2.51h-1.89l-1-.89-1.42-.08-1.54.56-1.76-.53H621l-3.09 1.12-.55-1.39 4.09-.08.76-.52 3.2.92 1.85-.74 2.91 1.25 1.53-.72 1.71-3.09.74-3.66-.14-2.51.92-.52-.17-3 .74-.83 1.56-3.08 1.53-.72-.57-1.7 2.18-3.27.81.43 1.52-1-.32-2.82 1.82-1.21 1.56-.25.73-1 3.83-2 .79-2.72L650 137l.23-1.43-.53-1.07-.1-1.73.92-.37v-3.15l1.93-2 .21-1.9 1.05-.85-.22-1.09 1.18-1.33 1 .73 2.16-.75 1.2-1 .7-1.61 2.35-.29 4.85-3.27 4.52-.89 2.75-1.42 1.34-1.34 2.83-.16 1.23-.54 1.34-1.34 2.92-1.27 1.75.37.91-.68 1.13.41 2-1.22.4-1.28 3.53-1.62 4.64-1.52 1-1 1.59.22 4.18-1.34 2.28 1.29 3.73-3.7 1.54-.56 1.2-1.3 1.26-.1.55-1.45 1.57-.09 2-.9.72-1.14 1.7-.57 1.18-1.33 1.27.09 1.77-2.15-.84-.9.22-1.59 2.11-1.7.25-4 1.6-2.3.38-1.6 1.4-.39-1.52-4.48 1.76-2.31-.27-2 1.25-2.91 2.65-.47 2.25-2.3 1.21-3.41 1.11.09 1.5-1.35.43-.81 1.81-1.36 1.33 1.18.92-.52 1.37-.87-.37-.92 1.21-.86.49-2.39-.24-1.19.76-.52 1.38-3.39 1.2-1 .38-1.6 1.31-2-.26-1.72.59-.66.51-2.08-1.2-1.66-1.94-.83.61-3.18-1.43-.36-2.77 1.1-1.29-.56.84-1.78L744 28.3l.55-1.45 1.36-1-1-1.52-2.09-.83.07-1.58.85-1.62-1.28-.4-1.08-2.3-.82-.58h-2.36l-1.35-1.66.11-.79-4.35 1.43-2.34.45-.71-1.38-3.35 2.08-.49 2.55.54 1.23-.85 1.62-1.33-1.18-1.92-.52 2.19-3.12.09-1.11-1.94-.83-.38-1.08-1.46-.7-1.84-1.94-1.6-.38-.43.81-5.28 1.25-2.12 1.25-1 1.32.07 1.26 2.54.33-2.54 2.35-2.67 2.83.06 1.1-1 2.42 1.15 1.17-.43.81-2.56 2-.66 2.24-3 2.69-.6 3.34-.59.66-2.81.47 2.34-3.13-1.31-.87-1.78-3.52 1.79-1.68.7-1.46 2.79-.79 2.32-3.44 2.09-2 .36-1.91 1.71-.41.89-1 .59-3.5-1.21.86-1 2.1-5.02 4.76-1.26.07 4.32-4.34 1.53-.72 1.89-2.79 2-1.37-.28-2.19 2.57-1.88 2.3-1.08 1-1.48-1.91-.36 2.58-1.72-.41-1.71-1.45-.43-2 1.37-2.73-.95-2.9 1.58-1.14-.72-1.68.88L700 7.34 697.28 7l-.85-1-1.6-.38.09-1.27-1-1-3 .17V6l-1.13-.41-4.14 2 .35-2.92-1.44-.39-.56 2.07L680.64 8l-1 2.26-.76-2.32-.28-2.19-.81-.43V3.43l-.68-.91-2.09-.83.9-.84-1.13-1.53L674-1l-.53 2-1.9-.21-.86-1.21-1.71.54-1 .88-.7-1.22-3 .48-1.67-1.64.59-.66L662-4.21l-1.5 1.35-3.59.86-.28.65-2.09-.83L657-3.29l1.12.25L659-4l-2.71-.63-2.46-1.75 2.34-.45-.87-1.37-1.47-.86 1-2.42-1.61-.54 1.18-1.33-.36-.77.49-2.55 1.53-.87-1.54-2.12-1.74-.06-2.29 1.23-.94.05-1-1.67-.13-2.2-2.7-.48-3 2.06v-2.05l1.8-1.52-.05-.94 1.2-1-.37-.92-2-1.46-1.74-.22.22-1.59-1.32-1-.57 1.13-1.89-.42.42-1-2.28-.28-1.47-.86-3 2.85-1.45-.55 3.65-2.26-1.15-3.56-.66-.59v-1.89l-2 .9-1.45 2.13-2.24-.66 1.63-2.64.22-1.59-2-2.41-2.09-.67-2-1.46-.22-1.09h-2.84l-.12-2-2.46-1.75-2.8.63-.32-2.82-2.73-.95-.87-1.37-1.53.87-1.79-1 .6-.51-.47-2.65-1.8-2.1-2.34.45-.1-1.73-1-1.83-1.44-.39h-3.3l.53 1.07-.71 1.3.54 1.23.29 2.35-.38 1.6.75 2.16-1.9 2.63-.72 1.94 2.7 3.15 1.06 2-.1 1.07-1.23.54 1.2 1.66-1.85.74 1 1.83 1.34 1.34-1 1.79-.08 1.42-1.04.88-.14 3 .38 1.08-3.53-1.22-.29.49.6 2.17-.76.52.13 2.36.73 1.69-3.08 1.28-.34 2.38-.92.52-2.2 2.8-1.5 1.35-1.33-1.18-.11-1.88-2.29 1.23-.26-1.72-2.49.46.79 5.63-.64-.12-.38-3.92-1.53-2-1-.73-1.27-2.92-3.37-1.07-1.57.09-.63 1.18-1-.1-2.62.94-1 1-.53 1.76-.89 1-.09 1.27-1 2.42-1.66-1.48-2.37-.18.7-1.46 2.56-2 .84.9 1.08-.38.51-2.08-2.65-5 2.42-1.71-.89-1.84-2 .12-1.41 1.39-1.41-2.6-1-.26.07-1.58.88-1.15.07-1.58-1.49-.07-.51-3.44-1.41.08-.86-1.21-2.44 1.4-1.26.07-1.61-.7 3.88-1 .23-1.43 1 .1.87-1.31-.76-2.32-2.14-1.61-.76-2.32-1.16-1 1-1-1.24-2.31.71-1.3 1.62-2-.56-1.54L549-60l-.91.68.27 2-.86 1.47-.2 2.06-1.6-.38-1.78-3.68h-2.21l-2.08 2.17-1.76-.53-1.68.88-3.2-.92-1.37.87-3.55-1.53-.42-1.87-1.91-.36.63-2.71 1.21-1.15-1.48-1-3.17-.29-.11.79-3.48-3.11-3.63-.11-1.12-3.09-1.59-.58-1.23.54-1.77-.37-1.63-1-.37-.92-1.93-.68-1.88.11-1.34-1.34-1.68.88-.52 1.92-1 1.32-1.23.54-.84 1.78-2.63.78-.38 1.6-2.43-1.12-3.16-.14-1.37.87-3.12.49-1.49-.4-6.15-.47-1.76-.53-2.09-.17-1.87.42h-3.15l-3 4.58-.76.52-.67 2.09.62 2.64 2 5.24 2.39 3.33 1.09-.22 1.35 1.21 1.73 2.74-1.54.56 1.51 4.32.16 2.83-2.23 5.17.09 1.57 2.43-1.56.67.75h2.52l-1.42 2.76 3 2-1 1.95 1.31.87 1 1.67 1.14.72-.66 2.24.69 1.06 2-.59.81.43-.16 2.69 1.2 1.66-1.08.38.13 2.36-3.26.82 1 .89.26 1.72-1.18 1.33 1.48 1.18.15 2.37-2.39 2.36.27 2-1.18 1.33.26 1.88-2.47.93 2 4-.56 1.29.38 1.08h2.52l.68.91 2.9 1.1v.79l4.84 1.16 1.61.7 2.15 1.77.48.13 2.62 1.74 1.2 1.66 2.85 3 .39 1.24 4 5.76 1.35 3.17.06 1.1 1.83 4.46.83 3.58 1 2.94.31 2.66.09 4.41-2.62 6.61-.85 1.62.65.44-.83 1.94-3.18 5.06-1 2.42-3.27 3.49-2.06 2.64L492.1 83l-.71 1.3-5 3.12-1.79 1.68 2 1.78.2.78 1.8 4 1.61.7.06 1.1 1.59.22 1.3.71 2.31 4.59-.06 1.74.69 1.06-.08 1.42 1.78.84-1.8 1.33 1.61.7.86 1.21 1.29 3.23-.36 2.49 1.72 2.58 1.45.55.56 1.54.29 2.35 2.31 1.92 1.45.55.92 2.31-.39 1.44.72 1.53-.22 1.74-1.21 1.38-.07 1.58-1.37.87 1 1.83-1.81 1.36 1.54 2.12 1.76.53.61 2.49-.7 1.61-1.61-.54-1.81-1.31-1.38.71-.27-2-1.27-.24-1 1.79-.91.68.72 1.53 2.25 9.17.18.46 13.61 56.41 1.2 4.5-.34 2.38.34-2.38-1.2-4.5L503 157.49l-2.78-1.73-.69-1.06-4.84-2.09-3.32-.13-1.5 1.35-1.26 2.75-.66-.59 1.28-2.44 1.51-1.19-.6-2.17-1.15-.88-1.59-3.06-2.64-2.06-1.93-.68-1-1.52-2.07-.35-3-.93-1.83-1.79-2.64.62 1.63-1.83-.47-2.65-1.95-1-1.51-1.65-1.45-.55-1.22-2.14-1.65-1.32-2.42-1-.47-2.65.19-2.22 1-1.32-.94-2.62-1.44-3.23.24-4.11-2.3-4.44-1.8-1.16-.87-1.37-.48-3 .41-3.8.18-5.05-.84-.9-.79-2.79L453 87.4h-2.52l-1.38.71-1.48-1.18-1.27-.09-2 .74-3 .17-3-.14-1.76-.53-1.51 1.19-1.58-.07-4 1.8-3.8-.26-1.88.11-.53-1.07-3.34-.6-3-2.67-2.73-.95-4.29-.56-6.76-2.45-.78.2-4.13-.55-1.93-.68-1.65-1.32-4.75-6-3.7-1.36-2.31-1.76-1.61-.7-1-1-2.61-1.58-12.5 18.29-12.66 18.36-18.89 27.85-1.32 1.7-14.61 17.21M671 79.87l16.44-7.24L705.57 64l12-5.88 12.87-6.4 9.79-5.13-9.79 5.13-12.87 6.4-12 5.88-18.1 8.59L671 79.87zm-9.27-10.66l4.69-3.42 2.71.63-2.71-.63-4.69 3.42-.26 1 .42 1.87 2.06 3-.22 1.75.55 1.39 1.34 1.34-.91.68 1.29 2.28-1.37.87 1.4 2.44 1.16 1-.07 1.58-1.45 2.13-.65-.4.65.4 1.45-2.13.07-1.58-1.16-1-1.4-2.44 1.37-.87-1.23-2.29.91-.68-1.34-1.34-.55-1.39.22-1.74-2.06-3-.42-1.87zm6.43 5l-2.33.61 2.33-.61zM659 90l1.12.25.71-1.3L663 89h-2.21l-.71 1.3L659 90l-1.71.41zm-4.77-.83l1.42.08-1.42-.08zm-12.6-2.75l1.37 2.13-1.06.69 1.06-.69-1.38-2.13 3.21 1.08zm-2.92-51.22l.65.32.55 1.39-.55-1.39zm14.8 52.53l-1-.51-2.46 1.09 2.46-1.09zm-7.42-52.91l1.16 1zm.89-12l1.43.23zm-2-2.72l3.73-.84-3.73.84zm-1.78-3.68l1.12.25-1.12-.25zm4.8 71.06l1.26-.07-1.26.07-1.34 1.52-1.27-.09 1.26.09zM637.12 10l1.54-.56 2-.12 1.6.38-1.6-.38-2 .12-1.54.56zm-.35-3.29l-1.55.4zM614.09 62l2.43 1.11zm2.27-15.42l-2.58-1.11 2.58 1.11zm-.33-3l1.33 1.18zm1.89 22.1l2.24.66zm4.08 2.49l3.45-.2zM620.22-24l-1.87.42zm-1.95-9.34l1-1.32-1 1.32zm12.18 114.3l-3.45-.47 3.49.43 1.94 1zm4.63-7.19l-.66 2.23-.77.36.62 2.64-.89 1 .53 1.07-.91 1.12.88-1.15-.5-1.04.89-1-.62-2.64.77-.36zm-6.73-93.34zm2.19 60.68l-1.8-1.16-1-1.2 1 1.2zM625-20.69l-1.71.41zM615.7-37l.83-1.94 1.22-.7.71-1.3 1.42.08 1.8 1.16-1.8-1.16-1.41-.14-.71 1.3-1.22.7-.84 2-1.58-.07zm7.3 75.5l-5.22-3.17zm-12-80.29l-1.41-.21zm-2.41 1.87l-.81-.43zm.26 1.72l1.61.54 2.46-1.09-2.46 1.08-1.61-.54-.89 1zm3.5 80.77l-.22-1.09zm-10.08-91.26l2.91 1.25 1.75-2.46-1.75 2.46-2.91-1.25zm-.75-7.68l-1.72.26 1.72-.26zm-.82-3.42l-1.76-.53zM590.17 236.8l.28 4.87zM-111.16-68.41l-2.5 3.14 2.5-3.14zm0-.19l.08-.76zm29.66 31.42l1.62-2zm3.44 10.67l.55-1.45zm7.11 42l1.79-1.83-1.79 1.83zm2.32 7.59l.43-.81zM-70 20.3l1.73-2.78zm378.34 653.28l1 .73.52-1.92-.84-3.73 1.62-2-1.3-.71-.39-1.24.49-2.55-.74-1.85.51-2.08 2.1 1 .86-1.47 1.06-.69.61 2.49-1.95 4.52.23 1.25-.95 2.73-.34 2.38-1.53 6.39-1.94-.83-.41-1.71zm-65.71-744.8l.08 4.09-.1 3.79-.8 77.34.79-77.39.1-3.79-.08-4.09-8.28-1.73zM209-78.44l4.31.94-4.31-.94-5.43-1.36zm-41.19-23.49l.5.44 8.1 12.3 1 1.36 2 1.46 1.94.83 10.87 2.82-10.87-2.82-1.94-.83-2-1.46-1-1.36-8.1-12.3-.5-.44zM86.62 182.29l-.65-.38zm.27 18.57L89 202l-2.11-1.14zm-1.25-19.15l-1.23.54zm-7.05-10.47l-1-.26zM37.78-11.52L47-9.37l9.1 2.16 6.7 1.44-6.7-1.44L47-9.37l-9.26-2.15-9.11-2.32zm33 167.61H70l-1.49 1.5-.81-.43.81.43 1.49-1.5zm-6.73-7.49l-2.54-.33zm-3.48-5.79l-1.45-.55zm-2.31-1.92l-1.18 1.48-1.72.26 1.72-.26 1.18-1.48zM53.83 132l-1.09.22 1.09-.22zm-4.34-7l-.49 1.62.54-1.61 1.64 1.17zm2 148.75l-.54.66-1.47 3.23 1.47-3.23zm-3.71 5.88l-.51 2.08.51-2.08zm-4.68 18.08l-.22-1.09L44 295l-.89-1.84-2.57-1 .44-3.33-.44 3.33 2.57 1L44 295l-1.17 1.64zm-.59-10.36l1.88-2.94zM27.18-23.52l-1.78-.84 1.78.84zm-12.12-11l3.41 1.85 1.85-.74 2.7.48 1-1.79 2.26 1-2.26-1-1 1.79-2.7-.48-1.85.74-3.41-1.85zm-3.66-.58l1.53-.72 1.27.09-1.27-.09-1.53.72-3-.14zm-4-1.19l-1.68.88-2-1.31 2 1.31zm-3.8-5.93l1.27.24zm-1.69-10.1L4-52l1.19 1.51L4-52l-2.07-.35L-1-56.88zm-4.09-8.27l.94-.05-.94.05zM18.9 257.19l3.18.61-3.18-.61-3.16-.14zm-3.77.26l-.46.3-3.67-.12-2.5.29 2.5-.29 3.63.11zM-6.66-67.21l-1-1.27-1.26.07 1.26-.07zm-1.51-9.9l1 1-1-1zm-3.23-31.79l1.49 1.33zm3.48 8.62l1 .26-1-.26zm3 33.07l1.28.4-1.28-.4-1.08.85zm-2.45-21l-1.95-1zm-6-66.29l1 .1-1-.1-1.63 1.38-1.61-.54 1.61.54zm-7.9 24.55l1.95 1zM1.45 257.81l-3.27.72-1.76-.53 1.76.53zm.62-.14l1.78.84 3.16.14.77-.39-.77.39-3.16-.14-1.78-.84zm-19.53-384.5l-1.35-1.53zm-1.32-9.38l1.33 1.18zm4.58 16.75l-1.88.26-.51-.71.51.71 1.88-.26.9-.84zm-2.59-3.95l1.16 1zm1.48-32.06l-1.61-.54-3 .64-1.47-.86 1.47.86 3-.64 1.61.54zm-5-8.22l1.79 1zM-30-198.1l.67.72-.67-.72zm-3.32 13.58l6.77 2.76 9.68 4-9.68-4zm101.74 415.1l.17.94zm1.53 4.8l-.91.68zm-.26-1.88l.2 1.41zm.39 4.07l-1.05.85zm3.09 4.55l.56 1.54zm6.29 30.2l-.56-1.54 2.42-1.71-.1-1.73-.7-1.34 1-2.42-.08-1.41 2.1-4.53.52-1.92-.52 1.92-2.1 4.53.08 1.41-1 2.42.71 1.38.1 1.73-2.42 1.71.56 1.54-1 2.26zm-2.17-21.46l.08-1.42-.08 1.42zM88.3 281l-.3-5.22.3 5.22zm2.1 3.66l.77 2.48-.72 1.14.72-1.14zm3.52 6.34l1.43 3.07.2 3.45-.2-3.45zm-43.4 159l-.75-2.16zm-.24 9.62l-.65-3.11zm-7.15 34.9l1.4-.24 1.78-2 .91-3.36.27-3.48 2-1.69.71-1.3 2.14-1.07 2-1.22-2 1.22-2.14 1.07-.71 1.3-2 1.69-.27 3.56-.91 3.36-1.78 2zm179 92.67l-1.53.72-1.92 2.16-.7 1.46-2.57-1-1.1.06-1.64-1.17-1-1.2-2.08-.51-1.64-1.17-.2-.78-2.23-.35-2.1-1-3.2-3.6-1.27-.24-3-2.51-.44-2.18-1.74-2.89-.26-1.72.46-3L193 567l-1.6-3.22-.44-2.18-1.96-2.36-1.13-.57-2.17-2.08-2.09-.83-3-2.82-.39-1.4-2.79-2-1.38-2.13-2-2.09-2.58-1.11-1.72-2.58-.94-2.62-2.26-1-1.33-1.18-.82-3.26.82 3.26 1.33 1.18 2.26 1 .94 2.62 1.72 2.58 2.58 1.11 2 2.09 1.38 2.13 2.79 2 .39 1.4 3 2.82 2.09.83 2.17 2.08 1.13.57 1.87 2.41.44 2.18L193 567l1 1.36-.46 3 .26 1.72 1.74 2.89.44 2.18 3 2.51 1.27.24 3.2 3.6 2.1 1 2.23.35.2.78 1.64 1.17 2.08.51 1 1.2 1.64 1.17 1.1-.06 2.57 1 .7-1.46 1.92-2.16 1.53-.72zm-104-292L119 298zM276.9 492l.09-1.26zm20.28-155.68l-2.37-.18 2.37.18zm256.48 111.27l.76 2.32-.76-2.32zm.3 43.93l3.57 1.84-3.53-1.84zm-.57 34.21l3.35.75-3.35-.75zm-2.82-41.27l-4-1.35zm-1.43 46.87l.94 2.62 1 .73-1-.73-.94-2.62zM543.06 480l1.61.54-1.61-.54zm-2.4-3.33l2.13 1.45-2.13-1.45-2.57-.8zm-8.79-49.28l2.21-2.65-2.21 2.65zm2.89 45.2l2.12 1.3-2.12-1.3-3.55-1.53zm-8.91-40.29l2.58-1.72 1.93.68.74-.83-.74.83-1.93-.68-2.58 1.72zm-5.9-208.85l1 3.41-1-3.41zm-55.71 25.85l-1.2 1zm4.2 10.16l1.38-.71-2.3-1.6.09-1.11-3-.62.58-.82-.74-1.85 1.57-.09 2.51-.14 2.86.47.92-.37 4.91.51 3.45-.2 3.4-1.14.51.6 3.23-1.29 1.13.57 4.09-.08 5.93-1-.55 1.45 4.57.05 4.68-.74 3.06 1.24.9 2 2 1.46 2.11 1.14.25 1.56 1.5 1.49 2.13-1.38 1.48 1.18-.83 1.94 1.95 1-.38 1.6 2.17 1.82 1.27.09 1.91 3-1.73.1-1.35-1.5-1.81 1.36.22 1.09 1.78.84.33 3-.87 1.31-1.92-.52-2.84-.15-2.09-.67-1-1.52-1.55.4-1.92 2.16.18-2.37-.84-.9-1.25.23-.12-2-1.71.41-2-1.46-1.07-2.14-.26-1.88-3.89.85.39 1.24 2.31 1.92.53 1.07 1.1-.06.25 1.56 1.33 1.18.8 2.95-.79 2.72-.09 1.11-1.05.85-1 1.95-.13 3.32-.7 1.46.93 2.47.9 4.67 1 2.94V300l-1.43 2.6-1.51 1.19-1.43 2.6-3.19 2.07-.1 3.79.34 3.13-.7 1.46-.76.52.83.74 2.35-.29.32 2.82-2.3 1.08-2 .43-2.37-.18-1.52 1 .28-.65 1.8-1.52-.33-3 .39-1.44 1.18-1.48 1.13.41.27 2 .76-.52.7-1.46-.34-3.13.1-3.79-1-1.36-1.44-3.02-1-2.94-.71-1.38-1.86-4.94-1-1.83-2-1.62-1.6-.38-2 1.37-2.11 1.22-1.12 2.43-.77 3-.8-.27-1.44 2.44-3.19-.76-.52-.76-.32-2.82.81-2.41 1.71-.41 1-1.32.1-3.79 2.12-1.54.07-1.58-.69-3.9.08-1.42-1.3-3.39-2-1.46.08-1.42 1.68-.88-.53-1.07-1.27-1.17.11-.79-1.8-1.16h-2.21l-2.4-.65-1.46-.7-1.88.26-2.18-2.24-1.27-.24-1.72.26-4.49-1.48-2 1.53-1.3 2.12v2.05l1.34 1.34-.09 1.11-1.55.4-2 1.37-.53 1.76.76 2.32-.14 3.16-1.48-1-.28 3.32-1-.42.4-4-.55-1.39-1.79 1.83-.82 2.25-1.13-.41-1.5 1.35v3.31l-1.54.56-.43.81.74 1.85.21 3.77-1.18 4.16-1.17 1.64 1.22 2.14.65 3.11-.84 1.78-.08 1.42.71 1.38 4.36 7.47 1.09 2.46.89 4.52-.06 4.41-.71 4.14-1.11 2.58-1.05 3.68-1.13 2.27-1.49 1.5 7.65-1.22 19.81-3.49-19.81 3.49-7.65 1.22-2.27 1.7-3.37 1.61-1.9-.21-1.48-1.18 6.22 42.81-1 1.32.57 1.7-.73 1 1.41 2.6-1.41-2.6.73-1-.57-1.7 1-1.32-6.22-42.81-1-.89-1.42-2.75-.93-2.47-1-.57-1.25-2.61-.38-3.92-.48-3v-3l-1-1-.24-1.4-.87-1.37.09-1.11-1-2.94.88-3.83-.13-2.2.81-2.41-.74-2-.11-1.88.6-3.34 1.59-2.45-1-1.67.25-4 1.08-3.21.19-2.22-1.8-1.16-2.42 1.71-1.09 3.05-1.5 1.35-1.69.73.45-3.18 1.24-3.06.09-1.11 2.13-1.38.21-1.9-1.8-1.16-.06-1.1.5-2.23-.5 2.23.06 1.1 1.8 1.16.38-1.6 2.1-4.69.5-2.23 1-2.57.91-.68.19-2.22 1 .42.25 1.56 1.53-.72 1.1-2.74 1.64 1.17-.66 2.24 1.12.25 1-2.26 1.67-1 1.09-3.05 2.17-.6 5.29-1.09 1.12-2.43 2.49-.61 4.3.86 3 2.19 1.27.24-.26-1.88.52-1.92 2.69.16zM492.2 389l-1.59-.22-2.61-3.61-1.95-1 1.95 1 2.57 3.63zm-8.73-3.91l-1.32-1zm-6.47 8.27l-1.14-.72zm-9.72 14.73l-2.22-.19-1.46-.7-.39-1.24.39 1.24 1.46.7zm-9.9 3.24l-1.35-1.5zm-4.56 2.67l-5.31-1.9zm-29.05 18.19l-1.22.7 1.22-.7 1.95 1zm1 8.61l-1.63-1zm0-9l1.57-2.92 2-.59 4.17 1.34 2.23.5.53-1.76-.53 1.76-2.23-.5-4.17-1.34-2 .59zm-8.91-163.5l1 .57.92 2.31-.92-2.31zm5.6 4.25l-1.64-1.17 1.64 1.17.37 3.76-.67 2.09.67-2.09zM434 424l4.78-1.85.57-1-.57 1zm3.82-4.79l1.13-2.27-1.13 2.27zm1.23-3.22l-.57-4.54 1.3-2.12-1.3 2.12.57 4.54 1.42.08zm2.57 20.17l1 3.41-1-3.41zm-.67-22.8l1.46.7zm.58-9.17l-1 2.1-1.39.55-.37 1.75.37-1.75 1.39-.55 1-2.1-.19-.62 1.5-1.35v-2.52l.91-.68.38-1.6-1-1.83.06-1.74-.06 1.74 1 1.83-.38 1.6-.91.68v2.52l-1.5 1.35zm2.58 9.3l1.13.57-1.13-.57zM387 232.29l1.35 1.5-1.35-1.5zm-9.68-1.18l.91 2.15-.91-2.15zm-11.2 1.89l1 1.52 1.47.86-1.47-.86-1-1.52zm-3.75-2.31l1.21 1.82-1.21-1.82zm0 31l.92-.37 1.16-1.8.12-.64 3.44-3.19 3.27-3.49 5.41-7.4 2.53-2.66 3-2.06 5.21-2.5 5.74-4.26 1.61-2.14 1.23-.54 1-4.15-.43-2 .74-.83 3.82-2.11-.11 3.63 1.72-.26.63-2.71v-1.89l.61-.35-.16-2.83 1.18-1.48 1 .1.73 1.69-.9 3.52 2.76-1.26.83-1.94-.41-1.71-1.29-.56-1.09-2.62 3.13-.34 1 .57 3.49.43 1.62.85.92-.37 2.27 1.13 3.1-.81 2.53.17 1.19-1.17 2.1 1 1.21-.86 2.86 3.15.95 2.78 2.69 4.59 3.31 2.8 1.44.39 4.08-.23 1.53-.87 4.35-1 1.15.88-.87 1.31.53 1.07-.85 1.62.11 1.88 1.66 1.48 2.74 1.1 2 1.93-1.23 3.22-.14 3 1.44.39 3-.33 1 .73-.25 1.12-1.86.58 1.85 2.1-1.15 2-.25 1.12 1.49 1.33.72-1.14-.72 1.14-.74.83-1.33-1.18-2.14 1.07-3-.77v-3.62l-.52-.76-2 .27-3.64 2.41-4.4.25-2.77 1.1-.64-.12-1.49 1.5-2.42 1.71-1.44 2.29-1.78-.84-1.52 1-1.34-1.34-1.25.23-1.83 1-1.58-.07-3.7-4-.69-1.06-2.27-1.13h-5.51l-1.62 2-1.25.23.17-2.53-1.56-2.43-1.27-.24-.87-1.37-2.38 2.45-.69 1.77-2 .59-1 1.48-2 1.53-5 1.23-2.52 2.82-4.58 2.62.19.62-.19-.62-2.06-.2-2.27-1.13L380 261l.1-3.79 1-1.95-1.16-1-1.55.4-1.79 1.83-1.27-.24-2.26 1.86-4.45 2.14-2.18.44-2-1.15-1.16 1.8-.92.37zm56.73 185.8l1.35 1.66-1.35-1.66zm-2.8-27.09l1.44.39zm3.5 25.48l.86 1.21zm.6-3.34l.75 2.16zm-28.61-106.9l2.78 1.73 1.08 2.3 3.42 2 .72 1.53-.72-1.53-3.42-2-1.08-2.3zm4.4 57.88l-3.58-2 3.58 2zm-7.49-131.87l1.74 2.89zm13.67 137.68l3.69 1.21 1 .73-1-.73-3.69-1.21-1.94 1.84zm6.63 16.8l2.88.78 3.09 1.71-3.09-1.71-2.88-.78-3.8-3.09zm-17.23-26l-3.94-2.77zm-8.16-65.85l.81-2.41zm6.32 36.34l-1.3-.71 1.3.71.86 1.21zm-33.64-131.46l2.11 3.84-2.11-3.82zm-1.66-1.48l-.53 1.76zm1.87 52.19l1-1.32 1-2.57 4.11-2.44.72-1.14-.72 1.14-4.13 2.46-1 2.57-1 1.32zm2.31 7.43l-.24 4.11.24-4.11.95-2.73zm.55 6.9l-.46 3zm-8.89-67.7l1.13.57-1.13-.57zm-11 .63l1.54 2.12-1.54-2.12zm-5.41-1.13l1 1-1-1zm-9-11.3l2 1.15.28 2.19 1.52 4.64.12 2 1.65 1.32-1.65-1.32-.12-2-1.52-4.64-.28-2.19-2-1.15zm-32.81-344.04l1.2-1 .53 1.07-1.11-.09-1 1.16-2.18-1.8-.57-1.7zM308 288.93l1.59.22-1.59-.22zm4.3 213.83l.24-1.27zm-.67-161.26l-1.18-1.35-.38-1.08-1.12-.25-.84-.9-3.66-.74-2.45-1.6 2.45 1.59 3.66.74.84.9 1.12.25.38 1.08 1.18 1.35 1.74.22zm13.48 34.83l1 1.36 1.12 3.09 3.38 4.06-.09 1.27 1.46.7 1.83 1.63 1.77.69-1.77-.69-1.81-1.64-1.46-.7.09-1.27-3.38-4.06-1.12-3.09-1-1.36zm3.75 65.79l16.96-1.12-2.82-38.75-3.08-1.56-1.41-2.6-2.84-2.83.65-2.4 2-3.11-1.82-1.47 1.82 1.47-2 3.11-.65 2.4 2.84 2.83 1.41 2.6 3.08 1.56 2.82 38.75zm78.49 83.74l-.24 1.27-.91.68-1.3 2.12-1.23.54-.82 2.25-.14 3.16-1.33 1.49.72 1.53-.49 2.39-1.4.24.55 1.39-.25 1.12 1 1.52-1.19 1.17 1.19-1.17-1-1.52.25-1.12-.55-1.39 1.4-.24.49-2.39-.72-1.53 1.33-1.49.14-3.16.82-2.25 1.23-.54 1.3-2.12.91-.68.24-1.27 1.92-5-3.09-1.71-.26-1.88-1-1.2-.08-4.25.87-1.31L404 509l-.11-1.88.75-.67-.28-2.19-1.31-.87.72-1.14-.11-1.88-1.47-.86.68-1.93-.7-1.22 1.92-2.16v-2.21l-.85-1.05.85 1.05v2.21l-1.92 2.16.7 1.22-.68 1.93 1.47.86.11 1.88-.72 1.14 1.31.87.28 2.19-.75.67.11 1.88 1.66 1.48-.87 1.31.08 4.25 1 1.2.26 1.88 3.09 1.71zm-2.49-38.14l1.16 1-.25 1.12.25-1.12zm4.35-9.38l.54 1.23v2.68l-3.14 3-.55 1.45.55-1.45 3.14-3v-2.68l-.54-1.23.52-1.92zm1.91-2.47l-.23-1.25.23 1.25zm-1.44-22.44l.23-1.43 1.59-2.45 1.92-2.16-.08-1.41-1.7-2.27-13 1.53-12.05 1.32-16.14 1.55-16 1.38-8.16.62 8.16-.62 16-1.38 16.14-1.55 12.05-1.32 13-1.53 1.7 2.27.08 1.41-1.92 2.16-1.57 2.45-.23 1.43 9.53-1.33.51-2.08-.51 2.08 1 1.36-1-1.36zm9.86 1.64l-.71-1.38zm-2.87 2.21l.55 1.39.11 1.88-.11-1.88zm-.71 4.14l.06 1.1-.06-1.1zm-.29 6l-.56-1.54-.12-2 .12 2zm-1.18 1.33l-.55 1.45.55-1.45zm93.17 67.79l-1-.57-.92-2.31-1.2-1.66-15 2.59-9.84 1.51-15.61 2.46 15.61-2.46 9.84-1.51 15-2.59-.56-1.54.56 1.54 1.2 1.66.92 2.31 1 .57zM496.78 500l1.26 2.76zm3.33 11.47l1.9-2.63-1.9 2.63.29 2.35-.75 3.51 1.08 2.3 1.42 2.75-.19 4.89.56 1.54-.56-1.54.19-4.89-1.42-2.75-1.08-2.3.75-3.51zm.31-5.69l.27 2zm1.21-48l-15.43 2.93-3.43.67 1.33 4 3 8.49 8.1 23.32.91 2.15-.91-2.15-8.1-23.32-3-8.49-1.33-4-16.7 2.68-11.73 1.46-10 1.36.17.31-16.1 2.18-15.49 1.83.55 1.39-1 1.32 1-1.32-.55-1.39 15.49-1.83 16.1-2.18-.17-.31 10-1.36 11.73-1.46 16.7-2.68 3.43-.67 15.43-2.93 17.75-3.69zm-7.89-69.33l1.59.22 2.47 1.91-2.47-1.91zm7.92 64.45l2.49-.61.58-.82-.58.82zm19.15-17.79l1.81-1.36 1 1.36 1.22-.7-1.22.7-1-1.36-1.81 1.36zm-1.35 1.18l1 .26-1-.26zm1.46 25.59l1.81 1.31 2.51-.14-2.51.14-1.81-1.31-3.38-1.23zm-12.58-16.14l3.43-.67 3.11-3.48 2.27-1.7 1.4-.24-1.4.24-2.27 1.7-3.11 3.48-3.43.67-2 1.37-1.62 2 1.62-2zm-4.59-55.66l-1.15-.88-2.39-.49 2.39.49 1.15.88zm10.62 1.13l-1.83-1.79-2.08-.51-1.41-2.6 1.41 2.6 2.08.51 1.83 1.79zm9.93 13.93l-1.15-.88-1.78-.84-6.55-7.19.52-1.92-1-3.1 1 3.1-.52 1.92 6.55 7.19 1.78.84 1.15.88zm-6.37-15.07l.46-3-.46 3zm1.4-3.07l-1-3.41 1.33-4.33.6-.51-.6.51-1.33 4.33zm4.47-7.34l-.58-4.69.54-1.61-.54 1.61zm3.81 28.34l-.87-1.37-.24-1.4.24 1.4.87 1.37zm-2.32-35.31l.82-2.25zm21.22-70l-1.36 1-.95 2.73-2.39 2.34-1 1.79-3.27 3.45-1.54 1-5.53 5.2-1.82 1.21 5.61 23.78 3.77 16.48-3.77-16.48-2 1.53 1.53 2-.09 1.11.71 1.38-.55 1.45-.26 3.8.29 2.35-.63 2.71.17 3-2.07 2.32-.7 1.61-1 1.32 1-1.32.7-1.61 2.07-2.32-.17-3 .63-2.71-.29-2.35.26-3.8.55-1.45-.71-1.38.09-1.11-1.53-2 2-1.53-5.61-23.78-6.07 4-3.92 3.06-3.52 4.61-2.61 1.25h-2.21l-2.55 1.67-3.21 1.76-1.78-.84-2.82.32-1.2 1-3-3-1.74-.06-1.47-.86h-2.21l.38-1.6 1.38-3.39.61-.35.21-4.58.12-.64.44-.65-.09 1.11.34 3.13 3 .93L498 328l1.35-1.18 1.24-.39 1.14.72 1.87-3.1 3.6-3.2 1.71-.41.74-.83.51-2.08 2.63-3.62 2.09-2 1.69-.73 3.89-.85 5.85.45 2-.59h3.46v-.63l-4.54.57-.19-.62 2.18-3.27 4.46-2 1.82-1.21 1.12.25 2.45-1.24 3.1-.81 1.59.22 1.51-1.19.25-1.12-1.77-.69-.73-1.69h2l.1 1.73 1.55 2.27zm-4.13-8.9l-1.53.72-1.64 1.67-2.81.47-2.06-.2-1.5-1.45 1.38-3.39-.08-1.41 1.31-1.81 1.25-.23 2.76-4.1 5.81-3.17 1.41-.08 2.58-1.72 4.62-1.84 1.21-.86 2.46-1.09 1.8 1.16 1.69-.73 2 1.15 1.57-.09 2.24-2.18-1.31-.87-1.74-.22V271l1.66 1.48 1.31-2 2-1.69 2.46-1.09 2.39-2.34 3.34-2.24 1.44-2.29.69-1.77 3.88-6.52 1.48-1.66 2.85-2.53 2-.27-2 .27-2.94 2.65-1.48 1.66-3.88 6.51-.69 1.77.52.76-2.75 4.3-1.35 1.18-1.73 2.26 1.31.87 2-.12.45 2.34-1.52 1 2.39 3.33-.32 2.7-2.17.6-2.49 3.29-.4 1.28-3.2 1.91-5 1.07-2 1.37-1.27-.09-1.94-.83-4.87.28-1.38.71-2 .27-3.84 1.64zm14.87 86.89l-1-1.52 1 1.52zm9.6-22.28l.06-1.74zm15.33 3.7l-.28-2.19.28 2.19zm28 4.86l-7.31-20.53-.39-1.24-7.75 2.17-15.67 4.2-12.57 3.39-14.14 3.48 14.14-3.48 12.57-3.39 15.67-4.2 7.75-2.17.39 1.24zm-1.9-116.46l-.55-1.39-.31-2.66-.66-.59-.64-3-16.86 5.37 16.86-5.37.64 3 .66.59.31 2.66.55 1.39 1.5 1.49zm1.62 3.53l.76 2.32-.76-2.32zm3 11l-2-4.46-.66-.59.66.59 2 4.46zm35.3-93.84l3.09-1.12-3.09 1.12zm-20.15 105.66l.34-2.38-1.06-4.82.27-.8-.27.8 1.06 4.82zm2-31l-1.59 2.15-1.53.87-.4 1.28.61 2.49-.14 5.06.26 1.88-.86 1.47.25 1.56-.35 2.07.35-2.07-.25-1.56.86-1.47-.26-1.88.18-5.05-.61-2.49.4-1.28 1.53-.87 1.61-2.14.61-3.18zm5.24-18.57l-1.57.09-1.52 1-.41 1.13h-2.05l-.87 1.31-.06 4.41.59 2-.6 3.34.6-3.34-.59-2 .06-4.41.87-1.31h2.05l.41-1.13 1.52-1 1.57-.09zm.44-3.33l-1 1.79 1-1.79zm2.18-6l-1.76 2.31-.69 1.77.69-1.77 1.76-2.31zm-1-6.24l.39-1.44zm.7-7.13l-.85 1.62-.3 3 .3-3 .85-1.62zm10.26 58.49l-2.79-1.89 2.79 1.89zm-3.65-77.92l-.75-2.16h-2.21l-.44.5-4.13 16 4.13-16 .44-.5h2.21l.75 2.16 3-2.53 2.08-2.17-2.08 2.17zm7.86-3.12l-1.85.74-.87 1.31-1.22.7-1.49 1.5 1.49-1.5 1.22-.7.87-1.31 1.85-.74.54-1.61zm8.5-14l-3.65-.42-.38-1.08-5.86 2.22 5.86-2.22.38 1.08 3.65.42zm4.11-2.6l-1.42-.08-1.27 1.36-1.4.39 1.4-.39 1.34-1.34 1.42.08zm7.3 42.43l-2.88-.78-.06-1.1 3.39 1.38 2-.43zm6.5 6.25l1-1.16z" clip-path="polygon(98.91% 79.55%,98.18% 28.15%,32.88% 28.33%,32.72% 79.31%)"/><path class="prefix__svg-item" d="M759.75 160.82l.24-1.27-1-1.04h-2.84l-.9.68-2.7-.32-.83 1.94-.62 3.03.7 1.22-1.3 2.12 1.15.72 2.81-3.15-1.94 4.68.4 1.39-2.8.64-.71 1.45-1.31-1.03 1.18-1.32-.57-1.7 1.51-1.19.13-3.16.73-1.14.89-3.68-1.62-.85-.13-5.03-1.5-4.17-2.51.14-.88-1.52-1.42-.08-.4 4.12-.71 1.3.08 6.93-.38 1.59-.15 3-1.27 2.6-.03 2.2 1.71 2.27 1.88 2.73 2.47 1.75 1.19-1.17 1.27.24 1.02-1.48 3.08-1.27.49.28 3.29-3.02 1.31-1.97.09-1.1 1.03-1.32-1.15-.88 1.67-1.04.85-1.63-.22-1.24-1.28-.25z"/><path class="prefix__svg-item" d="M747.5 180.9l.08-1.43 1.19-1.16-.06-1.1-1.27-.25-2.76-1.42-1.22.71-.08 1.26-2.35.29-1.6-.38-1.74-2.89-2.56 4.87-1.04 1-.7 1.62-1.45-.55-2.7-.48-4.01 1.49-1.19 1.33-3.63-.11-.21-.93-1.84.73-.75.83-1.88.11-1.8-1.16-1.7.57-1.2 1.01-.48 2.71-.87 1.31-.06 1.74-1.53 3.55-1.6 2.29-.32 2.7 2.8-.63.09-1.27 1.04-1 2.51-.14.74-.99 2.75-1.42 1.71-.41 4-1.65 2.08.52-2.92 1.27-1.03 1.31-3.01 2.54-.49 2.39-2.25-.82-.76-2.16-1.27 2.43-2.11 1.7-1.48 1.66-2.77 3.94-.26.96-4.79 7.2-1.27 2.59 1.42.08-1.41 2.92-.35 2.06.43 2.03-.02 2.52 1.5 1.33.58 2.01 1.55 2.28 2.01-.74.06-1.58 2.79 1.89.57 1.7 1.93.67 2.27-1.54 1.01-1.64-.58-2.01 1.1.09 1.48-1.81.94-.06.94-2.88.75-.52-.72-1.69 1.49-1.5-.23-1.25.9-.68.8-5.4-1.07-2.15.99-1.94 1.06-.85.21-1.75 1.57-.24.88 1.68 1.53-.72 1.45.55 1.82-1.21.12-.79-1.86-2.1 2.23.34-.22-1.09 1.7-.57.26-.96 2.45-1.24.87-1.31 1.1-.06-.08-1.41 1.67-1.04.86-1.63 1.23-.38.25-1.28 3.59-3.19-.04-.79 1.53-.72.39-1.59 2-.75.4-1.28 1.97-1.37.23-1.43 3.08-1.28.51-2.08-2.34.29-3.53 1.78zM751.7 174.36l-1.81 1.36.82.58 1.39-.55-.4-1.39zM740.57 14.79l-1.55.41-.39 1.44 2.34-.3-.4-1.55zM792.63 68.69l.54-1.44-1.3-.72-.93.21-.82 2.25.86 1.21 1.65-1.51zM706.93 5.05l.28-.8-.88-1.53-2.27 1.7 1.49 1.18 1.38-.55z"/><path class="prefix__svg-item" d="M831.34 106.81l-1.19-4.34-.85-1.05-1.16-3.87.43-.66-.53-3.75-1.11-.25-.56-1.54-.79.04-.71-1.38-1.25.07.97 3.26-.09 1.11-.92 3.2-2.94-1.73.04-2.04-.84-.9.17-2.53-.53-1.07.23-4.27-1.26.07-.05 1.74-1.22.85-.85 1.63.15 2.67-.14 3 .83.74.03 3.3-4.16-1.18.17-2.53-.53-3.75-1.3-.71-2.45 1.24-1.17-1.19 1.8-1.52 1.41-.24.37-1.75 1.31-1.81-.39-1.4 1.84-.89.67-2.08-.81-3.11-.99-.73-1.03 1.16-.17 2.53-1.79-1-.77.36.34 3.29-3.46.04-1.54.56 1.26-2.75-.98-.58-.82 2.26-1.49-1.34.59-.66-2.02-2.41 1.04-1-.22-1.09 1.31-1.97-.25-1.56.02-2.52-3.5-.59-4.87.28-1.76 2.31-2.11 1.69-.39-1.39-1.44-.39-.21 4.58-3.03 2.21-1.65 1.52-.91-2.16.22-1.74-1-1.05-3.89 3.69.1 1.73-5.15-1.92.23-1.43-.66-.59.2-1.9.74-.83.67-2.09-.54-1.23-1.17 1.49-5.08-.66-1.45-.54-.78 2.87.18 3.14-.62.2-.68 4.76-2.39-.49.58-.98-.48-2.81-.86-1.21.72-3.98-.51-3.44.48-2.7-.1-1.73.37-1.75-.24-1.56.37-4.43-.02-3.15-.74-2.01-1.74-.06-1.66 1.2-.62-2.49 1.68-1.04 2.35-.13-.25-1.72.76-.36-.84-3.73-1.25.23-1.77 1.99.98.58-2.14 1.22-.06-1.1-1-.89-1.42 2.76-2.91 4.1-1.58 2.77-.06 1.74.89 1.68-.59.82.57 1.7-.57.98.88 1.68-.76 3.2-1.49 1.5.99.89-.26 3.64 1.13 6.07.39 9.59 1.21 1.82-.73.99-.94 2.89.23 1.4.89 1.68 2.08.67.42 1.71-3.03 2.22-.24 1.28.61 2.48-.14 3 .91 2.16-.87 1.31-2.04.11-.85-1.05-1.55 3.24.25 1.56 1.49-1.51 2.59-1.56 1.19-1.17 2.35-.29.37 1.08-.98 2.1.07 1.26-1.47 4.65-1.87 3.1-.6 3.19 2.27 1.28.93 2.47 2.67-.15 1.8-1.68 1.68-.88 1.78-1.84 2.88-2.05.94-.05 1.02-1.48 3.12-.65 1.22-.7 1.74.22.42-.97 2.61-1.25 2.82-.16 1.36-1.03 1.89.05.77-.36.35-2.22 3.39-1.3 1.5-1.34.38-1.6 1.3-2.12 1.3.71 1.33 1.35-1.45 2.13 3.6-.37 1.01-1.63.83.74 1.81-1.36-.42-1.87-1.28-.4.38-1.6 4.23-.39 1.66-1.36.97.58-.54 1.45-2.09 2.16-.4 1.28.78 2.64-.96 2.42.04.78-1.78 1.83-1.8 1.52-.34 2.39.84.89 1.41-.08 2.29-1.23.43-.81 2.17-.6 1.32-1.81-.28-2.03.73-1.14-.57-1.7-.15-2.51.34-2.39 1.39-.39 1.33-1.65 1.1-.06-.45-2.34.37-7.42 1.71-.26 4 3.71 1.09 2.62.73 7.36 1.28 3.08 1.7-.57 1.04-3.84.83-4.78 1.12.26-.3 3 1.32 1.03.23 1.25 1 1.05.74 1.84 1.11.25.71-1.45.22-1.59 1.4-.39 1.31.87 1.34-1.34-.24-1.41.39-1.44zM729.81 168.83l1.52-.87 1.43-2.61-1.57.09-4.91 2.33-4.55 3.1-2.92 1.26-2.08-.51-4.07.39-.76.52.59 2.01-1.09.22-1.15-.72-.25-1.72-4.19-1.65.42-.97.07-1.42-1.83-1.79-1.1 2.9.09 1.41-.7 1.62-.07 1.58.83.74 1.68-.89 2.11.99.76 2.32 2.14-1.23 1.9.21.67.75 2.58.95 5.15-.76 1-1.79 1.58.07 1.47.86.22 1.09 2.39.49 2.75-1.42-.56-1.54.75-.67-2.26-.98-.38-1.08 1.71-.41.63-2.87zM660.65 293.27l-.97 2.26 3.54-1.3-1.65-1.48-.92.52zM214.99 223.5zM398.65 572.04l-1.32 1.65 3.06 1.24.62-.19 1-1.79-3.36-.91zM652.53 291.84l.97 3.1.9-.68-1.08-2.46-.79.04zM651.72 291.42zM581 562.76l.79 2.79.73-1.15.17-2.52-1.69.88zM560.37 512.9l.64.27.8-2.56-.94.05-.5 2.24zM615.31 401.71l.83.74.57-1.14-.46.19-.32.01-.62.2zM430.11 280.72l-1.61 4.97.71 1.38 1.12.25.56-1.13.36-2.07 1.05-3.68-.12-2.2-1 1.95-1.07.53zM644.45 307.58l-.83-.74-1.18 1.33-1.23.54-1-.89 1.78-1.99-1.4.24-2.47 3.76-2.29 1.24-4.34 1.19-1.17 1.64-3.59.52-.28.65-2.43 1.71-.25 1.12-1.84.89-.76 3.19 1 1.05 1.62-1.98 1.93.52 1.64-1.51 2.45-1.25 1.49-1.5 3.69-1.63 2.56-2.03 1.55-.41 2.25-2.01 5.39-5.04-.66-.43-1.63 1.82zM641.99 305.83zM619.24 323.98l1.4-.23.07-1.58-1.41.23-.06 1.58zM672.06 230.87l-.9.69-.17 2.53.5.6 2.41-1.87-.2-.94-1.64-1.01zM401.16 234.32l.11-.95 3.05-1.75 1.03-1.16.67-2.08-1.38.71-2.25 1.86-3.34 2.23-1.04 1.16 1.18 1.36 1.97-1.38zM410.08 249.88l1.83-3.88 3.67-4.62 2.01-.75-1.31-.87-2.81.48-1.84.89-2.58 1.72-1.89 2.79.09 1.57 1.43.23 1.4 2.44zM449.31 269.39l1.11.09.59-.66-1.37-1.97-.33 2.54zM474.24 258.99l.86-1.47-1.33-1.18-1.75-.37.23 1.24-1.48 1.66 3.47.12zM406.02 228.38zM38.45 525.91l.77-.36-1.04-1.52-.9.69 1.17 1.19zM53.39 569.8l-1.51-1.65-.79.04-.98 2.11 3.28 5.01 1.7 2.27 1.67 1.63.4-1.28-1.03-1.52.3-3.01-3.03-.77.55-1.29-.56-1.54zM70.79 576.52h-2.68l-1.29 2.28-.05 1.89-1.79 1.68 3.11 2.18 1.76.38 1.79-4.52-.92-2.31.07-1.58zM21.8 587.66l-.59-2.17-.87 1.31.07 1.26-1.8 1.67 1.38 2.13 1.04-1.16.77-3.04z"/></g></svg>