<?xml version="1.0" standalone="no"?>
<!DOCTYPE svg PUBLIC "-//W3C//DTD SVG 20010904//EN"
 "http://www.w3.org/TR/2001/REC-SVG-20010904/DTD/svg10.dtd">
<svg version="1.0" xmlns="http://www.w3.org/2000/svg"
 width="260.000000pt" height="260.000000pt" viewBox="0 0 260.000000 260.000000"
 preserveAspectRatio="xMidYMid meet">
<metadata>
Created by potrace 1.11, written by Peter Selinger 2001-2013
</metadata>
<g transform="translate(0.000000,260.000000) scale(0.100000,-0.100000)"
fill="#000000" stroke="none">
<path d="M1270 2580 c-39 -5 -122 -31 -205 -64 -85 -33 -189 -65 -262 -81
-199 -42 -263 -69 -451 -191 -131 -86 -198 -149 -232 -219 -45 -91 -39 -367 8
-426 15 -17 35 -23 130 -32 104 -10 120 -9 215 12 56 12 110 25 120 27 9 3 17
1 17 -5 0 -6 -14 -14 -31 -18 -26 -7 -35 -18 -50 -58 -25 -64 -15 -89 47 -116
44 -20 45 -21 29 -40 -20 -21 -15 -64 11 -105 17 -25 19 -25 101 -19 45 4 83
4 83 0 0 -4 -17 -27 -38 -49 -27 -29 -41 -55 -46 -84 -3 -23 -11 -42 -17 -42
-6 0 -27 14 -46 31 -53 46 -80 38 -117 -34 -22 -43 -29 -70 -28 -105 4 -95 4
-128 -3 -159 -6 -26 -3 -34 18 -48 18 -11 36 -14 61 -9 27 5 36 3 36 -7 0 -24
-37 -75 -76 -107 -22 -17 -64 -51 -94 -76 -30 -25 -107 -85 -170 -133 -63 -48
-140 -114 -172 -145 -56 -57 -108 -144 -108 -181 0 -38 23 -10 42 51 25 81 84
141 249 252 68 46 146 103 173 127 27 24 70 56 95 71 61 35 67 42 76 83 6 30
84 271 89 276 1 1 2 -44 1 -100 -1 -56 4 -140 11 -187 8 -47 14 -87 14 -90 0
-3 5 2 10 10 13 20 12 77 -1 141 -8 38 -8 71 1 130 11 71 11 85 -5 125 -21 56
-16 134 12 172 26 36 104 78 128 68 15 -5 12 -10 -21 -26 -21 -11 -42 -20 -47
-20 -4 0 -19 -11 -32 -24 l-24 -24 37 -32 c20 -18 62 -46 92 -64 59 -33 95
-78 109 -135 5 -20 16 -94 24 -166 15 -127 22 -155 88 -322 l33 -83 -23 -24
c-15 -16 -23 -37 -23 -60 0 -41 25 -86 47 -86 8 0 15 -9 15 -20 0 -18 7 -20
74 -20 86 0 83 -4 87 123 2 66 -1 80 -17 92 -33 25 -51 19 -46 -15 2 -17 0
-30 -6 -30 -5 0 -13 -15 -16 -34 -8 -40 -33 -56 -38 -23 -2 15 -14 26 -38 34
l-35 11 28 7 c17 5 26 12 23 21 -3 7 2 18 10 25 8 7 12 20 9 30 -5 14 2 23 29
35 42 20 38 36 -15 66 -21 12 -39 25 -39 30 0 14 14 9 68 -29 33 -22 49 -39
41 -43 -18 -11 109 -50 164 -50 44 0 48 2 45 22 -2 19 -12 24 -56 30 -63 9
-100 28 -207 103 -76 53 -103 80 -92 92 3 3 43 -19 89 -49 101 -65 122 -75
184 -83 l49 -7 -45 30 c-25 16 -58 43 -74 61 -17 17 -36 31 -43 31 -7 0 -23 5
-36 12 -12 6 -27 14 -34 17 -63 33 -102 69 -108 101 -9 46 -31 88 -55 103 -11
6 -20 18 -20 26 0 8 24 -8 52 -36 68 -63 137 -110 190 -129 59 -21 246 -10
301 17 36 19 37 19 37 0 0 -28 -55 -70 -101 -77 -21 -4 -39 -10 -39 -14 0 -4
-8 -10 -17 -14 -10 -3 -26 -11 -35 -18 -14 -10 -24 -8 -60 12 l-42 24 37 -46
c21 -26 44 -49 52 -52 20 -7 177 51 195 73 8 9 24 50 34 89 14 55 23 72 36 72
25 0 32 -25 20 -69 -11 -40 -127 -161 -154 -161 -10 0 -13 -6 -10 -15 5 -12
-2 -15 -32 -15 -33 0 -36 -2 -24 -14 8 -7 39 -18 68 -23 42 -8 52 -8 52 3 0 9
11 14 29 14 16 0 54 11 85 25 67 30 87 31 109 7 25 -28 21 -41 -34 -110 -58
-72 -89 -81 -113 -33 -15 29 -34 41 -63 41 -22 0 -13 -17 80 -162 l82 -127 62
-1 c62 0 79 7 158 64 32 23 9 30 -37 11 -72 -29 -75 -28 -24 5 26 17 46 34 43
37 -3 3 -27 -2 -53 -11 -65 -22 -65 -21 -8 16 41 27 46 33 28 36 -12 2 -39 -4
-59 -12 -50 -21 -57 -20 -19 3 41 25 55 46 24 36 -17 -5 -21 -4 -15 6 6 9 2
10 -16 5 -13 -4 -40 -9 -59 -13 l-35 -6 35 38 35 38 -27 -7 c-31 -7 -37 4 -13
24 13 10 19 10 33 -4 24 -21 50 -20 197 4 66 11 158 20 205 20 75 0 97 -4 181
-37 l96 -38 6 -62 c8 -79 53 -171 74 -150 3 3 -2 37 -11 76 -9 38 -16 90 -16
115 l0 45 -92 29 c-152 48 -193 55 -295 50 l-95 -5 -13 31 c-36 85 -26 239 22
350 57 135 36 177 -118 242 l-90 39 3 45 c3 44 3 45 47 52 57 10 71 23 71 69
0 32 4 39 19 39 30 0 61 47 61 93 0 33 -7 48 -40 83 -47 51 -50 64 -13 64 14
0 66 8 114 17 77 15 96 15 159 3 51 -10 77 -11 88 -3 31 19 67 175 46 196 -4
3 -8 37 -11 74 -7 120 -30 161 -139 254 -59 50 -66 60 -69 97 -5 65 -25 97
-61 96 -27 -1 -33 5 -59 53 -38 73 -110 152 -160 174 -49 22 -114 25 -129 4
-14 -18 -199 -49 -204 -34 -8 21 -54 69 -88 89 -40 25 -148 34 -254 20z m251
-45 c62 -30 85 -111 52 -180 -23 -48 -10 -82 42 -109 72 -38 319 -24 356 20
20 24 -8 75 -77 140 -90 83 -83 121 16 94 53 -14 125 -81 163 -149 35 -64 29
-66 -11 -3 -40 62 -88 107 -134 126 -46 20 -48 20 -48 1 0 -8 26 -44 59 -79
67 -75 83 -119 52 -149 -10 -11 -34 -21 -52 -23 -18 -2 -35 -6 -37 -9 -9 -8
41 -6 76 4 35 11 37 9 21 -21 -19 -35 -71 -48 -221 -54 -152 -7 -207 1 -250
35 -21 18 -23 25 -20 110 3 107 -11 145 -63 167 -112 47 -356 -26 -509 -152
-119 -98 -197 -215 -281 -419 -47 -115 -89 -189 -138 -242 l-40 -43 -141 0
c-77 0 -151 3 -164 6 -12 4 -30 20 -38 36 -22 42 -30 198 -15 283 21 116 39
140 216 273 92 70 125 88 125 68 0 -8 -37 -43 -82 -77 -175 -131 -189 -154
-195 -319 -6 -132 7 -187 47 -208 17 -8 56 -12 118 -10 l93 3 38 40 c29 32 48
72 95 205 79 222 114 288 206 380 127 129 265 209 440 255 113 30 241 30 301
0z m669 -302 c0 -7 -4 -13 -10 -13 -5 0 -10 12 -10 28 0 21 2 24 10 12 5 -8
10 -21 10 -27z m-145 -30 c-4 -10 -13 -43 -21 -73 -24 -94 -46 -144 -78 -175
l-31 -30 20 30 c52 82 66 116 64 154 -2 24 4 53 16 75 20 36 43 51 30 19z
m-506 -74 c-8 -5 -5 -16 9 -37 12 -16 19 -32 16 -35 -3 -3 0 -15 6 -27 8 -15
8 -20 1 -16 -18 12 -12 -10 11 -40 19 -24 20 -27 4 -21 -10 4 -21 7 -25 7 -4
0 -13 28 -20 62 -7 34 -21 83 -31 109 l-18 48 29 -21 c19 -14 25 -24 18 -29z
m797 -131 c27 -37 40 -67 51 -121 8 -40 22 -80 31 -89 8 -10 11 -18 5 -18 -9
0 -17 -43 -28 -154 -4 -40 -18 -50 -60 -42 l-36 7 20 25 c10 13 22 46 26 72 8
63 -10 207 -33 251 -16 31 -68 74 -158 127 -18 11 -18 13 10 42 l29 31 53 -41
c29 -23 69 -64 90 -90z m-316 12 c-6 -11 -13 -20 -16 -20 -2 0 0 9 6 20 6 11
13 20 16 20 2 0 0 -9 -6 -20z m50 -46 c-18 -21 -24 -10 -8 15 7 12 14 17 16
11 2 -6 -2 -17 -8 -26z m-94 -36 c-19 -27 -21 -19 -4 18 7 14 14 21 16 15 2
-6 -4 -21 -12 -33z m-400 -29 c8 -25 8 -39 2 -39 -6 0 -7 -11 -4 -25 4 -17 2
-25 -6 -25 -24 0 -37 15 -28 30 6 8 10 37 10 64 0 55 9 54 26 -5z m364 1 l23
-20 -27 -10 c-15 -5 -28 -10 -30 -10 -1 0 -1 14 2 30 2 17 5 30 7 30 1 0 12
-9 25 -20z m-233 -200 c97 0 125 -3 137 -16 26 -26 19 -40 -21 -42 -21 -1 -62
-7 -90 -13 -42 -8 -53 -14 -53 -30 0 -11 -5 -28 -12 -38 -9 -15 -7 -39 11
-118 12 -54 25 -128 28 -164 5 -63 4 -67 -17 -74 -12 -4 -41 -2 -64 4 -22 6
-57 12 -76 13 -33 3 -35 5 -32 36 4 42 -3 41 -27 -7 -24 -47 -15 -64 51 -100
45 -24 45 -24 91 -6 26 10 63 32 83 49 32 28 35 34 25 56 -6 14 -19 74 -29
133 -18 107 -18 109 2 122 10 8 24 12 29 8 5 -3 4 -9 -3 -13 -7 -4 -9 -13 -6
-19 9 -14 43 -14 51 -1 3 6 12 10 18 10 7 0 4 -6 -5 -14 -10 -7 -15 -16 -11
-19 3 -4 1 -7 -5 -7 -7 0 -12 -4 -12 -10 0 -5 12 -10 28 -10 41 0 59 46 43
112 -15 65 -15 63 14 63 33 0 40 -24 20 -72 -13 -31 -14 -46 -4 -86 9 -37 9
-71 0 -141 -7 -50 -9 -99 -6 -108 7 -18 -9 -142 -25 -199 -6 -20 -26 -56 -46
-80 -19 -24 -49 -63 -66 -86 -58 -78 -124 -81 -283 -13 -52 23 -99 38 -105 35
-5 -3 -24 2 -42 11 -30 16 -32 16 -19 0 7 -9 31 -26 52 -38 22 -12 39 -26 39
-30 0 -10 -36 7 -45 21 -3 5 -19 9 -35 9 -16 -1 -27 -5 -23 -11 3 -5 -4 -4
-16 2 -23 13 -28 2 -8 -18 10 -11 8 -11 -10 -2 -13 6 -23 15 -23 19 0 12 -62
73 -68 68 -2 -3 1 -19 8 -36 28 -67 126 -116 171 -87 13 9 42 17 64 17 45 2
189 -33 178 -43 -10 -11 -53 -8 -53 3 0 16 -33 12 -78 -10 -55 -27 -108 -25
-168 5 -65 32 -213 165 -239 214 -11 22 -28 50 -37 63 -21 29 -36 104 -19 94
6 -4 11 -22 11 -40 0 -45 39 -79 138 -121 45 -19 82 -33 82 -32 0 1 -29 25
-65 52 -37 27 -65 56 -65 66 0 10 -5 21 -11 25 -13 8 -69 94 -69 107 0 4 5 5
10 2 6 -3 10 0 10 8 0 7 -16 21 -35 30 -42 20 -46 40 -7 36 15 -2 27 -1 27 3
0 3 8 15 19 27 23 25 32 100 17 130 -10 18 -8 28 10 59 17 27 19 33 6 23 -24
-19 -21 2 3 24 11 10 20 23 20 29 -1 13 -45 -44 -46 -59 0 -5 -10 -26 -22 -45
-13 -21 -17 -37 -11 -40 6 -4 2 -16 -10 -31 -17 -20 -20 -21 -21 -6 0 11 -6
17 -17 15 -47 -8 10 137 88 222 44 48 38 35 -24 -53 -64 -90 -42 -101 31 -16
57 67 77 100 52 84 -6 -4 -7 2 -1 17 6 18 19 25 57 30 27 4 101 19 164 33 90
19 133 24 195 20 44 -3 135 -5 202 -5z m528 -110 c-157 -20 -200 -22 -190 -12
9 10 85 17 200 19 l50 0 -60 -7z m-426 -45 c36 -42 41 -58 8 -27 -25 24 -52
27 -91 12 -32 -12 -33 -4 -4 27 30 32 51 29 87 -12z m195 -525 c40 -22 81 -49
90 -59 17 -19 17 -23 -7 -83 -48 -121 -61 -179 -62 -280 0 -64 -3 -89 -9 -75
-8 22 -8 22 -16 2 -6 -13 -9 16 -9 78 -1 58 3 97 9 97 6 0 10 6 10 14 0 8 20
62 45 120 25 59 43 111 40 116 -12 19 -70 44 -112 47 -94 9 -119 -39 -135
-267 -9 -118 -16 -164 -25 -167 -8 -3 -16 -3 -19 0 -5 4 8 106 37 307 6 41 17
87 25 102 8 15 14 41 14 58 0 26 4 30 25 30 14 0 59 -18 99 -40z m16 -170 c0
-29 -13 -75 -37 -128 -9 -20 -13 -54 -11 -83 1 -27 0 -49 -4 -49 -4 0 -9 -42
-10 -92 l-3 -93 -40 0 c-47 0 -45 -12 -26 165 7 63 16 117 20 120 13 8 39 72
46 114 11 66 22 85 44 79 15 -4 21 -13 21 -33z m-461 -136 c2 -2 -10 -4 -27
-4 -17 0 -34 4 -37 10 -5 9 53 3 64 -6z m463 -259 c9 -20 9 -20 -6 -1 -9 11
-16 27 -15 35 0 14 1 14 6 1 3 -8 10 -24 15 -35z m-192 -179 c0 -2 -7 -7 -16
-10 -8 -3 -12 -2 -9 4 6 10 25 14 25 6z"/>
<path d="M1519 2460 c22 -37 29 -124 11 -135 -17 -10 -11 -51 11 -79 25 -32
37 -28 16 6 -13 19 -14 33 -5 75 13 67 4 114 -28 144 l-26 24 21 -35z"/>
<path d="M1609 2207 c5 -5 19 -7 32 -5 20 3 19 5 -9 9 -20 3 -29 2 -23 -4z"/>
<path d="M484 1665 c-17 -22 -35 -35 -50 -35 -12 0 -26 -5 -30 -11 -5 -9 4
-10 32 -5 40 7 84 45 84 72 0 21 -6 18 -36 -21z"/>
<path d="M1285 1640 c-16 -7 -13 -9 18 -9 45 -1 48 -19 7 -43 -17 -9 -30 -22
-30 -28 0 -6 5 -8 10 -5 6 3 10 4 10 1 0 -2 -15 -14 -34 -25 -19 -12 -37 -29
-40 -38 -6 -16 -5 -16 12 0 25 23 31 21 25 -5 -3 -13 -2 -20 2 -16 4 4 21 -4
37 -17 26 -22 31 -23 44 -11 19 19 18 23 -7 29 -26 7 -17 23 16 30 19 3 25 1
21 -9 -8 -21 29 -37 44 -19 16 20 30 19 30 -1 0 -9 -9 -18 -20 -21 -11 -3 -20
-14 -20 -25 0 -28 28 -19 56 18 l24 31 -23 26 c-27 32 -76 36 -134 12 -20 -8
-38 -14 -39 -12 -2 2 11 17 29 34 22 22 46 33 80 37 28 5 47 3 47 -2 0 -6 -10
-8 -22 -5 -18 5 -14 -2 16 -26 25 -20 46 -29 57 -26 16 5 18 2 13 -24 -7 -33
9 -44 20 -15 4 10 14 14 26 11 19 -5 19 -1 14 61 -4 37 -8 69 -10 71 -2 2 -29
10 -61 17 -64 15 -187 17 -218 4z m222 -96 c-3 -3 -12 -4 -19 -1 -8 3 -5 6 6
6 11 1 17 -2 13 -5z"/>
<path d="M1234 1585 c-17 -13 -17 -14 -2 -15 9 0 20 5 23 11 11 17 0 20 -21 4z"/>
<path d="M1284 1431 c9 -17 23 -31 31 -31 20 0 19 14 -2 32 -38 32 -45 32 -29
-1z"/>
<path d="M1053 1415 c-3 -9 -3 -38 -1 -66 5 -53 32 -92 57 -85 27 8 48 -17 55
-64 5 -33 4 -41 -3 -30 -9 12 -11 10 -11 -12 0 -46 18 -41 25 7 8 50 -1 115
-15 115 -6 0 -10 5 -10 11 0 14 -47 59 -61 59 -5 0 -9 18 -9 40 0 40 -15 54
-27 25z"/>
<path d="M1548 1324 c-9 -8 9 -34 23 -34 5 0 9 5 9 11 0 5 -4 8 -9 4 -5 -3
-11 2 -13 11 -2 9 -6 12 -10 8z"/>
<path d="M1503 1075 c-56 -9 -94 -27 -82 -39 2 -2 24 0 49 4 64 13 249 12 230
0 -8 -5 -27 -10 -42 -10 -15 0 -30 -4 -33 -10 -8 -13 20 -13 68 1 21 5 35 14
32 20 -4 5 8 9 24 9 35 0 41 14 13 29 -23 12 -175 10 -259 -4z"/>
<path d="M1176 1060 c8 -29 23 -50 36 -50 10 0 -2 24 -27 55 -16 20 -16 19 -9
-5z"/>
<path d="M1506 1019 c7 -11 51 -12 58 -1 3 4 -11 9 -30 9 -18 1 -31 -3 -28 -8z"/>
<path d="M1613 939 c-18 -5 -35 -14 -38 -19 -8 -13 -1 -12 59 4 35 9 44 15 32
19 -10 4 -18 7 -19 6 -1 0 -16 -5 -34 -10z"/>
<path d="M895 933 c-26 -6 -113 -65 -119 -80 -3 -7 1 -36 9 -65 39 -140 47
-186 43 -253 -7 -132 -62 -194 -183 -207 -38 -3 -119 -22 -180 -41 l-110 -34
-6 -74 c-4 -41 -12 -94 -18 -118 -13 -44 -10 -58 8 -46 23 14 52 89 58 149 l6
64 76 26 c147 52 141 51 268 35 151 -18 307 -19 325 -1 9 9 13 40 12 90 0 66
-6 90 -38 167 -35 82 -39 102 -46 215 -4 69 -11 133 -15 142 -5 13 -63 44 -69
37 -1 -1 -10 -3 -21 -6z m42 -281 c14 -9 83 -188 103 -270 11 -41 11 -55 2
-64 -13 -13 -86 -17 -98 -6 -4 4 1 24 11 44 14 29 15 42 6 56 -6 10 -11 29
-11 42 0 14 -4 27 -10 31 -5 3 -7 12 -3 20 3 8 -1 15 -8 15 -7 0 -9 3 -6 7 4
3 3 11 -2 17 -4 6 -11 35 -15 64 -7 53 1 63 31 44z"/>
<path d="M1566 354 c-10 -27 -7 -59 14 -119 11 -32 20 -71 20 -87 0 -27 2 -28
50 -28 l51 0 -16 29 c-17 34 -35 48 -36 29 0 -7 -7 14 -15 47 -8 32 -22 71
-31 85 -10 14 -16 30 -15 37 4 18 -15 25 -22 7z"/>
<path d="M1360 342 c48 -27 80 -36 80 -23 0 15 -29 28 -75 36 l-40 6 35 -19z"/>
<path d="M1377 225 c-13 -89 -10 -105 17 -105 23 0 24 3 24 56 0 36 -6 62 -18
76 -17 21 -17 20 -23 -27z"/>
<path d="M954 215 c-6 -23 2 -63 10 -54 2 2 6 21 9 42 6 41 -9 51 -19 12z"/>
<path d="M1955 135 l-30 -13 46 -1 c30 -1 51 4 59 14 11 13 8 15 -16 15 -16
-1 -42 -7 -59 -15z"/>
<path d="M2078 123 c6 -2 18 -2 25 0 6 3 1 5 -13 5 -14 0 -19 -2 -12 -5z"/>
</g>
</svg>
